<svg width="97" height="25" viewBox="0 0 97 25" fill="none" xmlns="http://www.w3.org/2000/svg">
<path d="M15.1546 3.21456V0.41748H0V24.5302H15.1546V21.701H3.22235V13.2133H10.1456V14.6279H13.4318V11.8951H10.9432V10.4805H3.22235V3.21456H15.1546Z" fill="#FFCC11"/>
<path d="M57.122 20.7843C57.1436 19.7821 57.2627 18.7908 57.4792 17.8105C57.6957 16.8083 57.9122 15.8061 58.1286 14.8039C58.3668 13.8017 58.4859 12.7996 58.4859 11.7974C58.5075 10.817 58.3776 9.8475 58.0962 8.88889C57.8147 7.93028 57.5333 6.98257 57.2519 6.04575C56.9704 5.08715 56.8297 4.15033 56.8297 3.23529C56.8297 2.29848 57.0137 1.60131 57.3818 1.14379C57.7714 0.686275 58.4642 0.381264 59.4601 0.228759C60.4559 0.0762531 61.8739 0 63.7141 0C65.4243 0 66.9831 0.185185 68.3902 0.555556C69.7974 0.90414 70.9123 1.49238 71.735 2.32026C72.5793 3.12636 73.0015 4.20479 73.0015 5.55556C73.0015 6.27451 72.8066 6.86274 72.4169 7.32026C72.0273 7.75599 71.5077 7.97386 70.8582 7.97386C70.3603 7.97386 69.9706 7.82135 69.6892 7.51634C69.4294 7.18954 69.2237 6.7756 69.0722 6.27451C68.9206 5.75163 68.7474 5.21786 68.5526 4.6732C68.3794 4.10675 68.1305 3.57299 67.8057 3.0719C67.481 2.54902 67.0155 2.13508 66.4094 1.83007C65.8248 1.50327 65.0347 1.33987 64.0388 1.33987C62.9564 1.33987 62.0904 1.71024 61.4409 2.45098C60.7915 3.16994 60.4667 4.07408 60.4667 5.1634C60.4667 6.27451 60.6183 7.15686 60.9214 7.81046C61.2461 8.44227 61.6574 8.92157 62.1554 9.24837C62.6749 9.55338 63.2378 9.77124 63.844 9.90196C64.4718 10.0109 65.0888 10.098 65.695 10.1634C66.3228 10.207 66.8856 10.2941 67.3836 10.4248C67.9031 10.5338 68.3145 10.7407 68.6176 11.0458C68.9423 11.329 69.1047 11.7865 69.1047 12.4183C69.1047 13.0937 68.899 13.6057 68.4877 13.9542C68.098 14.3028 67.665 14.4771 67.1887 14.4771C66.5826 14.4771 65.9656 14.3028 65.3377 13.9542C64.7316 13.6057 64.147 13.1699 63.5842 12.6471C63.043 12.1242 62.545 11.5904 62.0904 11.0458C61.6574 10.4793 61.3002 9.97821 61.0188 9.54248C60.759 9.08497 60.6183 8.77995 60.5966 8.62745H60.4667V15.2941C60.4667 16.5142 60.4884 17.6362 60.5317 18.6601C60.575 19.6841 60.7373 20.5773 61.0188 21.3399C61.3002 22.0806 61.7765 22.6579 62.4476 23.0719C63.1404 23.4641 64.1254 23.6601 65.4027 23.6601C66.2037 23.6601 66.8207 23.4967 67.2537 23.1699C67.7083 22.8214 68.0655 22.4074 68.3253 21.9281C68.5851 21.427 68.834 20.9259 69.0722 20.4248C69.332 19.9237 69.6459 19.5098 70.0139 19.183C70.4036 18.8344 70.9556 18.6601 71.6701 18.6601C72.4278 18.6601 73.0448 18.8889 73.521 19.3464C74.019 19.7821 74.2679 20.3159 74.2679 20.9477C74.2679 21.8627 73.8999 22.6253 73.1638 23.2353C72.4278 23.8235 71.4103 24.2593 70.1113 24.5425C68.8124 24.8475 67.3186 25 65.63 25C63.8981 25 62.4801 24.9564 61.376 24.8693C60.2719 24.7821 59.4059 24.597 58.7781 24.3137C58.1719 24.0305 57.739 23.6057 57.4792 23.0392C57.241 22.4728 57.122 21.7211 57.122 20.7843Z" fill="#4AB15E"/>
<path d="M50.1564 6.67145C50.0311 5.57133 49.5182 4.71088 48.6178 4.0901C47.7174 3.46146 46.5703 3.14713 45.1766 3.14713C43.7203 3.14713 42.5498 3.4811 41.665 4.14903C40.7881 4.81696 40.3496 5.67349 40.3496 6.7186C40.3496 7.15865 40.4436 7.56726 40.6315 7.94445C40.8194 8.31378 41.0504 8.62417 41.3244 8.87562C41.6063 9.11922 41.9547 9.34711 42.3697 9.55927C42.7925 9.77144 43.1801 9.93646 43.5324 10.0543C43.8847 10.1722 44.2801 10.2861 44.7186 10.3962L47.0675 11.0091C51.6793 12.1485 53.9851 14.4116 53.9851 17.7984C53.9851 19.8886 53.1904 21.5899 51.6009 22.9022C50.0193 24.2145 47.8466 24.8706 45.0827 24.8706C42.3971 24.8706 40.2556 24.242 38.6584 22.9847C37.0611 21.7195 36.2037 19.9908 36.0863 17.7984H39.7271C39.8289 19.0557 40.3731 20.0183 41.3596 20.6862C42.354 21.3463 43.5872 21.6763 45.0592 21.6763C46.6173 21.6763 47.8936 21.3188 48.8879 20.6037C49.8901 19.8808 50.3913 18.9339 50.3913 17.763C50.3913 17.3466 50.313 16.9655 50.1564 16.6197C49.9998 16.2739 49.7923 15.9793 49.5339 15.7357C49.2833 15.4921 48.9506 15.2681 48.5356 15.0638C48.1285 14.8516 47.7174 14.6748 47.3024 14.5334C46.8874 14.3841 46.3981 14.2348 45.8343 14.0855L42.9921 13.3075C38.8189 12.176 36.7323 10.0504 36.7323 6.93077C36.7323 5.57133 37.1042 4.3612 37.848 3.30036C38.5997 2.23953 39.6214 1.42623 40.9133 0.860453C42.2052 0.286818 43.6538 0 45.2589 0C47.6861 0 49.6788 0.624712 51.2369 1.87414C52.795 3.12356 53.6015 4.72267 53.6563 6.67145H50.1564Z" fill="#FF6242"/>
<path d="M97 0.730469V24.4779H93.7275L81.7323 7.06156H81.5134V24.4779H77.9529V0.730469H81.2484L93.2551 18.17H93.474V0.730469H97Z" fill="#272727"/>
<path d="M19.8056 13.2326C17.7798 11.9528 18.5917 9.93619 19.2509 9.08784C19.174 9.20096 19.2351 9.13632 20.095 7.97286C20.955 6.8094 20.2604 5.12887 19.8056 4.43404C19.468 3.56145 19.1159 1.59813 20.4085 0.725555C22.0244 -0.36517 23.592 -0.243986 24.9908 1.21032C26.1098 2.37377 27.5794 2.09906 28.1742 1.81628C29.0746 1.04873 31.1214 -0.0258475 32.1053 1.81628C33.3353 4.11894 32.4671 6.47007 32.1053 7.31842C31.7436 8.16677 30.7065 8.33644 28.9701 8.23949C27.581 8.16192 27.1914 6.17456 26.9684 5.18544C26.5972 4.33191 25.3477 2.9555 23.592 3.92504C21.3973 5.13696 21.952 8.16678 22.2414 9.08784C22.5308 10.0089 24.8943 12.2093 26.9684 10.2755C28.6276 8.7285 29.8142 9.03935 30.4895 9.33022C31.1889 9.52412 32.578 9.94589 33.0218 11.8268C33.5765 14.1779 32.7148 13.8374 32.4671 15.4868C32.2741 16.7715 33.5041 17.9107 33.6488 19.0983C33.7935 20.286 33.4878 21.7036 31.7677 23.3643C29.6523 25.4067 25.7143 24.9156 24.5326 24.9156C23.3659 24.9156 21.1562 24.2127 20.095 23.3643C19.2509 22.6895 18.5756 21.5222 17.9968 19.4134C17.2565 16.7162 18.8409 15.8019 19.2509 15.4868C19.668 15.1663 21.8556 14.6869 22.8444 15.4868C23.8332 16.2867 23.8332 17.5471 23.592 19.4134C23.3508 21.2798 23.8281 21.9354 24.5326 22.8068C25.1596 23.5825 28.8736 23.9218 29.6695 22.3948C30.4627 20.873 29.4354 20.2178 28.1871 19.4216L28.1742 19.4134C26.9202 18.6136 27.1372 17.135 27.5231 16.1412C27.909 15.1475 28.4154 14.6869 27.7643 12.9902C27.2433 11.6329 25.5214 11.6329 24.5326 12.3358C23.3749 13.2326 21.8315 14.5124 19.8056 13.2326Z" fill="#AD99E5"/>
</svg>
