<svg width="25" height="25" viewBox="0 0 25 25" fill="none" xmlns="http://www.w3.org/2000/svg">
<path fill-rule="evenodd" clip-rule="evenodd" d="M10.4167 18.7499C5.81433 18.7499 2.08337 15.019 2.08337 10.4166C2.08337 5.81421 5.81433 2.08325 10.4167 2.08325C15.0191 2.08325 18.75 5.81421 18.75 10.4166C18.75 12.3423 18.0968 14.1155 16.9999 15.5266L22.6116 21.1384L21.1385 22.6115L15.5267 16.9998C14.1156 18.0967 12.3424 18.7499 10.4167 18.7499ZM16.6667 10.4166C16.6667 13.8684 13.8685 16.6666 10.4167 16.6666C6.96493 16.6666 4.16671 13.8684 4.16671 10.4166C4.16671 6.96481 6.96493 4.16659 10.4167 4.16659C13.8685 4.16659 16.6667 6.96481 16.6667 10.4166Z" fill="#272727"/>
</svg>
