<svg width="24" height="25" viewBox="0 0 24 25" fill="none" xmlns="http://www.w3.org/2000/svg">
<path fill-rule="evenodd" clip-rule="evenodd" d="M18.3539 20.9932L20.4703 18.8767L19.7249 16.1687L20.0496 15.3931L22.5002 14.0102V11.0172L20.0566 9.62857L19.7373 8.85435L20.492 6.14492L18.3741 4.03001L15.666 4.7752L14.8921 4.45074L13.5092 1.99976H10.5163L9.12775 4.44355L8.35373 4.76278L5.64486 4.00707L3.53028 6.12176L4.27556 8.83049L3.95111 9.60434L1.50024 10.9874V13.9795L3.94172 15.3712L4.26129 16.1461L3.50667 18.8551L5.62206 20.9706L8.33066 20.2253L9.10457 20.5498L10.4875 22.9998H13.4796L14.8703 20.5581L15.645 20.2386L18.3539 20.9932ZM18.8527 14.1256L17.9809 16.2078L18.6362 18.5886L18.0678 19.157L15.692 18.4951L13.609 19.3542L12.3873 21.499H11.5829L10.3714 19.3529L8.29155 18.4808L5.90947 19.1362L5.34203 18.5688L6.00385 16.193L5.14482 14.1101L3 12.8876V12.083L5.1471 10.8715L6.0192 8.79155L5.36375 6.40947L5.93001 5.84321L8.30576 6.50595L10.3895 5.64655L11.6093 3.5H12.4129L13.6245 5.6471L15.7044 6.5192L18.087 5.86362L18.6558 6.43166L17.9941 8.80696L18.8534 10.8906L21 12.1103V12.9139L18.8527 14.1256ZM12.0001 16.4999C9.79092 16.4999 8.00006 14.709 8.00006 12.4999C8.00006 10.2907 9.79092 8.49988 12.0001 8.49988C14.2092 8.49988 16.0001 10.2907 16.0001 12.4999C16.0001 14.709 14.2092 16.4999 12.0001 16.4999ZM14 12.4999C14 13.6045 13.1046 14.4999 12 14.4999C10.8955 14.4999 10 13.6045 10 12.4999C10 11.3954 10.8955 10.4999 12 10.4999C13.1046 10.4999 14 11.3954 14 12.4999Z" fill="#272727"/>
</svg>
