<svg width="42" height="43" viewBox="0 0 42 43" fill="none" xmlns="http://www.w3.org/2000/svg">
<mask id="mask0" mask-type="alpha" maskUnits="userSpaceOnUse" x="0" y="0" width="42" height="43">
<circle cx="21" cy="21.5" r="21" fill="#C4C4C4"/>
</mask>
<g mask="url(#mask0)">
<rect y="0.5" width="42" height="42" fill="#0E3E6F"/>
<rect x="4.35059" y="4.85156" width="33.2973" height="33.2973" fill="white"/>
<path fill-rule="evenodd" clip-rule="evenodd" d="M2.54541 22.0224V39.3779H21H39.4545V22.0224V4.66699H21H2.54541V22.0224ZM20.28 6.46014L21.1902 7.33032L22.1004 6.46014C22.9887 5.6112 23.0395 5.59015 24.1932 5.59015C24.8436 5.59015 25.3758 5.65071 25.3758 5.72457C25.3758 5.79842 24.7143 6.50482 23.9057 7.29413L22.4356 8.72909L24.0442 10.2985L25.6528 11.8677H28.6535H31.6541V14.7797V17.6917L33.2711 19.2528L34.8882 20.8138L36.3669 19.3872C37.1802 18.6025 37.9081 17.9605 37.9842 17.9605C38.0603 17.9605 38.1227 18.4769 38.1227 19.1082C38.1227 20.2265 38.1001 20.278 37.2335 21.1318L36.3444 22.0079L37.2335 22.9305C38.0892 23.8184 38.1227 23.8948 38.1227 24.9686C38.1227 25.5823 38.0603 26.0844 37.9842 26.0844C37.9081 26.0844 37.1802 25.4424 36.3669 24.6577L34.8882 23.231L33.2757 24.7877L31.6633 26.3445L31.6111 29.3069L31.559 32.2695L28.515 32.3203L25.4709 32.3711L23.9964 33.7931C23.1854 34.5751 22.522 35.2911 22.522 35.3841C22.522 35.4772 23.1641 36.1448 23.9489 36.868C24.7337 37.591 25.3758 38.2439 25.3758 38.3187C25.3758 38.3934 24.8436 38.4547 24.1932 38.4547C23.0395 38.4547 22.9887 38.4337 22.1004 37.5847L21.1902 36.7146L20.28 37.5847C19.3917 38.4337 19.341 38.4547 18.1873 38.4547C17.5368 38.4547 17.0046 38.3942 17.0046 38.3203C17.0046 38.2465 17.6662 37.5403 18.4747 36.7509L19.9446 35.316L18.4359 33.8432L16.9272 32.3705L13.7793 32.32L10.6312 32.2695L10.5792 29.2144L10.5271 26.1595L9.00964 24.6954L7.49199 23.2312L6.01334 24.6577C5.20001 25.4424 4.47229 26.0844 4.39619 26.0844C4.32009 26.0844 4.25769 25.5679 4.25769 24.9367C4.25769 23.8171 4.27938 23.7678 5.15416 22.9057L6.05082 22.0224L5.15416 21.1392C4.27938 20.2771 4.25769 20.2278 4.25769 19.1082C4.25769 18.4769 4.32009 17.9605 4.39619 17.9605C4.47229 17.9605 5.20001 18.6025 6.01334 19.3872L7.49199 20.8137L9.00945 19.3497L10.5269 17.8856L10.579 14.9228L10.6312 11.96L13.684 11.9094L16.7366 11.8588L18.3408 10.294L19.9448 8.72909L18.4747 7.29413C17.6662 6.50482 17.0046 5.79842 17.0046 5.72457C17.0046 5.65071 17.5368 5.59015 18.1873 5.59015C19.341 5.59015 19.3917 5.6112 20.28 6.46014ZM19.3828 11.8677L17.6785 13.5294H15.0585H12.4386V16.0645V18.5997L10.6825 20.3111L8.9265 22.0224L10.6825 23.7338L12.4386 25.4452V27.9804V30.5155H15.0509H17.6633L19.4268 32.2197L21.1902 33.9239L22.9537 32.2197L24.7171 30.5155H27.3295H29.9418V27.9804V25.4452L31.6979 23.7338L33.4539 22.0224L31.703 20.3146L29.9519 18.6067L29.8994 16.1142L29.8467 13.6217L27.2692 13.5705L24.6918 13.5194L22.9925 11.8627C22.058 10.9515 21.2469 10.206 21.1902 10.206C21.1335 10.206 20.3202 10.9537 19.3828 11.8677Z" fill="#0E3E6F"/>
</g>
</svg>
