<svg width="16" height="16" viewBox="0 0 16 16" fill="none" xmlns="http://www.w3.org/2000/svg">
<path d="M6.51173 10.6959L7.35516 9.8339M7.35516 9.8339C7.16773 9.57053 6.90533 8.92885 7.35516 8.46914C7.80499 8.00944 8.51199 8.21658 8.76088 8.46914M7.35516 9.8339C7.61287 10.0494 8.25482 10.3511 8.76088 9.8339C9.26693 9.31673 8.97173 8.70857 8.76088 8.46914M8.76088 8.46914L12.0405 5.14106M2.85689 9.04378H4.20462M12.0405 9.04378H13.3997M8.12522 5.04836L8.1283 3.65658M5.36491 6.35644L4.37789 5.35485M3.41917 14H12.7672C16.7453 10.6959 15.532 2 8.1252 2C0.941026 2 -1.15175 10.6959 3.41917 14Z" stroke="#9AA1A5" stroke-width="1.36761"/>
</svg>
