<svg width="188" height="188" viewBox="0 0 188 188" fill="none" xmlns="http://www.w3.org/2000/svg">
<rect width="187.5" height="187.5" fill="#272727"/>
<path d="M45.4353 80.2131V76.182H23.4717V110.933H45.4353V106.855H28.1418V94.623H38.1757V96.6617H42.9384V92.7233H39.3317V90.6846H28.1418V80.2131H45.4353Z" fill="#FFCC11"/>
<path d="M106.26 105.535C106.291 104.091 106.463 102.662 106.777 101.249C107.091 99.8047 107.405 98.3604 107.718 96.9161C108.064 95.4718 108.236 94.0275 108.236 92.5831C108.268 91.1702 108.079 89.773 107.671 88.3915C107.264 87.01 106.856 85.6442 106.448 84.294C106.04 82.9125 105.836 81.5624 105.836 80.2437C105.836 78.8936 106.103 77.8888 106.636 77.2295C107.201 76.5701 108.205 76.1305 109.648 75.9107C111.091 75.6909 113.146 75.5811 115.813 75.5811C118.292 75.5811 120.551 75.8479 122.591 76.3817C124.63 76.8841 126.246 77.7318 127.438 78.925C128.662 80.0867 129.274 81.6409 129.274 83.5876C129.274 84.6237 128.991 85.4715 128.427 86.1308C127.862 86.7588 127.109 87.0728 126.167 87.0728C125.446 87.0728 124.881 86.853 124.473 86.4134C124.097 85.9424 123.799 85.3459 123.579 84.6237C123.359 83.8702 123.108 83.1009 122.826 82.316C122.575 81.4996 122.214 80.7304 121.743 80.0082C121.273 79.2546 120.598 78.6581 119.72 78.2185C118.873 77.7475 117.727 77.512 116.284 77.512C114.715 77.512 113.46 78.0458 112.519 79.1133C111.578 80.1495 111.107 81.4525 111.107 83.0224C111.107 84.6237 111.327 85.8953 111.766 86.8373C112.237 87.7478 112.833 88.4386 113.554 88.9096C114.307 89.3491 115.123 89.6631 116.002 89.8515C116.912 90.0085 117.806 90.1341 118.684 90.2283C119.594 90.2911 120.41 90.4167 121.132 90.6051C121.885 90.7621 122.481 91.0603 122.92 91.4999C123.391 91.9081 123.626 92.5674 123.626 93.478C123.626 94.4513 123.328 95.1892 122.732 95.6916C122.167 96.1939 121.54 96.4451 120.849 96.4451C119.971 96.4451 119.077 96.1939 118.167 95.6916C117.288 95.1892 116.441 94.5612 115.625 93.8077C114.841 93.0541 114.119 92.2849 113.46 91.4999C112.833 90.6836 112.315 89.9614 111.907 89.3334C111.531 88.6741 111.327 88.2345 111.295 88.0147H111.107V97.6225C111.107 99.3808 111.138 100.998 111.201 102.474C111.264 103.949 111.499 105.237 111.907 106.336C112.315 107.403 113.005 108.235 113.978 108.832C114.982 109.397 116.41 109.679 118.261 109.679C119.422 109.679 120.316 109.444 120.943 108.973C121.602 108.471 122.12 107.874 122.496 107.183C122.873 106.461 123.234 105.739 123.579 105.017C123.955 104.295 124.41 103.698 124.944 103.227C125.509 102.725 126.309 102.474 127.344 102.474C128.442 102.474 129.336 102.803 130.027 103.463C130.748 104.091 131.109 104.86 131.109 105.77C131.109 107.089 130.576 108.188 129.509 109.067C128.442 109.915 126.968 110.543 125.085 110.951C123.202 111.391 121.038 111.61 118.59 111.61C116.08 111.61 114.025 111.548 112.425 111.422C110.825 111.296 109.57 111.03 108.66 110.621C107.781 110.213 107.154 109.601 106.777 108.785C106.432 107.968 106.26 106.885 106.26 105.535Z" fill="#4AB15E"/>
<path d="M96.0952 85.645C95.9167 84.0845 95.1861 82.8641 93.9033 81.9835C92.6206 81.0918 90.9865 80.646 89.001 80.646C86.9263 80.646 85.2587 81.1197 83.9983 82.0671C82.749 83.0145 82.1243 84.2294 82.1243 85.7119C82.1243 86.336 82.2582 86.9156 82.5259 87.4506C82.7936 87.9745 83.1226 88.4148 83.513 88.7714C83.9146 89.117 84.411 89.4402 85.0022 89.7412C85.6045 90.0421 86.1566 90.2762 86.6586 90.4434C87.1605 90.6105 87.7238 90.7722 88.3485 90.9282L91.6948 91.7976C98.2647 93.4138 101.55 96.6238 101.55 101.428C101.55 104.393 100.417 106.806 98.1531 108.667C95.9 110.528 92.8046 111.459 88.8671 111.459C85.0412 111.459 81.9905 110.568 79.715 108.784C77.4395 106.99 76.2181 104.538 76.0508 101.428H81.2376C81.3826 103.211 82.1578 104.577 83.5632 105.524C84.9798 106.46 86.7367 106.928 88.8337 106.928C91.0534 106.928 92.8715 106.421 94.2882 105.407C95.7159 104.381 96.4298 103.038 96.4298 101.378C96.4298 100.787 96.3182 100.246 96.0952 99.7559C95.8721 99.2654 95.5765 98.8475 95.2084 98.5019C94.8514 98.1564 94.3774 97.8387 93.7862 97.5489C93.2062 97.248 92.6206 96.9972 92.0294 96.7966C91.4382 96.5848 90.7411 96.373 89.938 96.1613L85.8889 95.0578C79.9437 93.4528 76.971 90.4378 76.971 86.0128C76.971 84.0845 77.5008 82.3681 78.5605 80.8633C79.6313 79.3586 81.087 78.205 82.9274 77.4025C84.7679 76.5888 86.8315 76.182 89.1181 76.182C92.576 76.182 95.4148 77.0681 97.6345 78.8403C99.8542 80.6126 101.003 82.8808 101.081 85.645H96.0952Z" fill="#FF6242"/>
<path d="M164.055 76.6335V110.858H159.312L141.927 85.7578H141.61V110.858H136.45V76.6335H141.226L158.627 101.767H158.944V76.6335H164.055Z" fill="#F8F5E8"/>
<path d="M52.2782 94.9187C49.3895 93.1065 50.5473 90.2511 51.4872 89.0499C51.3775 89.21 51.4646 89.1185 52.6908 87.4711C53.917 85.8237 52.9266 83.4442 52.2782 82.4604C51.7967 81.2248 51.2946 78.4449 53.1379 77.2094C55.4419 75.6649 57.6772 75.8365 59.6717 77.8958C61.2674 79.5431 63.3628 79.1542 64.2111 78.7538C65.4949 77.6669 68.4134 76.1454 69.8165 78.7538C71.5703 82.0142 70.3323 85.3433 69.8165 86.5445C69.3006 87.7457 67.8219 87.9859 65.3459 87.8486C63.3651 87.7388 62.8096 84.9248 62.4916 83.5243C61.9623 82.3157 60.1807 80.3668 57.6772 81.7396C54.5478 83.4557 55.3388 87.7457 55.7514 89.0499C56.1641 90.354 59.5342 93.4697 62.4916 90.7316C64.8576 88.5411 66.5495 88.9812 67.5124 89.3931C68.5097 89.6676 70.4905 90.2648 71.1232 92.9281C71.9142 96.2572 70.6855 95.775 70.3323 98.1104C70.0572 99.9294 71.811 101.542 72.0173 103.224C72.2237 104.906 71.7877 106.913 69.335 109.265C66.3186 112.156 60.7034 111.461 59.0184 111.461C57.3549 111.461 54.2039 110.466 52.6908 109.265C51.4872 108.309 50.5243 106.656 49.699 103.67C48.6434 99.8513 50.9025 98.5566 51.4872 98.1104C52.082 97.6566 55.2012 96.9779 56.6111 98.1104C58.0211 99.243 58.0211 101.028 57.6772 103.67C57.3333 106.313 58.0138 107.241 59.0184 108.475C59.9124 109.573 65.2084 110.054 66.3432 107.892C67.4741 105.737 66.0094 104.809 64.2294 103.682L64.2111 103.67C62.4229 102.538 62.7324 100.444 63.2826 99.0371C63.8328 97.63 64.555 96.9779 63.6265 94.5755C62.8837 92.6535 60.4283 92.6535 59.0184 93.6488C57.3677 94.9187 55.1668 96.7308 52.2782 94.9187Z" fill="#9897DE"/>
</svg>
