<svg width="188" height="188" viewBox="0 0 188 188" fill="none" xmlns="http://www.w3.org/2000/svg">
<rect x="0.5" width="187.5" height="187.5" fill="#FF6242"/>
<path d="M45.9358 80.213V76.1819H23.9722V110.933H45.9358V106.855H28.6423V94.6229H38.6762V96.6616H43.4389V92.7232H39.8322V90.6845H28.6423V80.213H45.9358Z" fill="#FFCC11"/>
<path d="M106.76 105.535C106.791 104.091 106.964 102.662 107.278 101.249C107.591 99.8047 107.905 98.3604 108.219 96.9161C108.564 95.4718 108.737 94.0275 108.737 92.5831C108.768 91.1702 108.58 89.773 108.172 88.3915C107.764 87.01 107.356 85.6442 106.948 84.294C106.54 82.9125 106.336 81.5624 106.336 80.2437C106.336 78.8936 106.603 77.8888 107.137 77.2295C107.701 76.5701 108.705 76.1305 110.149 75.9107C111.592 75.6909 113.647 75.5811 116.314 75.5811C118.793 75.5811 121.052 75.8479 123.091 76.3817C125.131 76.8841 126.746 77.7318 127.939 78.925C129.162 80.0867 129.774 81.6409 129.774 83.5876C129.774 84.6237 129.492 85.4715 128.927 86.1308C128.362 86.7588 127.609 87.0728 126.668 87.0728C125.946 87.0728 125.382 86.853 124.974 86.4134C124.597 85.9424 124.299 85.3459 124.079 84.6237C123.86 83.8702 123.609 83.1009 123.326 82.3159C123.075 81.4996 122.715 80.7303 122.244 80.0082C121.773 79.2546 121.099 78.6581 120.22 78.2185C119.373 77.7475 118.228 77.512 116.785 77.512C115.216 77.512 113.961 78.0458 113.019 79.1133C112.078 80.1495 111.608 81.4525 111.608 83.0224C111.608 84.6237 111.827 85.8953 112.266 86.8373C112.737 87.7478 113.333 88.4386 114.055 88.9096C114.808 89.3491 115.624 89.6631 116.502 89.8515C117.412 90.0085 118.306 90.1341 119.185 90.2283C120.095 90.2911 120.91 90.4167 121.632 90.6051C122.385 90.762 122.981 91.0603 123.421 91.4999C123.891 91.9081 124.126 92.5674 124.126 93.478C124.126 94.4513 123.828 95.1892 123.232 95.6915C122.668 96.1939 122.04 96.4451 121.35 96.4451C120.471 96.4451 119.577 96.1939 118.667 95.6915C117.789 95.1892 116.941 94.5612 116.126 93.8077C115.341 93.0541 114.62 92.2849 113.961 91.4999C113.333 90.6836 112.816 89.9614 112.408 89.3334C112.031 88.6741 111.827 88.2345 111.796 88.0147H111.608V97.6225C111.608 99.3808 111.639 100.998 111.702 102.474C111.764 103.949 112 105.237 112.408 106.336C112.816 107.403 113.506 108.235 114.478 108.832C115.482 109.397 116.91 109.679 118.761 109.679C119.922 109.679 120.816 109.444 121.444 108.973C122.103 108.471 122.62 107.874 122.997 107.183C123.373 106.461 123.734 105.739 124.079 105.017C124.456 104.295 124.911 103.698 125.444 103.227C126.009 102.725 126.809 102.474 127.845 102.474C128.943 102.474 129.837 102.803 130.527 103.463C131.249 104.091 131.61 104.86 131.61 105.77C131.61 107.089 131.076 108.188 130.009 109.067C128.943 109.915 127.468 110.543 125.585 110.951C123.703 111.391 121.538 111.61 119.091 111.61C116.581 111.61 114.526 111.548 112.925 111.422C111.325 111.296 110.07 111.03 109.16 110.621C108.282 110.213 107.654 109.601 107.278 108.785C106.933 107.968 106.76 106.885 106.76 105.535Z" fill="#4AB15E"/>
<path d="M96.5956 85.6449C96.4172 84.0844 95.6866 82.8639 94.4038 81.9834C93.1211 81.0917 91.4869 80.6459 89.5015 80.6459C87.4268 80.6459 85.7592 81.1196 84.4987 82.067C83.2495 83.0144 82.6248 84.2293 82.6248 85.7117C82.6248 86.3359 82.7587 86.9155 83.0264 87.4505C83.2941 87.9744 83.6231 88.4146 84.0135 88.7713C84.4151 89.1168 84.9115 89.4401 85.5026 89.741C86.105 90.042 86.6571 90.276 87.1591 90.4432C87.661 90.6104 88.2243 90.772 88.8489 90.9281L92.1953 91.7975C98.7652 93.4136 102.05 96.6237 102.05 101.428C102.05 104.392 100.918 106.806 98.6536 108.667C96.4004 110.528 93.3051 111.459 89.3676 111.459C85.5417 111.459 82.491 110.567 80.2155 108.784C77.94 106.989 76.7186 104.537 76.5513 101.428H81.738C81.883 103.211 82.6583 104.576 84.0637 105.524C85.4803 106.46 87.2371 106.928 89.3342 106.928C91.5539 106.928 93.372 106.421 94.7886 105.407C96.2164 104.381 96.9303 103.038 96.9303 101.377C96.9303 100.787 96.8187 100.246 96.5956 99.7557C96.3725 99.2653 96.077 98.8473 95.7089 98.5018C95.3519 98.1563 94.8779 97.8386 94.2867 97.5488C93.7067 97.2479 93.1211 96.9971 92.5299 96.7965C91.9387 96.5847 91.2416 96.3729 90.4384 96.1611L86.3894 95.0577C80.4441 93.4526 77.4715 90.4376 77.4715 86.0127C77.4715 84.0844 78.0013 82.3679 79.061 80.8632C80.1318 79.3585 81.5875 78.2049 83.4279 77.4024C85.2684 76.5887 87.3319 76.1819 89.6186 76.1819C93.0764 76.1819 95.9152 77.068 98.1349 78.8402C100.355 80.6124 101.504 82.8806 101.582 85.6449H96.5956Z" fill="#F8F5E8"/>
<path d="M164.555 76.6335V110.858H159.812L142.428 85.7577H142.11V110.858H136.95V76.6335H141.726L159.128 101.767H159.445V76.6335H164.555Z" fill="#272727"/>
<path d="M52.7787 94.9185C49.89 93.1064 51.0477 90.251 51.9877 89.0497C51.878 89.2099 51.9651 89.1184 53.1913 87.471C54.4175 85.8236 53.4271 83.4441 52.7787 82.4602C52.2972 81.2247 51.7951 78.4448 53.6384 77.2092C55.9424 75.6648 58.1777 75.8364 60.1722 77.8956C61.7679 79.543 63.8633 79.154 64.7116 78.7536C65.9954 77.6668 68.9139 76.1453 70.3169 78.7536C72.0708 82.0141 70.8328 85.3431 70.3169 86.5443C69.8011 87.7456 68.3224 87.9858 65.8464 87.8485C63.8656 87.7387 63.3101 84.9247 62.9921 83.5242C62.4628 82.3156 60.6812 80.3667 58.1777 81.7395C55.0483 83.4555 55.8392 87.7456 56.2519 89.0497C56.6646 90.3539 60.0347 93.4696 62.9921 90.7314C65.3581 88.5409 67.05 88.9811 68.0129 89.3929C69.0102 89.6675 70.9909 90.2647 71.6237 92.9279C72.4146 96.257 71.186 95.7749 70.8328 98.1103C70.5576 99.9293 72.3115 101.542 72.5178 103.224C72.7241 104.906 72.2882 106.913 69.8355 109.264C66.8191 112.156 61.2039 111.461 59.5188 111.461C57.8553 111.461 54.7044 110.466 53.1913 109.264C51.9877 108.309 51.0248 106.656 50.1995 103.67C49.1439 99.8511 51.403 98.5565 51.9877 98.1103C52.5825 97.6565 55.7017 96.9777 57.1116 98.1103C58.5216 99.2429 58.5216 101.028 58.1777 103.67C57.8338 106.313 58.5143 107.241 59.5188 108.475C60.4129 109.573 65.7088 110.054 66.8437 107.892C67.9746 105.737 66.5098 104.809 64.7299 103.682L64.7116 103.67C62.9233 102.538 63.2328 100.444 63.7831 99.037C64.3333 97.6298 65.0554 96.9777 64.1269 94.5753C63.3841 92.6534 60.9288 92.6534 59.5188 93.6487C57.8682 94.9185 55.6673 96.7306 52.7787 94.9185Z" fill="#9897DE"/>
</svg>
