<svg width="128" height="68" viewBox="0 0 128 68" fill="none" xmlns="http://www.w3.org/2000/svg">
<path d="M26.7637 9.76009L27.845 6.39379L9.50342 0.502197L0.181789 29.5221L18.5233 35.4137L19.6171 32.0087L5.17552 27.3698L8.45673 17.1548L16.8359 19.8463L16.2891 21.5488L20.2663 22.8264L21.3227 19.5375L18.3109 18.57L18.8577 16.8675L9.51319 13.8659L12.3221 5.12124L26.7637 9.76009Z" fill="#FFCC11"/>
<path d="M70.7651 47.2215C71.1787 46.0237 71.7061 44.877 72.3471 43.7813C72.9965 42.6593 73.646 41.5373 74.2954 40.4154C74.971 39.3018 75.5026 38.142 75.89 36.9359C76.2952 35.7644 76.5128 34.5471 76.5428 33.284C76.5727 32.0209 76.5985 30.7709 76.62 29.534C76.65 28.2709 76.8418 27.0887 77.1956 25.9875C77.5577 24.86 78.05 24.0925 78.6723 23.6849C79.3208 23.2858 80.2771 23.188 81.5413 23.3916C82.8056 23.5953 84.5513 24.0548 86.7784 24.7701C88.8483 25.435 90.6632 26.2639 92.2232 27.2567C93.7915 28.2233 94.9135 29.3647 95.5891 30.6809C96.2993 31.9792 96.3934 33.4413 95.8712 35.0669C95.5932 35.9322 95.13 36.5644 94.4815 36.9635C93.8414 37.3364 93.1284 37.3966 92.3423 37.1441C91.7397 36.9506 91.327 36.6155 91.1043 36.139C90.9162 35.6447 90.8273 35.0666 90.8376 34.4046C90.8564 33.7164 90.8531 33.0067 90.8278 32.2754C90.8372 31.5264 90.7422 30.7872 90.5429 30.0579C90.352 29.3024 89.9487 28.6232 89.333 28.0205C88.7519 27.3999 87.8587 26.8961 86.6534 26.5089C85.3434 26.0881 84.1521 26.1972 83.0797 26.8362C82.0157 27.449 81.2732 28.4109 80.8521 29.7219C80.4225 31.0591 80.2648 32.18 80.379 33.0844C80.5278 33.971 80.8403 34.7078 81.3166 35.2947C81.8275 35.8637 82.4245 36.3448 83.1076 36.7377C83.8254 37.1129 84.5384 37.4577 85.2468 37.772C85.9898 38.0685 86.6374 38.3922 87.1895 38.7431C87.7762 39.0762 88.194 39.4852 88.4429 39.9701C88.7264 40.4372 88.7461 41.051 88.5018 41.8113C88.2407 42.6242 87.7939 43.1604 87.1613 43.42C86.5549 43.688 85.9635 43.7295 85.3871 43.5443C84.6535 43.3087 83.9741 42.859 83.349 42.1954C82.7501 41.5402 82.2111 40.7886 81.732 39.9405C81.2791 39.1008 80.8828 38.2648 80.5431 37.4326C80.2381 36.5825 79.9995 35.8406 79.8273 35.2068C79.6898 34.5551 79.6374 34.1334 79.6701 33.9414L79.5129 33.8909L76.9357 41.9143C76.464 43.3826 76.0565 44.7414 75.713 45.9906C75.3696 47.2398 75.2208 48.3779 75.2666 49.405C75.3209 50.4059 75.6741 51.2859 76.3263 52.045C77.0132 52.7863 78.1296 53.4052 79.6754 53.9018C80.6449 54.2132 81.4548 54.2564 82.1052 54.0314C82.7902 53.7886 83.3825 53.4293 83.8822 52.9535C84.3904 52.4514 84.8854 51.9451 85.3673 51.4347C85.8755 50.9326 86.4154 50.5564 86.9872 50.3062C87.5936 50.0382 88.3291 50.043 89.1937 50.3208C90.1108 50.6154 90.7691 51.1305 91.1687 51.8663C91.6029 52.5843 91.6978 53.3235 91.4536 54.0839C91.0998 55.1851 90.3596 55.9597 89.233 56.4078C88.1147 56.8295 86.7148 56.9584 85.0332 56.7943C83.3432 56.6564 81.4763 56.2592 79.4326 55.6027C77.3365 54.9294 75.6371 54.3257 74.3345 53.7916C73.0319 53.2575 72.0555 52.6979 71.4051 52.113C70.7809 51.5365 70.4211 50.8568 70.3257 50.0741C70.2565 49.2998 70.4029 48.3489 70.7651 47.2215Z" fill="#4AB15E"/>
<path d="M67.6106 27.8851C67.8801 26.5342 67.5974 25.319 66.7624 24.2396C65.9304 23.1508 64.6853 22.3402 63.0273 21.8076C61.2947 21.2511 59.7751 21.1993 58.4684 21.6524C57.171 22.1085 56.3234 22.9555 55.9258 24.1934C55.7584 24.7147 55.7147 25.2346 55.7947 25.7532C55.8777 26.2624 56.0344 26.7184 56.2648 27.121C56.5074 27.5172 56.8352 27.9203 57.2482 28.3302C57.6705 28.7431 58.0688 29.0866 58.4431 29.3609C58.8174 29.6352 59.2445 29.9212 59.7242 30.2191L62.2855 31.8427C67.3384 34.9547 69.2206 38.5166 67.932 42.5283C67.1367 45.0042 65.5439 46.7157 63.1537 47.6627C60.7728 48.6127 57.9382 48.5596 54.6501 47.5034C51.4551 46.4771 49.1466 44.9142 47.7248 42.8145C46.3059 40.7056 45.9437 38.3302 46.6382 35.6884L50.9696 37.0797C50.6123 38.6079 50.8934 39.9561 51.813 41.1242C52.7448 42.2861 54.0863 43.1483 55.8375 43.7108C57.6912 44.3062 59.3455 44.3704 60.8006 43.9034C62.268 43.43 63.2244 42.4999 63.6699 41.113C63.8283 40.6197 63.8802 40.1384 63.8255 39.669C63.7707 39.1996 63.636 38.7712 63.4213 38.384C63.2159 37.9997 62.9052 37.6072 62.4893 37.2067C62.0856 36.7997 61.6639 36.4332 61.224 36.1071C60.7871 35.7717 60.2617 35.4078 59.6479 35.0155L56.5626 33.0079C52.0283 30.0728 50.3546 26.7576 51.5416 23.0624C52.0588 21.4521 52.9617 20.1608 54.2503 19.1885C55.5481 18.2192 57.0732 17.6463 58.8254 17.4698C60.5806 17.284 62.413 17.4978 64.3225 18.1112C67.2101 19.0387 69.3431 20.5402 70.7214 22.6156C72.0996 24.691 72.4506 26.8933 71.7744 29.2226L67.6106 27.8851Z" fill="#FF6242"/>
<path d="M126.782 38.5899L117.601 67.1701L113.641 65.8979L105.856 40.2739L105.591 40.1888L98.8579 61.1494L94.5486 59.7652L103.729 31.1851L107.718 32.4662L115.507 58.1226L115.772 58.2077L122.514 37.2191L126.782 38.5899Z" fill="#272727"/>
<path d="M28.5326 23.8758C26.6064 21.5877 28.3392 19.5137 29.4464 18.7627C29.3118 18.867 29.4091 18.814 30.875 17.7672C32.3409 16.7204 32.1521 14.4676 31.8745 13.472C31.8038 12.3111 32.1303 9.85494 34.0009 9.3176C36.3393 8.64594 38.1599 9.38883 39.2732 11.6435C40.1638 13.4472 42.018 13.6845 42.8338 13.5776C44.1974 13.0144 47.0427 12.5267 47.5148 15.0812C48.1048 18.2744 46.1779 20.7224 45.425 21.5872C44.672 22.4519 43.3727 22.2559 41.3418 21.4771C39.7171 20.854 40.0081 18.3551 40.1182 17.1002C40.0004 15.949 39.0354 13.8436 36.5765 14.3184C33.5028 14.912 33.0126 18.7068 33.0074 19.9066C33.0021 21.1064 34.9807 24.6122 38.1849 23.1189C40.7483 21.9243 42.0431 22.7457 42.7368 23.348C43.4959 23.8447 44.9899 24.8748 44.8039 27.2686C44.5714 30.2608 43.6747 29.5286 42.7532 31.3842C42.0356 32.8294 43.0675 34.6469 42.7887 36.1066C42.5099 37.5663 41.6074 39.1256 38.9284 40.4313C35.6337 42.0372 31.1311 39.9502 29.7239 39.4982C28.3347 39.052 25.9704 37.3756 25.029 35.9666C24.2802 34.8458 23.9195 33.2073 24.0312 30.4924C24.1741 27.02 26.408 26.5448 27.0159 26.3291C27.6344 26.1096 30.4212 26.3795 31.2949 27.7036C32.1685 29.0276 31.6898 30.5179 30.6937 32.6325C29.6976 34.7471 30.0169 35.7048 30.5248 37.0048C30.9768 38.1617 35.2705 39.9836 36.7982 38.4824C38.3207 36.9863 37.3463 35.8187 36.1623 34.3998L36.1501 34.3852C34.9606 32.9597 35.7806 31.2944 36.6175 30.267C37.4545 29.2395 38.2325 28.8886 38.1015 26.6333C37.9968 24.8291 35.9463 24.1704 34.5019 24.6234C32.7828 25.2411 30.4588 26.164 28.5326 23.8758Z" fill="#9897DE"/>
</svg>
