<svg width="188" height="188" viewBox="0 0 188 188" fill="none" xmlns="http://www.w3.org/2000/svg">
<rect x="0.5" width="187.5" height="187.5" fill="#F8F5E8"/>
<path d="M45.9353 80.2133V76.1823H23.9717V110.933H45.9353V106.855H28.6418V94.6233H38.6757V96.662H43.4384V92.7236H39.8317V90.6849H28.6418V80.2133H45.9353Z" fill="#FECE30"/>
<path d="M106.76 105.535C106.791 104.091 106.963 102.662 107.277 101.249C107.591 99.8048 107.905 98.3605 108.218 96.9162C108.564 95.4719 108.736 94.0276 108.736 92.5833C108.768 91.1703 108.579 89.7731 108.171 88.3916C107.764 87.0101 107.356 85.6443 106.948 84.2942C106.54 82.9126 106.336 81.5625 106.336 80.2438C106.336 78.8937 106.603 77.8889 107.136 77.2296C107.701 76.5702 108.705 76.1306 110.148 75.9109C111.591 75.6911 113.646 75.5812 116.313 75.5812C118.792 75.5812 121.051 75.8481 123.091 76.3818C125.13 76.8842 126.746 77.7319 127.938 78.9251C129.162 80.0868 129.774 81.641 129.774 83.5877C129.774 84.6238 129.491 85.4716 128.927 86.1309C128.362 86.7589 127.609 87.0729 126.667 87.0729C125.946 87.0729 125.381 86.8531 124.973 86.4135C124.597 85.9426 124.299 85.346 124.079 84.6238C123.859 83.8703 123.608 83.101 123.326 82.3161C123.075 81.4997 122.714 80.7305 122.243 80.0083C121.773 79.2548 121.098 78.6582 120.22 78.2186C119.373 77.7476 118.227 77.5122 116.784 77.5122C115.215 77.5122 113.96 78.0459 113.019 79.1135C112.078 80.1496 111.607 81.4526 111.607 83.0225C111.607 84.6238 111.827 85.8955 112.266 86.8374C112.737 87.7479 113.333 88.4387 114.054 88.9097C114.807 89.3493 115.623 89.6632 116.502 89.8516C117.412 90.0086 118.306 90.1342 119.184 90.2284C120.094 90.2912 120.91 90.4168 121.632 90.6052C122.385 90.7622 122.981 91.0605 123.42 91.5C123.891 91.9082 124.126 92.5676 124.126 93.4781C124.126 94.4514 123.828 95.1893 123.232 95.6917C122.667 96.194 122.04 96.4452 121.349 96.4452C120.471 96.4452 119.577 96.194 118.667 95.6917C117.788 95.1893 116.941 94.5613 116.125 93.8078C115.341 93.0542 114.619 92.285 113.96 91.5C113.333 90.6837 112.815 89.9615 112.407 89.3336C112.031 88.6742 111.827 88.2346 111.795 88.0148H111.607V97.6227C111.607 99.381 111.638 100.998 111.701 102.474C111.764 103.949 111.999 105.237 112.407 106.336C112.815 107.403 113.505 108.235 114.478 108.832C115.482 109.397 116.91 109.68 118.761 109.68C119.922 109.68 120.816 109.444 121.443 108.973C122.102 108.471 122.62 107.874 122.996 107.183C123.373 106.461 123.734 105.739 124.079 105.017C124.455 104.295 124.91 103.698 125.444 103.227C126.009 102.725 126.809 102.474 127.844 102.474C128.942 102.474 129.836 102.803 130.527 103.463C131.248 104.091 131.609 104.86 131.609 105.77C131.609 107.089 131.076 108.188 130.009 109.067C128.942 109.915 127.468 110.543 125.585 110.951C123.702 111.391 121.538 111.611 119.09 111.611C116.58 111.611 114.525 111.548 112.925 111.422C111.325 111.297 110.07 111.03 109.16 110.621C108.281 110.213 107.654 109.601 107.277 108.785C106.932 107.968 106.76 106.885 106.76 105.535Z" fill="#4AB15E"/>
<path d="M96.5951 85.6452C96.4167 84.0848 95.6861 82.8643 94.4033 81.9838C93.1206 81.0921 91.4865 80.6462 89.501 80.6462C87.4263 80.6462 85.7587 81.1199 84.4983 82.0674C83.249 83.0148 82.6243 84.2297 82.6243 85.7121C82.6243 86.3363 82.7582 86.9159 83.0259 87.4509C83.2936 87.9747 83.6226 88.415 84.013 88.7717C84.4146 89.1172 84.911 89.4404 85.5021 89.7414C86.1045 90.0423 86.6566 90.2764 87.1586 90.4436C87.6605 90.6108 88.2238 90.7724 88.8485 90.9284L92.1948 91.7978C98.7647 93.414 102.05 96.6241 102.05 101.428C102.05 104.393 100.917 106.806 98.6531 108.667C96.3999 110.529 93.3046 111.459 89.3671 111.459C85.5412 111.459 82.4905 110.568 80.215 108.784C77.9395 106.99 76.7181 104.538 76.5508 101.428H81.7376C81.8826 103.211 82.6578 104.577 84.0632 105.524C85.4798 106.46 87.2366 106.929 89.3337 106.929C91.5534 106.929 93.3715 106.421 94.7881 105.407C96.2159 104.382 96.9298 103.039 96.9298 101.378C96.9298 100.787 96.8182 100.247 96.5951 99.7561C96.3721 99.2657 96.0765 98.8477 95.7084 98.5022C95.3514 98.1566 94.8774 97.839 94.2862 97.5492C93.7062 97.2482 93.1206 96.9974 92.5294 96.7968C91.9382 96.585 91.2411 96.3733 90.4379 96.1615L86.3889 95.058C80.4437 93.453 77.471 90.438 77.471 86.013C77.471 84.0848 78.0008 82.3683 79.0605 80.8636C80.1313 79.3589 81.587 78.2053 83.4274 77.4027C85.2679 76.5891 87.3315 76.1823 89.6181 76.1823C93.076 76.1823 95.9147 77.0684 98.1345 78.8406C100.354 80.6128 101.503 82.881 101.581 85.6452H96.5951Z" fill="#FF6242"/>
<path d="M164.554 76.6337V110.858H159.811L142.427 85.7579H142.109V110.858H136.949V76.6337H141.725L159.127 101.767H159.444V76.6337H164.554Z" fill="#272727"/>
<path d="M52.7782 94.9189C49.8895 93.1068 51.0473 90.2513 51.9872 89.0501C51.8775 89.2103 51.9646 89.1187 53.1908 87.4714C54.417 85.824 53.4266 83.4444 52.7782 82.4606C52.2967 81.2251 51.7946 78.4451 53.6379 77.2096C55.9419 75.6652 58.1772 75.8368 60.1717 77.896C61.7674 79.5434 63.8628 79.1544 64.7111 78.754C65.9949 77.6672 68.9134 76.1457 70.3164 78.754C72.0703 82.0144 70.8323 85.3435 70.3164 86.5447C69.8006 87.7459 68.3219 87.9862 65.8459 87.8489C63.8651 87.7391 63.3096 84.9251 62.9916 83.5245C62.4623 82.316 60.6807 80.3671 58.1772 81.7399C55.0478 83.4559 55.8387 87.7459 56.2514 89.0501C56.6641 90.3543 60.0342 93.4699 62.9916 90.7318C65.3576 88.5413 67.0495 88.9814 68.0124 89.3933C69.0097 89.6679 70.9905 90.2651 71.6232 92.9283C72.4142 96.2574 71.1855 95.7753 70.8323 98.1107C70.5572 99.9297 72.311 101.543 72.5173 103.224C72.7237 104.906 72.2877 106.913 69.835 109.265C66.8186 112.157 61.2034 111.461 59.5184 111.461C57.8548 111.461 54.7039 110.466 53.1908 109.265C51.9872 108.309 51.0243 106.656 50.199 103.671C49.1434 99.8515 51.4025 98.5568 51.9872 98.1107C52.582 97.6568 55.7012 96.9781 57.1111 98.1107C58.5211 99.2432 58.5211 101.028 58.1772 103.671C57.8333 106.313 58.5138 107.241 59.5184 108.475C60.4124 109.574 65.7083 110.054 66.8432 107.892C67.9741 105.737 66.5094 104.809 64.7294 103.682L64.7111 103.671C62.9228 102.538 63.2323 100.444 63.7826 99.0373C64.3328 97.6302 65.055 96.9781 64.1265 94.5757C63.3837 92.6537 60.9283 92.6537 59.5184 93.649C57.8677 94.9189 55.6668 96.731 52.7782 94.9189Z" fill="#9897DE"/>
</svg>
