<svg width="335" height="304" viewBox="0 0 335 304" fill="none" xmlns="http://www.w3.org/2000/svg">
<path d="M52.0501 11.3634V1.81525L0 1.81525L0 84.127H52.0501V74.4691H11.0675V45.4953H34.8461V50.3243H46.1328V40.9956H37.5856V36.1667H11.0675L11.0675 11.3634L52.0501 11.3634Z" fill="#FFCC11"/>
<path d="M196.495 70.2474C196.569 66.9477 196.978 63.684 197.722 60.456C198.466 57.1564 199.21 53.8568 199.954 50.5571C200.772 47.2575 201.181 43.9578 201.181 40.6582C201.256 37.4303 200.809 34.2382 199.842 31.0821C198.875 27.9259 197.908 24.8056 196.941 21.7211C195.974 18.5649 195.491 15.4805 195.491 12.4678C195.491 9.38333 196.123 7.08793 197.388 5.58157C198.727 4.07521 201.107 3.07097 204.529 2.56886C207.95 2.06673 212.823 1.81567 219.146 1.81567C225.022 1.81567 230.378 2.42539 235.213 3.64482C240.048 4.79253 243.879 6.72927 246.706 9.45506C249.607 12.1091 251.057 15.6598 251.057 20.1072C251.057 22.4743 250.388 24.411 249.049 25.9174C247.71 27.352 245.925 28.0693 243.693 28.0693C241.982 28.0693 240.643 27.5672 239.676 26.563C238.784 25.487 238.077 24.1241 237.556 22.4743C237.035 20.7528 236.44 18.9953 235.771 17.202C235.176 15.337 234.32 13.5796 233.205 11.9298C232.089 10.2082 230.489 8.84535 228.407 7.84111C226.398 6.76514 223.683 6.22715 220.261 6.22715C216.542 6.22715 213.567 7.44659 211.335 9.88546C209.103 12.2526 207.988 15.2294 207.988 18.816C207.988 22.4743 208.508 25.3794 209.55 27.5314C210.666 29.6116 212.079 31.1897 213.79 32.2656C215.575 33.2699 217.509 33.9872 219.592 34.4176C221.749 34.7762 223.869 35.0632 225.952 35.2784C228.109 35.4218 230.043 35.7087 231.754 36.1391C233.539 36.4978 234.953 37.1792 235.994 38.1835C237.11 39.116 237.668 40.6223 237.668 42.7025C237.668 44.9262 236.961 46.6119 235.548 47.7596C234.209 48.9073 232.721 49.4812 231.085 49.4812C229.002 49.4812 226.882 48.9073 224.725 47.7596C222.642 46.6119 220.633 45.1773 218.699 43.4557C216.84 41.7342 215.129 39.9768 213.567 38.1835C212.079 36.3185 210.851 34.6686 209.884 33.234C208.992 31.7276 208.508 30.7234 208.434 30.2213H207.988V52.1711C207.988 56.188 208.062 59.8822 208.211 63.2536C208.36 66.6249 208.917 69.5659 209.884 72.0765C210.851 74.5154 212.488 76.4163 214.794 77.7792C217.174 79.0703 220.559 79.7159 224.948 79.7159C227.7 79.7159 229.82 79.1779 231.308 78.102C232.87 76.9543 234.097 75.5914 234.99 74.0133C235.882 72.3634 236.738 70.7136 237.556 69.0638C238.449 67.414 239.527 66.0511 240.792 64.9751C242.131 63.8274 244.028 63.2536 246.482 63.2536C249.086 63.2536 251.206 64.0067 252.842 65.5131C254.553 66.9477 255.409 68.7051 255.409 70.7854C255.409 73.7981 254.144 76.3087 251.615 78.3171C249.086 80.2539 245.59 81.6885 241.127 82.621C236.663 83.6253 231.531 84.1274 225.729 84.1274C219.778 84.1274 214.906 83.9839 211.112 83.697C207.318 83.4101 204.343 82.8004 202.185 81.8679C200.103 80.9353 198.615 79.5366 197.722 77.6716C196.904 75.8065 196.495 73.3318 196.495 70.2474Z" fill="#4AB15E"/>
<path d="M172.601 23.1722C172.169 19.4509 170.4 16.5403 167.295 14.4405C164.189 12.314 160.233 11.2508 155.426 11.2508C150.403 11.2508 146.366 12.3805 143.314 14.6398C140.289 16.8992 138.777 19.7964 138.777 23.3317C138.777 24.8202 139.101 26.2023 139.749 27.4782C140.397 28.7275 141.194 29.7774 142.139 30.628C143.111 31.452 144.313 32.2228 145.744 32.9405C147.203 33.6582 148.539 34.2164 149.755 34.6151C150.97 35.0138 152.334 35.3992 153.846 35.7714L161.947 37.8446C177.854 41.6988 185.807 49.354 185.807 60.8102C185.807 67.8806 183.065 73.6353 177.583 78.0743C172.128 82.5132 164.635 84.7327 155.102 84.7327C145.839 84.7327 138.453 82.6063 132.944 78.3534C127.435 74.0739 124.478 68.2262 124.073 60.8102H136.63C136.981 65.0631 138.858 68.3192 142.261 70.5786C145.69 72.8113 149.944 73.9277 155.021 73.9277C160.395 73.9277 164.797 72.7183 168.226 70.2995C171.683 67.854 173.411 64.6511 173.411 60.6906C173.411 59.2818 173.141 57.9927 172.601 56.8231C172.061 55.6536 171.345 54.6568 170.454 53.8328C169.59 53.0088 168.442 52.2513 167.011 51.5602C165.607 50.8425 164.189 50.2444 162.758 49.766C161.326 49.261 159.639 48.7559 157.694 48.2509L147.891 45.6194C133.498 41.7918 126.301 34.6018 126.301 24.0493C126.301 19.4509 127.583 15.3575 130.149 11.7691C132.741 8.18074 136.266 5.42966 140.721 3.51586C145.177 1.57548 150.173 0.605286 155.709 0.605286C164.081 0.605286 170.954 2.71844 176.328 6.94475C181.702 11.1711 184.483 16.5802 184.672 23.1722H172.601Z" fill="#FF6242"/>
<path d="M334.088 1.81567V84.1274H322.65L280.723 23.7601H279.958V84.1274H267.513V1.81567L279.032 1.81567L320.999 62.2633H321.764V1.81567L334.088 1.81567Z" fill="#272727"/>
<path d="M67.6245 45.2288C60.443 40.8545 63.3213 33.9616 65.6581 31.062C65.3853 31.4486 65.6018 31.2277 68.6503 27.251C71.6988 23.2744 69.2366 17.5304 67.6245 15.1554C66.4275 12.173 65.1793 5.46238 69.7618 2.47993C75.4899 -1.24814 81.047 -0.833938 86.0056 4.13686C89.9725 8.1135 95.182 7.17455 97.2908 6.208C100.483 3.58452 107.738 -0.088346 111.226 6.208C115.587 14.0784 112.509 22.1145 111.226 25.0142C109.944 27.9138 106.268 28.4937 100.112 28.1623C95.1877 27.8972 93.8067 21.1045 93.0161 17.7237C91.7002 14.8064 87.2709 10.1018 81.047 13.4157C73.267 17.558 75.2334 27.9138 76.2593 31.062C77.2852 34.2102 85.6636 41.7311 93.0161 35.1215C98.8981 29.8338 103.104 30.8963 105.498 31.8904C107.978 32.5532 112.902 33.9948 114.475 40.4237C116.441 48.4598 113.387 47.296 112.509 52.9335C111.825 57.3244 116.185 61.2182 116.698 65.2777C117.211 69.3372 116.127 74.1825 110.029 79.8587C102.53 86.8395 88.5704 85.1609 84.3812 85.1609C80.2456 85.1609 72.4121 82.7583 68.6503 79.8587C65.6581 77.5522 63.2642 73.5623 61.2124 66.3547C58.588 57.1357 64.2045 54.0105 65.6581 52.9335C67.1367 51.838 74.8914 50.1996 78.3967 52.9335C81.9019 55.6675 81.9019 59.9755 81.047 66.3547C80.192 72.7339 81.8838 74.9745 84.3812 77.9532C86.6039 80.6043 99.7702 81.7641 102.591 76.5448C105.403 71.3433 101.762 69.1039 97.3364 66.3827L97.2908 66.3547C92.8451 63.6207 93.6146 58.5671 94.9825 55.1704C96.3504 51.7737 98.1458 50.1996 95.8374 44.4003C93.9908 39.7609 87.8865 39.7609 84.3812 42.1635C80.2775 45.2288 74.8059 49.6031 67.6245 45.2288Z" fill="#9897DE"/>
<path d="M82.4653 127.98V120.957H44.1821V181.498H82.4653V174.395H52.3223V153.084H69.8117V156.636H78.1131V149.775H71.8266V146.223H52.3223V127.98H82.4653Z" fill="#FFCC11"/>
<path d="M188.705 171.29C188.76 168.863 189.061 166.462 189.608 164.088C190.155 161.661 190.702 159.234 191.249 156.808C191.851 154.381 192.152 151.954 192.152 149.527C192.206 147.153 191.878 144.805 191.167 142.483C190.456 140.162 189.744 137.867 189.033 135.598C188.322 133.277 187.966 131.008 187.966 128.793C187.966 126.524 188.431 124.836 189.361 123.728C190.346 122.62 192.097 121.881 194.614 121.512C197.13 121.142 200.714 120.958 205.365 120.958C209.687 120.958 213.626 121.406 217.182 122.303C220.739 123.147 223.556 124.572 225.635 126.577C227.769 128.529 228.836 131.14 228.836 134.411C228.836 136.152 228.343 137.577 227.359 138.685C226.374 139.74 225.061 140.268 223.419 140.268C222.161 140.268 221.176 139.898 220.465 139.16C219.808 138.368 219.289 137.366 218.906 136.152C218.523 134.886 218.085 133.594 217.593 132.275C217.155 130.903 216.526 129.61 215.705 128.397C214.884 127.131 213.708 126.128 212.176 125.39C210.699 124.598 208.702 124.202 206.185 124.202C203.45 124.202 201.261 125.099 199.62 126.893C197.979 128.634 197.158 130.824 197.158 133.462C197.158 136.152 197.541 138.289 198.307 139.872C199.127 141.402 200.167 142.563 201.425 143.354C202.738 144.093 204.161 144.62 205.693 144.937C207.279 145.201 208.839 145.412 210.371 145.57C211.957 145.675 213.38 145.886 214.638 146.203C215.951 146.467 216.991 146.968 217.757 147.707C218.577 148.392 218.988 149.5 218.988 151.03C218.988 152.666 218.468 153.906 217.429 154.75C216.444 155.594 215.349 156.016 214.146 156.016C212.614 156.016 211.055 155.594 209.468 154.75C207.936 153.906 206.459 152.851 205.036 151.584C203.669 150.318 202.41 149.026 201.261 147.707C200.167 146.335 199.264 145.121 198.553 144.066C197.896 142.958 197.541 142.22 197.486 141.85H197.158V157.995C197.158 160.949 197.213 163.666 197.322 166.146C197.431 168.626 197.842 170.789 198.553 172.635C199.264 174.429 200.468 175.827 202.164 176.83C203.915 177.779 206.404 178.254 209.632 178.254C211.656 178.254 213.216 177.858 214.31 177.067C215.459 176.223 216.362 175.22 217.018 174.06C217.675 172.846 218.304 171.633 218.906 170.419C219.562 169.206 220.356 168.203 221.286 167.412C222.27 166.568 223.666 166.146 225.471 166.146C227.386 166.146 228.945 166.7 230.149 167.808C231.407 168.863 232.036 170.156 232.036 171.686C232.036 173.901 231.106 175.748 229.246 177.225C227.386 178.65 224.815 179.705 221.532 180.391C218.249 181.129 214.474 181.499 210.207 181.499C205.83 181.499 202.246 181.393 199.456 181.182C196.665 180.971 194.477 180.523 192.89 179.837C191.358 179.151 190.264 178.122 189.608 176.75C189.006 175.379 188.705 173.558 188.705 171.29Z" fill="#4AB15E"/>
<path d="M171.131 136.666C170.813 133.929 169.512 131.788 167.228 130.243C164.944 128.679 162.034 127.897 158.498 127.897C154.804 127.897 151.834 128.728 149.59 130.39C147.365 132.052 146.253 134.183 146.253 136.783C146.253 137.878 146.491 138.894 146.968 139.833C147.445 140.752 148.031 141.524 148.726 142.149C149.441 142.755 150.325 143.322 151.378 143.85C152.45 144.378 153.433 144.789 154.327 145.082C155.221 145.375 156.224 145.659 157.336 145.932L163.295 147.457C174.994 150.292 180.844 155.923 180.844 164.349C180.844 169.549 178.828 173.782 174.795 177.046C170.783 180.311 165.271 181.944 158.26 181.944C151.447 181.944 146.015 180.38 141.963 177.252C137.911 174.104 135.736 169.803 135.438 164.349H144.674C144.932 167.477 146.313 169.872 148.815 171.533C151.338 173.176 154.466 173.997 158.2 173.997C162.153 173.997 165.391 173.107 167.913 171.328C170.456 169.529 171.727 167.174 171.727 164.261C171.727 163.225 171.528 162.276 171.131 161.416C170.734 160.556 170.207 159.823 169.552 159.217C168.916 158.611 168.072 158.053 167.019 157.545C165.986 157.017 164.944 156.577 163.891 156.226C162.838 155.854 161.597 155.483 160.167 155.111L152.957 153.176C142.37 150.361 137.077 145.072 137.077 137.311C137.077 133.929 138.02 130.918 139.907 128.279C141.814 125.639 144.406 123.616 147.683 122.208C150.961 120.781 154.635 120.068 158.707 120.068C164.864 120.068 169.919 121.622 173.872 124.73C177.825 127.839 179.87 131.817 180.009 136.666H171.131Z" fill="#FF6242"/>
<path d="M289.907 120.958V181.499H281.494L250.656 137.098H250.093V181.499H240.94V120.958H249.412L280.279 165.418H280.842V120.958H289.907Z" fill="#272727"/>
<path d="M93.9201 152.888C88.6381 149.671 90.7551 144.601 92.4738 142.469C92.2732 142.753 92.4325 142.591 94.6747 139.666C96.9168 136.741 95.1059 132.516 93.9201 130.769C93.0398 128.576 92.1217 123.64 95.4921 121.446C99.7052 118.704 103.792 119.009 107.44 122.665C110.357 125.59 114.189 124.899 115.74 124.188C118.088 122.259 123.424 119.557 125.99 124.188C129.197 129.977 126.933 135.888 125.99 138.02C125.046 140.153 122.342 140.58 117.815 140.336C114.193 140.141 113.177 135.145 112.596 132.658C111.628 130.513 108.37 127.052 103.792 129.49C98.0703 132.536 99.5165 140.153 100.271 142.469C101.026 144.784 107.188 150.316 112.596 145.454C116.922 141.565 120.016 142.347 121.777 143.078C123.6 143.565 127.222 144.626 128.379 149.354C129.825 155.265 127.579 154.409 126.933 158.555C126.43 161.785 129.637 164.649 130.014 167.635C130.391 170.62 129.594 174.184 125.109 178.359C119.594 183.493 109.326 182.259 106.245 182.259C103.203 182.259 97.4414 180.492 94.6747 178.359C92.4738 176.662 90.7131 173.728 89.204 168.427C87.2737 161.646 91.4047 159.347 92.4738 158.555C93.5614 157.75 99.265 156.544 101.843 158.555C104.421 160.566 104.421 163.735 103.792 168.427C103.164 173.119 104.408 174.767 106.245 176.957C107.88 178.907 117.564 179.76 119.639 175.922C121.707 172.096 119.028 170.449 115.773 168.447L115.74 168.427C112.47 166.416 113.036 162.699 114.042 160.201C115.048 157.702 116.369 156.544 114.671 152.279C113.313 148.867 108.823 148.867 106.245 150.634C103.227 152.888 99.2022 156.106 93.9201 152.888Z" fill="#9897DE"/>
<path d="M116.213 225.746V221.525H93.2056V257.909H116.213V253.64H98.0977V240.833H108.609V242.967H113.598V238.844H109.819V236.709H98.0977V225.746H116.213Z" fill="#FFCC11"/>
<path d="M180.062 251.774C180.094 250.316 180.275 248.873 180.604 247.446C180.933 245.987 181.262 244.529 181.591 243.07C181.952 241.612 182.133 240.153 182.133 238.695C182.166 237.268 181.969 235.857 181.541 234.462C181.114 233.067 180.686 231.687 180.259 230.324C179.831 228.929 179.618 227.566 179.618 226.234C179.618 224.87 179.897 223.856 180.456 223.19C181.048 222.524 182.1 222.08 183.613 221.858C185.125 221.636 187.279 221.525 190.074 221.525C192.671 221.525 195.039 221.795 197.176 222.334C199.313 222.841 201.007 223.697 202.256 224.902C203.539 226.075 204.18 227.645 204.18 229.611C204.18 230.657 203.884 231.513 203.292 232.179C202.7 232.813 201.911 233.13 200.924 233.13C200.168 233.13 199.576 232.908 199.149 232.464C198.754 231.989 198.442 231.386 198.212 230.657C197.982 229.896 197.719 229.119 197.423 228.326C197.16 227.502 196.781 226.725 196.288 225.996C195.795 225.235 195.088 224.633 194.167 224.189C193.28 223.713 192.08 223.475 190.567 223.475C188.923 223.475 187.608 224.014 186.621 225.092C185.635 226.139 185.142 227.455 185.142 229.04C185.142 230.657 185.372 231.941 185.832 232.892C186.325 233.812 186.95 234.509 187.706 234.985C188.496 235.429 189.35 235.746 190.271 235.936C191.225 236.095 192.162 236.222 193.082 236.317C194.036 236.38 194.891 236.507 195.647 236.697C196.436 236.856 197.061 237.157 197.521 237.601C198.015 238.013 198.261 238.679 198.261 239.598C198.261 240.581 197.949 241.326 197.324 241.834C196.732 242.341 196.075 242.595 195.351 242.595C194.431 242.595 193.493 242.341 192.54 241.834C191.619 241.326 190.731 240.692 189.877 239.931C189.054 239.17 188.298 238.394 187.608 237.601C186.95 236.776 186.408 236.047 185.98 235.413C185.586 234.747 185.372 234.303 185.339 234.081H185.142V243.784C185.142 245.559 185.175 247.192 185.24 248.683C185.306 250.173 185.553 251.473 185.98 252.583C186.408 253.661 187.131 254.501 188.15 255.103C189.202 255.674 190.699 255.959 192.638 255.959C193.855 255.959 194.792 255.722 195.45 255.246C196.14 254.739 196.683 254.136 197.077 253.439C197.472 252.709 197.85 251.98 198.212 251.251C198.606 250.522 199.083 249.919 199.642 249.444C200.234 248.936 201.072 248.683 202.158 248.683C203.308 248.683 204.245 249.016 204.969 249.681C205.725 250.316 206.103 251.092 206.103 252.012C206.103 253.344 205.544 254.453 204.426 255.341C203.308 256.197 201.763 256.831 199.79 257.244C197.817 257.687 195.548 257.909 192.984 257.909C190.353 257.909 188.2 257.846 186.523 257.719C184.846 257.592 183.53 257.323 182.577 256.911C181.656 256.498 180.999 255.88 180.604 255.056C180.242 254.231 180.062 253.137 180.062 251.774Z" fill="#4AB15E"/>
<path d="M169.5 230.965C169.309 229.32 168.527 228.034 167.155 227.106C165.782 226.166 164.033 225.696 161.908 225.696C159.688 225.696 157.903 226.195 156.554 227.194C155.218 228.193 154.549 229.473 154.549 231.036C154.549 231.694 154.692 232.305 154.979 232.869C155.265 233.421 155.617 233.885 156.035 234.261C156.465 234.625 156.996 234.966 157.629 235.283C158.273 235.601 158.864 235.847 159.401 236.023C159.939 236.2 160.541 236.37 161.21 236.535L164.791 237.451C171.822 239.155 175.337 242.539 175.337 247.602C175.337 250.728 174.126 253.272 171.703 255.234C169.291 257.196 165.979 258.177 161.765 258.177C157.671 258.177 154.406 257.237 151.971 255.357C149.535 253.465 148.228 250.881 148.049 247.602H153.6C153.755 249.482 154.585 250.922 156.089 251.92C157.605 252.907 159.485 253.401 161.729 253.401C164.105 253.401 166.05 252.866 167.566 251.797C169.094 250.716 169.858 249.3 169.858 247.55C169.858 246.927 169.739 246.357 169.5 245.84C169.261 245.323 168.945 244.883 168.551 244.518C168.169 244.154 167.662 243.819 167.029 243.514C166.409 243.196 165.782 242.932 165.149 242.721C164.516 242.497 163.77 242.274 162.911 242.051L158.578 240.888C152.215 239.196 149.034 236.018 149.034 231.353C149.034 229.32 149.601 227.511 150.735 225.925C151.881 224.339 153.439 223.123 155.409 222.277C157.378 221.419 159.586 220.99 162.034 220.99C165.734 220.99 168.772 221.924 171.148 223.792C173.523 225.661 174.753 228.052 174.836 230.965H169.5Z" fill="#FF6242"/>
<path d="M240.882 221.525V257.909H235.826L217.293 231.225H216.955V257.909H211.454V221.525H216.546L235.096 248.245H235.435V221.525H240.882Z" fill="#272727"/>
<path d="M123.098 240.715C119.923 238.782 121.196 235.735 122.229 234.453C122.108 234.624 122.204 234.526 123.551 232.768C124.899 231.011 123.81 228.472 123.098 227.422C122.569 226.103 122.017 223.137 124.043 221.819C126.575 220.171 129.031 220.354 131.223 222.551C132.976 224.309 135.279 223.894 136.211 223.467C137.622 222.307 140.829 220.684 142.371 223.467C144.298 226.946 142.938 230.498 142.371 231.78C141.804 233.061 140.179 233.318 137.458 233.171C135.282 233.054 134.671 230.051 134.322 228.557C133.74 227.267 131.782 225.188 129.031 226.653C125.592 228.484 126.461 233.061 126.915 234.453C127.368 235.845 131.072 239.169 134.322 236.247C136.922 233.91 138.781 234.38 139.839 234.819C140.935 235.112 143.112 235.749 143.807 238.591C144.676 242.143 143.326 241.629 142.938 244.121C142.636 246.062 144.563 247.783 144.79 249.577C145.016 251.372 144.537 253.513 141.842 256.023C138.527 259.108 132.357 258.366 130.505 258.366C128.677 258.366 125.214 257.304 123.551 256.023C122.229 255.003 121.17 253.239 120.264 250.053C119.103 245.978 121.586 244.597 122.229 244.121C122.882 243.637 126.31 242.912 127.859 244.121C129.409 245.329 129.409 247.234 129.031 250.053C128.653 252.873 129.401 253.864 130.505 255.18C131.487 256.352 137.307 256.865 138.554 254.558C139.797 252.258 138.187 251.269 136.231 250.066L136.211 250.053C134.246 248.845 134.586 246.611 135.191 245.11C135.796 243.608 136.589 242.912 135.569 240.349C134.753 238.298 132.054 238.298 130.505 239.36C128.691 240.715 126.272 242.649 123.098 240.715Z" fill="#9897DE"/>
<path d="M147.462 290.727V289.101H138.598V303.118H147.462V301.473H140.483V296.539H144.532V297.361H146.454V295.773H144.999V294.95H140.483V290.727H147.462Z" fill="#FFCC11"/>
<path d="M172.059 300.754C172.072 300.192 172.142 299.636 172.268 299.087C172.395 298.525 172.522 297.963 172.648 297.401C172.788 296.839 172.857 296.277 172.857 295.715C172.87 295.166 172.794 294.622 172.629 294.085C172.465 293.547 172.3 293.016 172.135 292.491C171.971 291.953 171.888 291.428 171.888 290.915C171.888 290.39 171.996 289.999 172.211 289.742C172.439 289.486 172.845 289.315 173.427 289.229C174.01 289.144 174.84 289.101 175.916 289.101C176.917 289.101 177.829 289.205 178.652 289.412C179.476 289.608 180.128 289.938 180.61 290.402C181.104 290.854 181.351 291.458 181.351 292.216C181.351 292.619 181.237 292.949 181.009 293.205C180.781 293.449 180.477 293.572 180.097 293.572C179.805 293.572 179.577 293.486 179.413 293.315C179.261 293.132 179.14 292.9 179.051 292.619C178.963 292.326 178.861 292.026 178.747 291.721C178.646 291.403 178.5 291.104 178.31 290.823C178.12 290.53 177.848 290.298 177.493 290.127C177.151 289.944 176.689 289.852 176.106 289.852C175.473 289.852 174.966 290.06 174.586 290.475C174.206 290.878 174.016 291.385 174.016 291.996C174.016 292.619 174.105 293.113 174.282 293.48C174.472 293.834 174.713 294.103 175.004 294.286C175.308 294.457 175.638 294.579 175.992 294.653C176.36 294.714 176.721 294.763 177.075 294.799C177.443 294.824 177.772 294.872 178.063 294.946C178.367 295.007 178.608 295.123 178.785 295.294C178.975 295.453 179.07 295.709 179.07 296.063C179.07 296.442 178.95 296.729 178.709 296.925C178.481 297.12 178.228 297.218 177.949 297.218C177.595 297.218 177.234 297.12 176.866 296.925C176.512 296.729 176.17 296.485 175.84 296.192C175.524 295.899 175.232 295.599 174.966 295.294C174.713 294.976 174.504 294.695 174.339 294.451C174.187 294.195 174.105 294.024 174.092 293.938H174.016V297.676C174.016 298.36 174.029 298.989 174.054 299.563C174.08 300.137 174.175 300.638 174.339 301.066C174.504 301.481 174.783 301.805 175.175 302.037C175.581 302.257 176.157 302.366 176.904 302.366C177.373 302.366 177.734 302.275 177.987 302.092C178.253 301.896 178.462 301.664 178.614 301.395C178.766 301.114 178.912 300.833 179.051 300.552C179.203 300.272 179.387 300.039 179.603 299.856C179.831 299.661 180.154 299.563 180.572 299.563C181.015 299.563 181.376 299.691 181.655 299.948C181.946 300.192 182.092 300.491 182.092 300.846C182.092 301.359 181.876 301.786 181.446 302.128C181.015 302.458 180.42 302.702 179.66 302.861C178.899 303.032 178.025 303.118 177.037 303.118C176.024 303.118 175.194 303.093 174.548 303.044C173.902 302.996 173.396 302.892 173.028 302.733C172.674 302.574 172.42 302.336 172.268 302.018C172.129 301.701 172.059 301.279 172.059 300.754Z" fill="#4AB15E"/>
<path d="M167.99 292.738C167.917 292.104 167.616 291.608 167.087 291.251C166.558 290.889 165.884 290.708 165.066 290.708C164.21 290.708 163.523 290.9 163.003 291.285C162.488 291.669 162.231 292.163 162.231 292.765C162.231 293.018 162.286 293.254 162.396 293.471C162.506 293.684 162.642 293.862 162.803 294.007C162.969 294.148 163.173 294.279 163.417 294.401C163.665 294.523 163.893 294.618 164.1 294.686C164.307 294.754 164.539 294.82 164.797 294.883L166.176 295.236C168.885 295.893 170.239 297.196 170.239 299.147C170.239 300.351 169.772 301.331 168.839 302.087C167.91 302.843 166.634 303.221 165.01 303.221C163.433 303.221 162.175 302.859 161.237 302.134C160.299 301.406 159.796 300.41 159.727 299.147H161.865C161.925 299.871 162.244 300.426 162.824 300.811C163.408 301.191 164.132 301.381 164.997 301.381C165.912 301.381 166.661 301.175 167.245 300.763C167.834 300.347 168.128 299.801 168.128 299.127C168.128 298.887 168.082 298.667 167.99 298.468C167.898 298.269 167.777 298.099 167.625 297.959C167.478 297.819 167.282 297.69 167.038 297.572C166.799 297.45 166.558 297.348 166.314 297.266C166.07 297.18 165.783 297.094 165.452 297.008L163.783 296.56C161.332 295.908 160.106 294.684 160.106 292.887C160.106 292.104 160.324 291.407 160.761 290.796C161.203 290.185 161.803 289.716 162.562 289.39C163.32 289.06 164.171 288.895 165.114 288.895C166.54 288.895 167.71 289.255 168.625 289.974C169.54 290.694 170.014 291.615 170.046 292.738H167.99Z" fill="#FF6242"/>
<path d="M195.49 289.101V303.118H193.542L186.402 292.838H186.272V303.118H184.153V289.101H186.114L193.261 299.394H193.391V289.101H195.49Z" fill="#272727"/>
<path d="M150.114 296.494C148.891 295.749 149.381 294.575 149.779 294.081C149.732 294.147 149.769 294.109 150.288 293.432C150.807 292.755 150.388 291.777 150.114 291.373C149.91 290.865 149.697 289.722 150.477 289.214C151.453 288.579 152.399 288.65 153.244 289.496C153.919 290.173 154.806 290.013 155.165 289.849C155.709 289.402 156.944 288.777 157.538 289.849C158.281 291.189 157.757 292.558 157.538 293.051C157.32 293.545 156.694 293.644 155.646 293.587C154.807 293.542 154.572 292.386 154.437 291.81C154.213 291.313 153.459 290.512 152.399 291.076C151.074 291.782 151.409 293.545 151.584 294.081C151.759 294.617 153.185 295.898 154.437 294.773C155.439 293.872 156.155 294.053 156.563 294.222C156.985 294.335 157.824 294.581 158.092 295.675C158.427 297.044 157.906 296.846 157.757 297.806C157.64 298.553 158.383 299.217 158.47 299.908C158.558 300.599 158.373 301.424 157.335 302.391C156.058 303.58 153.68 303.294 152.967 303.294C152.263 303.294 150.929 302.885 150.288 302.391C149.779 301.998 149.371 301.319 149.022 300.091C148.575 298.521 149.531 297.989 149.779 297.806C150.03 297.619 151.351 297.34 151.948 297.806C152.545 298.271 152.545 299.005 152.399 300.091C152.254 301.178 152.542 301.559 152.967 302.066C153.346 302.518 155.588 302.715 156.068 301.826C156.547 300.941 155.927 300.559 155.173 300.096L155.165 300.091C154.408 299.626 154.539 298.765 154.772 298.187C155.005 297.608 155.311 297.34 154.918 296.353C154.603 295.563 153.564 295.563 152.967 295.972C152.268 296.494 151.336 297.239 150.114 296.494Z" fill="#9897DE"/>
</svg>
