<svg width="188" height="188" viewBox="0 0 188 188" fill="none" xmlns="http://www.w3.org/2000/svg">
<rect width="187.5" height="187.5" fill="#9897DE"/>
<path d="M45.4358 80.213V76.1819H23.4722V110.933H45.4358V106.855H28.1423V94.6229H38.1762V96.6616H42.9389V92.7232H39.3322V90.6845H28.1423V80.213H45.4358Z" fill="#272727"/>
<path d="M106.26 105.535C106.291 104.091 106.464 102.662 106.778 101.249C107.091 99.8047 107.405 98.3604 107.719 96.9161C108.064 95.4718 108.237 94.0275 108.237 92.5831C108.268 91.1702 108.08 89.773 107.672 88.3915C107.264 87.01 106.856 85.6442 106.448 84.294C106.04 82.9125 105.836 81.5624 105.836 80.2437C105.836 78.8936 106.103 77.8888 106.637 77.2295C107.201 76.5701 108.205 76.1305 109.649 75.9107C111.092 75.6909 113.147 75.5811 115.814 75.5811C118.293 75.5811 120.552 75.8479 122.591 76.3817C124.631 76.8841 126.246 77.7318 127.439 78.925C128.662 80.0867 129.274 81.6409 129.274 83.5876C129.274 84.6237 128.992 85.4715 128.427 86.1308C127.862 86.7588 127.109 87.0728 126.168 87.0728C125.446 87.0728 124.882 86.853 124.474 86.4134C124.097 85.9424 123.799 85.3459 123.579 84.6237C123.36 83.8702 123.109 83.1009 122.826 82.3159C122.575 81.4996 122.215 80.7303 121.744 80.0082C121.273 79.2546 120.599 78.6581 119.72 78.2185C118.873 77.7475 117.728 77.512 116.285 77.512C114.716 77.512 113.461 78.0458 112.519 79.1133C111.578 80.1495 111.108 81.4525 111.108 83.0224C111.108 84.6237 111.327 85.8953 111.766 86.8373C112.237 87.7478 112.833 88.4386 113.555 88.9096C114.308 89.3491 115.124 89.6631 116.002 89.8515C116.912 90.0085 117.806 90.1341 118.685 90.2283C119.595 90.2911 120.41 90.4167 121.132 90.6051C121.885 90.762 122.481 91.0603 122.921 91.4999C123.391 91.9081 123.626 92.5674 123.626 93.478C123.626 94.4513 123.328 95.1892 122.732 95.6915C122.168 96.1939 121.54 96.4451 120.85 96.4451C119.971 96.4451 119.077 96.1939 118.167 95.6915C117.289 95.1892 116.441 94.5612 115.626 93.8077C114.841 93.0541 114.12 92.2849 113.461 91.4999C112.833 90.6836 112.316 89.9614 111.908 89.3334C111.531 88.6741 111.327 88.2345 111.296 88.0147H111.108V97.6225C111.108 99.3808 111.139 100.998 111.202 102.474C111.264 103.949 111.5 105.237 111.908 106.336C112.316 107.403 113.006 108.235 113.978 108.832C114.982 109.397 116.41 109.679 118.261 109.679C119.422 109.679 120.316 109.444 120.944 108.973C121.603 108.471 122.12 107.874 122.497 107.183C122.873 106.461 123.234 105.739 123.579 105.017C123.956 104.295 124.411 103.698 124.944 103.227C125.509 102.725 126.309 102.474 127.345 102.474C128.443 102.474 129.337 102.803 130.027 103.463C130.749 104.091 131.11 104.86 131.11 105.77C131.11 107.089 130.576 108.188 129.509 109.067C128.443 109.915 126.968 110.543 125.085 110.951C123.203 111.391 121.038 111.61 118.591 111.61C116.081 111.61 114.026 111.548 112.425 111.422C110.825 111.296 109.57 111.03 108.66 110.621C107.782 110.213 107.154 109.601 106.778 108.785C106.433 107.968 106.26 106.885 106.26 105.535Z" fill="#272727"/>
<path d="M96.0956 85.6449C95.9172 84.0844 95.1866 82.8639 93.9038 81.9834C92.6211 81.0917 90.9869 80.6459 89.0015 80.6459C86.9268 80.6459 85.2592 81.1196 83.9987 82.067C82.7495 83.0144 82.1248 84.2293 82.1248 85.7117C82.1248 86.3359 82.2587 86.9155 82.5264 87.4505C82.7941 87.9744 83.1231 88.4146 83.5135 88.7713C83.9151 89.1168 84.4115 89.4401 85.0026 89.741C85.605 90.042 86.1571 90.276 86.6591 90.4432C87.161 90.6104 87.7243 90.772 88.3489 90.9281L91.6953 91.7975C98.2652 93.4136 101.55 96.6237 101.55 101.428C101.55 104.392 100.418 106.806 98.1536 108.667C95.9004 110.528 92.8051 111.459 88.8676 111.459C85.0417 111.459 81.991 110.567 79.7155 108.784C77.44 106.989 76.2186 104.537 76.0513 101.428H81.238C81.383 103.211 82.1583 104.576 83.5637 105.524C84.9803 106.46 86.7371 106.928 88.8342 106.928C91.0539 106.928 92.872 106.421 94.2886 105.407C95.7164 104.381 96.4303 103.038 96.4303 101.377C96.4303 100.787 96.3187 100.246 96.0956 99.7557C95.8725 99.2653 95.577 98.8473 95.2089 98.5018C94.8519 98.1563 94.3779 97.8386 93.7867 97.5488C93.2067 97.2479 92.6211 96.9971 92.0299 96.7965C91.4387 96.5847 90.7416 96.3729 89.9384 96.1611L85.8894 95.0577C79.9441 93.4526 76.9715 90.4376 76.9715 86.0127C76.9715 84.0844 77.5013 82.3679 78.561 80.8632C79.6318 79.3585 81.0875 78.2049 82.9279 77.4024C84.7684 76.5887 86.8319 76.1819 89.1186 76.1819C92.5764 76.1819 95.4152 77.068 97.6349 78.8402C99.8547 80.6124 101.004 82.8806 101.082 85.6449H96.0956Z" fill="#272727"/>
<path d="M164.055 76.6335V110.858H159.312L141.928 85.7577H141.61V110.858H136.45V76.6335H141.226L158.628 101.767H158.945V76.6335H164.055Z" fill="#272727"/>
<path d="M52.2787 94.9185C49.39 93.1064 50.5477 90.251 51.4877 89.0497C51.378 89.2099 51.4651 89.1184 52.6913 87.471C53.9175 85.8236 52.9271 83.4441 52.2787 82.4602C51.7972 81.2247 51.2951 78.4448 53.1384 77.2092C55.4424 75.6648 57.6777 75.8364 59.6722 77.8956C61.2679 79.543 63.3633 79.154 64.2116 78.7536C65.4954 77.6668 68.4139 76.1453 69.8169 78.7536C71.5708 82.0141 70.3328 85.3431 69.8169 86.5443C69.3011 87.7456 67.8224 87.9858 65.3464 87.8485C63.3656 87.7387 62.8101 84.9247 62.4921 83.5242C61.9628 82.3156 60.1812 80.3667 57.6777 81.7395C54.5483 83.4555 55.3392 87.7456 55.7519 89.0497C56.1646 90.3539 59.5347 93.4696 62.4921 90.7314C64.8581 88.5409 66.55 88.9811 67.5129 89.3929C68.5102 89.6675 70.4909 90.2647 71.1237 92.9279C71.9146 96.257 70.686 95.7749 70.3328 98.1103C70.0576 99.9293 71.8115 101.542 72.0178 103.224C72.2241 104.906 71.7882 106.913 69.3355 109.264C66.3191 112.156 60.7039 111.461 59.0188 111.461C57.3553 111.461 54.2044 110.466 52.6913 109.264C51.4877 108.309 50.5248 106.656 49.6995 103.67C48.6439 99.8511 50.903 98.5565 51.4877 98.1103C52.0825 97.6565 55.2017 96.9777 56.6116 98.1103C58.0216 99.2429 58.0216 101.028 57.6777 103.67C57.3338 106.313 58.0143 107.241 59.0188 108.475C59.9129 109.573 65.2088 110.054 66.3437 107.892C67.4746 105.737 66.0098 104.809 64.2299 103.682L64.2116 103.67C62.4233 102.538 62.7328 100.444 63.2831 99.037C63.8333 97.6298 64.5554 96.9777 63.6269 94.5753C62.8841 92.6534 60.4288 92.6534 59.0188 93.6487C57.3682 94.9185 55.1673 96.7306 52.2787 94.9185Z" fill="#272727"/>
</svg>
