<svg width="335" height="141" viewBox="0 0 335 141" fill="none" xmlns="http://www.w3.org/2000/svg">
<path d="M196.545 23.0602C196.005 23.0602 195.561 22.9249 195.212 22.6542C194.864 22.3836 194.681 22.0315 194.663 21.5978H195.48C195.496 21.8303 195.603 22.0167 195.8 22.1572C196 22.2978 196.246 22.368 196.539 22.368C196.855 22.368 197.114 22.2873 197.315 22.126C197.516 21.9647 197.617 21.7557 197.617 21.4989C197.617 21.2266 197.513 21.0071 197.304 20.8406C197.098 20.6723 196.814 20.5882 196.451 20.5882H196.001V19.9325H196.451C196.748 19.9325 196.989 19.8544 197.174 19.6983C197.362 19.5422 197.454 19.3357 197.453 19.079C197.454 18.8327 197.373 18.6341 197.208 18.4831C197.043 18.3322 196.826 18.2568 196.555 18.2568C196.284 18.2568 196.052 18.3287 195.858 18.4727C195.663 18.615 195.562 18.8049 195.553 19.0426H194.775C194.784 18.7598 194.869 18.5074 195.03 18.2854C195.192 18.0616 195.407 17.889 195.676 17.7676C195.944 17.6461 196.241 17.5854 196.565 17.5854C196.815 17.5854 197.045 17.6245 197.255 17.7025C197.467 17.7806 197.643 17.8855 197.783 18.0174C197.925 18.1492 198.036 18.3036 198.114 18.4805C198.192 18.6557 198.231 18.8414 198.231 19.0374C198.233 19.334 198.15 19.5864 197.984 19.7946C197.819 20.0027 197.596 20.1433 197.315 20.2161V20.2577C197.667 20.3115 197.941 20.4512 198.137 20.6767C198.333 20.9022 198.43 21.1849 198.429 21.5249C198.429 21.8164 198.348 22.0792 198.187 22.3134C198.025 22.5476 197.801 22.7306 197.513 22.8624C197.225 22.9942 196.902 23.0602 196.545 23.0602ZM201.267 23.0758C200.65 23.074 200.169 22.8329 199.826 22.3524C199.484 21.8719 199.313 21.1962 199.313 20.3254C199.315 19.4598 199.488 18.7867 199.831 18.3062C200.176 17.8257 200.655 17.5854 201.267 17.5854C201.88 17.5854 202.358 17.8265 202.701 18.3088C203.046 18.7893 203.219 19.4615 203.219 20.3254C203.219 21.1962 203.047 21.8728 202.704 22.355C202.362 22.8355 201.883 23.0758 201.267 23.0758ZM201.267 22.381C201.63 22.381 201.913 22.2032 202.116 21.8476C202.319 21.492 202.42 20.9846 202.42 20.3254C202.42 19.6679 202.318 19.1605 202.113 18.8032C201.91 18.4458 201.628 18.2672 201.267 18.2672C200.905 18.2672 200.622 18.4458 200.419 18.8032C200.216 19.1605 200.114 19.6679 200.112 20.3254C200.112 20.9863 200.214 21.4946 200.417 21.8502C200.619 22.2041 200.903 22.381 201.267 22.381ZM205.3 20.0678C204.963 20.0678 204.675 19.9481 204.436 19.7087C204.197 19.4693 204.077 19.1805 204.077 18.8422C204.077 18.504 204.197 18.216 204.436 17.9783C204.675 17.7389 204.963 17.6192 205.3 17.6192C205.638 17.6192 205.927 17.7389 206.166 17.9783C206.406 18.216 206.525 18.504 206.525 18.8422C206.525 19.1805 206.406 19.4693 206.166 19.7087C205.927 19.9481 205.638 20.0678 205.3 20.0678ZM205.3 19.4745C205.475 19.4745 205.624 19.4129 205.747 19.2898C205.871 19.1666 205.932 19.0174 205.932 18.8422C205.932 18.667 205.871 18.5187 205.747 18.3973C205.624 18.2741 205.475 18.2125 205.3 18.2125C205.126 18.2125 204.978 18.2741 204.855 18.3973C204.732 18.5187 204.67 18.667 204.67 18.8422C204.67 19.0174 204.732 19.1666 204.855 19.2898C204.978 19.4129 205.126 19.4745 205.3 19.4745Z" fill="#272727"/>
<path d="M130.264 23.0602C129.725 23.0602 129.281 22.9249 128.932 22.6542C128.583 22.3836 128.4 22.0315 128.383 21.5978H129.2C129.216 21.8303 129.322 22.0167 129.52 22.1572C129.72 22.2978 129.966 22.368 130.259 22.368C130.575 22.368 130.833 22.2873 131.035 22.126C131.236 21.9647 131.336 21.7557 131.336 21.4989C131.336 21.2266 131.232 21.0071 131.024 20.8406C130.818 20.6723 130.533 20.5882 130.171 20.5882H129.721V19.9325H130.171C130.467 19.9325 130.708 19.8544 130.894 19.6983C131.081 19.5422 131.174 19.3357 131.172 19.079C131.174 18.8327 131.093 18.6341 130.928 18.4831C130.763 18.3322 130.545 18.2568 130.275 18.2568C130.004 18.2568 129.772 18.3287 129.577 18.4727C129.383 18.615 129.282 18.8049 129.273 19.0426H128.495C128.504 18.7598 128.589 18.5074 128.75 18.2854C128.911 18.0616 129.126 17.889 129.395 17.7676C129.664 17.6461 129.961 17.5854 130.285 17.5854C130.535 17.5854 130.765 17.6245 130.975 17.7025C131.186 17.7806 131.362 17.8855 131.503 18.0174C131.645 18.1492 131.755 18.3036 131.833 18.4805C131.911 18.6557 131.95 18.8414 131.95 19.0374C131.952 19.334 131.87 19.5864 131.703 19.7946C131.539 20.0027 131.316 20.1433 131.035 20.2161V20.2577C131.387 20.3115 131.661 20.4512 131.857 20.6767C132.053 20.9022 132.15 21.1849 132.148 21.5249C132.148 21.8164 132.068 22.0792 131.906 22.3134C131.745 22.5476 131.52 22.7306 131.232 22.8624C130.944 22.9942 130.622 23.0602 130.264 23.0602ZM134.987 23.0758C134.37 23.074 133.889 22.8329 133.546 22.3524C133.204 21.8719 133.033 21.1962 133.033 20.3254C133.035 19.4598 133.207 18.7867 133.551 18.3062C133.896 17.8257 134.375 17.5854 134.987 17.5854C135.599 17.5854 136.077 17.8265 136.421 18.3088C136.766 18.7893 136.939 19.4615 136.939 20.3254C136.939 21.1962 136.767 21.8728 136.423 22.355C136.082 22.8355 135.603 23.0758 134.987 23.0758ZM134.987 22.381C135.35 22.381 135.632 22.2032 135.835 21.8476C136.038 21.492 136.14 20.9846 136.14 20.3254C136.14 19.6679 136.037 19.1605 135.833 18.8032C135.63 18.4458 135.348 18.2672 134.987 18.2672C134.625 18.2672 134.342 18.4458 134.139 18.8032C133.936 19.1605 133.834 19.6679 133.832 20.3254C133.832 20.9863 133.933 21.4946 134.136 21.8502C134.339 22.2041 134.623 22.381 134.987 22.381ZM139.02 20.0678C138.683 20.0678 138.395 19.9481 138.156 19.7087C137.916 19.4693 137.797 19.1805 137.797 18.8422C137.797 18.504 137.916 18.216 138.156 17.9783C138.395 17.7389 138.683 17.6192 139.02 17.6192C139.358 17.6192 139.647 17.7389 139.886 17.9783C140.126 18.216 140.245 18.504 140.245 18.8422C140.245 19.1805 140.126 19.4693 139.886 19.7087C139.647 19.9481 139.358 20.0678 139.02 20.0678ZM139.02 19.4745C139.195 19.4745 139.344 19.4129 139.467 19.2898C139.59 19.1666 139.652 19.0174 139.652 18.8422C139.652 18.667 139.59 18.5187 139.467 18.3973C139.344 18.2741 139.195 18.2125 139.02 18.2125C138.846 18.2125 138.698 18.2741 138.575 18.3973C138.452 18.5187 138.39 18.667 138.39 18.8422C138.39 19.0174 138.452 19.1666 138.575 19.2898C138.698 19.4129 138.846 19.4745 139.02 19.4745Z" fill="#272727"/>
<rect x="144.217" y="92.2607" width="46.629" height="46.629" fill="#FECE30"/>
<line x1="108.345" y1="36.3889" x2="167.852" y2="139.457" stroke="#272727" stroke-width="0.999192" stroke-dasharray="3.15 3.15"/>
<path d="M219.47 50.0785C214.332 41.0373 206.938 33.4829 198.009 28.1528C189.08 22.8226 178.921 19.899 168.525 19.6673C158.129 19.4356 147.85 21.9037 138.693 26.8307C129.535 31.7577 121.811 38.9751 116.276 47.7784L117.036 48.2561C122.489 39.5842 130.097 32.4744 139.118 27.6209C148.139 22.7675 158.264 20.3362 168.505 20.5644C178.746 20.7927 188.753 23.6727 197.549 28.9233C206.345 34.1739 213.629 41.6156 218.689 50.5218L219.47 50.0785Z" fill="#272727"/>
<line y1="-0.499596" x2="119.013" y2="-0.499596" transform="matrix(-0.5 0.866025 0.866025 0.5 228.037 36.6387)" stroke="#272727" stroke-width="0.999192" stroke-dasharray="3.15 3.15"/>
<line x1="168.031" y1="13.6553" x2="168.031" y2="139.553" stroke="#272727" stroke-width="0.999192" stroke-dasharray="3.15 3.15"/>
<path d="M176.02 8.3907L173.307 7.06444L172.471 6.65549V8.3268C172.47 8.59159 172.364 8.84531 172.175 9.03255C171.987 9.21979 171.731 9.32535 171.464 9.32617L163.209 9.32617C162.942 9.32527 162.686 9.21969 162.498 9.03247C162.309 8.84524 162.203 8.59157 162.202 8.3268V0.999753C162.203 0.734979 162.309 0.481306 162.498 0.294081C162.686 0.106856 162.942 0.00127697 163.209 0.000378609L171.465 0.000378609C171.731 0.00120258 171.987 0.106758 172.176 0.293999C172.365 0.481239 172.471 0.734956 172.472 0.999753V2.67106L173.307 2.26211L176.02 0.935855C176.48 0.710932 176.856 0.942955 176.856 1.45187V7.87468C176.856 8.3836 176.48 8.61562 176.02 8.3907Z" fill="#272727"/>
<g opacity="0.6">
<mask id="mask0" mask-type="alpha" maskUnits="userSpaceOnUse" x="169" y="36" width="166" height="103">
<path d="M333.73 138.556H169.363L228.149 36.6387L333.73 138.556Z" fill="#C4C4C4" stroke="black" stroke-width="0.333064"/>
</mask>
<g mask="url(#mask0)">
<rect x="90.5356" y="109.247" width="225.151" height="0.666128" transform="rotate(-45 90.5356 109.247)" fill="#272727"/>
<rect x="94.7749" y="113.485" width="225.151" height="0.666128" transform="rotate(-45 94.7749 113.485)" fill="#272727"/>
<rect x="99.0142" y="117.725" width="225.151" height="0.666128" transform="rotate(-45 99.0142 117.725)" fill="#272727"/>
<rect x="103.253" y="121.964" width="225.151" height="0.666128" transform="rotate(-45 103.253 121.964)" fill="#272727"/>
<rect x="107.493" y="126.203" width="225.151" height="0.666128" transform="rotate(-45 107.493 126.203)" fill="#272727"/>
<rect x="111.732" y="130.442" width="225.151" height="0.666128" transform="rotate(-45 111.732 130.442)" fill="#272727"/>
<rect x="115.97" y="134.682" width="225.151" height="0.666128" transform="rotate(-45 115.97 134.682)" fill="#272727"/>
<rect x="120.21" y="138.922" width="225.151" height="0.666128" transform="rotate(-45 120.21 138.922)" fill="#272727"/>
<rect x="124.449" y="143.159" width="225.151" height="0.666128" transform="rotate(-45 124.449 143.159)" fill="#272727"/>
<rect x="128.689" y="147.399" width="225.151" height="0.666128" transform="rotate(-45 128.689 147.399)" fill="#272727"/>
<rect x="132.927" y="151.639" width="225.151" height="0.666128" transform="rotate(-45 132.927 151.639)" fill="#272727"/>
<rect x="137.167" y="155.878" width="225.151" height="0.666128" transform="rotate(-45 137.167 155.878)" fill="#272727"/>
<rect x="141.406" y="160.116" width="225.151" height="0.666128" transform="rotate(-45 141.406 160.116)" fill="#272727"/>
<rect x="145.646" y="164.356" width="225.151" height="0.666128" transform="rotate(-45 145.646 164.356)" fill="#272727"/>
<rect x="149.885" y="168.596" width="225.151" height="0.666128" transform="rotate(-45 149.885 168.596)" fill="#272727"/>
<rect x="154.124" y="172.835" width="225.151" height="0.666128" transform="rotate(-45 154.124 172.835)" fill="#272727"/>
<rect x="158.363" y="177.074" width="225.151" height="0.666128" transform="rotate(-45 158.363 177.074)" fill="#272727"/>
<rect x="162.603" y="181.313" width="225.151" height="0.666128" transform="rotate(-45 162.603 181.313)" fill="#272727"/>
<rect x="166.842" y="185.553" width="225.151" height="0.666128" transform="rotate(-45 166.842 185.553)" fill="#272727"/>
<rect x="171.081" y="189.793" width="225.151" height="0.666128" transform="rotate(-45 171.081 189.793)" fill="#272727"/>
<rect x="175.32" y="194.03" width="225.151" height="0.666128" transform="rotate(-45 175.32 194.03)" fill="#272727"/>
<rect x="179.56" y="198.271" width="225.151" height="0.666128" transform="rotate(-45 179.56 198.271)" fill="#272727"/>
<rect x="183.798" y="202.51" width="225.151" height="0.666128" transform="rotate(-45 183.798 202.51)" fill="#272727"/>
<rect x="188.037" y="206.749" width="225.151" height="0.666128" transform="rotate(-45 188.037 206.749)" fill="#272727"/>
<rect x="192.277" y="210.986" width="225.151" height="0.666128" transform="rotate(-45 192.277 210.986)" fill="#272727"/>
<rect x="196.516" y="215.226" width="225.151" height="0.666128" transform="rotate(-45 196.516 215.226)" fill="#272727"/>
<rect x="200.755" y="219.466" width="225.151" height="0.666128" transform="rotate(-45 200.755 219.466)" fill="#272727"/>
<rect x="204.994" y="223.706" width="225.151" height="0.666128" transform="rotate(-45 204.994 223.706)" fill="#272727"/>
<rect x="209.234" y="227.944" width="225.151" height="0.666128" transform="rotate(-45 209.234 227.944)" fill="#272727"/>
<rect x="213.473" y="232.183" width="225.151" height="0.666128" transform="rotate(-45 213.473 232.183)" fill="#272727"/>
<rect x="217.712" y="236.423" width="225.151" height="0.666128" transform="rotate(-45 217.712 236.423)" fill="#272727"/>
<rect x="221.951" y="240.662" width="225.151" height="0.666128" transform="rotate(-45 221.951 240.662)" fill="#272727"/>
<rect x="226.19" y="244.9" width="225.151" height="0.666128" transform="rotate(-45 226.19 244.9)" fill="#272727"/>
<rect x="230.43" y="249.14" width="225.151" height="0.666128" transform="rotate(-45 230.43 249.14)" fill="#272727"/>
<rect x="234.668" y="253.38" width="225.151" height="0.666128" transform="rotate(-45 234.668 253.38)" fill="#272727"/>
<rect x="238.908" y="257.619" width="225.151" height="0.666128" transform="rotate(-45 238.908 257.619)" fill="#272727"/>
<rect x="243.147" y="261.858" width="225.151" height="0.666128" transform="rotate(-45 243.147 261.858)" fill="#272727"/>
<rect x="247.386" y="266.096" width="225.151" height="0.666128" transform="rotate(-45 247.386 266.096)" fill="#272727"/>
</g>
</g>
<g opacity="0.6">
<mask id="mask1" mask-type="alpha" maskUnits="userSpaceOnUse" x="2" y="36" width="166" height="103">
<path d="M2.66513 138.557H167.032L108.246 36.6396L2.66513 138.557Z" fill="#C4C4C4" stroke="black" stroke-width="0.333064"/>
</mask>
<g mask="url(#mask1)">
<rect x="-105.807" y="109.248" width="225.151" height="0.666128" transform="rotate(-45 -105.807 109.248)" fill="#272727"/>
<rect x="-101.567" y="113.486" width="225.151" height="0.666128" transform="rotate(-45 -101.567 113.486)" fill="#272727"/>
<rect x="-97.3281" y="117.727" width="225.151" height="0.666128" transform="rotate(-45 -97.3281 117.727)" fill="#272727"/>
<rect x="-93.0889" y="121.966" width="225.151" height="0.666128" transform="rotate(-45 -93.0889 121.966)" fill="#272727"/>
<rect x="-88.8496" y="126.205" width="225.151" height="0.666128" transform="rotate(-45 -88.8496 126.205)" fill="#272727"/>
<rect x="-84.6104" y="130.443" width="225.151" height="0.666128" transform="rotate(-45 -84.6104 130.443)" fill="#272727"/>
<rect x="-80.3721" y="134.684" width="225.151" height="0.666128" transform="rotate(-45 -80.3721 134.684)" fill="#272727"/>
<rect x="-76.1318" y="138.923" width="225.151" height="0.666128" transform="rotate(-45 -76.1318 138.923)" fill="#272727"/>
<rect x="-71.8936" y="143.161" width="225.151" height="0.666128" transform="rotate(-45 -71.8936 143.161)" fill="#272727"/>
<rect x="-67.6533" y="147.4" width="225.151" height="0.666128" transform="rotate(-45 -67.6533 147.4)" fill="#272727"/>
<rect x="-63.415" y="151.64" width="225.151" height="0.666128" transform="rotate(-45 -63.415 151.64)" fill="#272727"/>
<rect x="-59.1753" y="155.879" width="225.151" height="0.666128" transform="rotate(-45 -59.1753 155.879)" fill="#272727"/>
<rect x="-54.9365" y="160.118" width="225.151" height="0.666128" transform="rotate(-45 -54.9365 160.118)" fill="#272727"/>
<rect x="-50.6968" y="164.357" width="225.151" height="0.666128" transform="rotate(-45 -50.6968 164.357)" fill="#272727"/>
<rect x="-46.4575" y="168.598" width="225.151" height="0.666128" transform="rotate(-45 -46.4575 168.598)" fill="#272727"/>
<rect x="-42.2183" y="172.837" width="225.151" height="0.666128" transform="rotate(-45 -42.2183 172.837)" fill="#272727"/>
<rect x="-37.979" y="177.075" width="225.151" height="0.666128" transform="rotate(-45 -37.979 177.075)" fill="#272727"/>
<rect x="-33.7397" y="181.314" width="225.151" height="0.666128" transform="rotate(-45 -33.7397 181.314)" fill="#272727"/>
<rect x="-29.5005" y="185.554" width="225.151" height="0.666128" transform="rotate(-45 -29.5005 185.554)" fill="#272727"/>
<rect x="-25.2612" y="189.794" width="225.151" height="0.666128" transform="rotate(-45 -25.2612 189.794)" fill="#272727"/>
<rect x="-21.0225" y="194.032" width="225.151" height="0.666128" transform="rotate(-45 -21.0225 194.032)" fill="#272727"/>
<rect x="-16.7827" y="198.272" width="225.151" height="0.666128" transform="rotate(-45 -16.7827 198.272)" fill="#272727"/>
<rect x="-12.5439" y="202.511" width="225.151" height="0.666128" transform="rotate(-45 -12.5439 202.511)" fill="#272727"/>
<rect x="-8.30518" y="206.751" width="225.151" height="0.666128" transform="rotate(-45 -8.30518 206.751)" fill="#272727"/>
<rect x="-4.06543" y="210.988" width="225.151" height="0.666128" transform="rotate(-45 -4.06543 210.988)" fill="#272727"/>
<rect x="0.173828" y="215.229" width="225.151" height="0.666128" transform="rotate(-45 0.173828 215.229)" fill="#272727"/>
<rect x="4.4126" y="219.469" width="225.151" height="0.666128" transform="rotate(-45 4.4126 219.469)" fill="#272727"/>
<rect x="8.65234" y="223.708" width="225.151" height="0.666128" transform="rotate(-45 8.65234 223.708)" fill="#272727"/>
<rect x="12.8916" y="227.947" width="225.151" height="0.666128" transform="rotate(-45 12.8916 227.947)" fill="#272727"/>
<rect x="17.1304" y="232.185" width="225.151" height="0.666128" transform="rotate(-45 17.1304 232.185)" fill="#272727"/>
<rect x="21.3696" y="236.424" width="225.151" height="0.666128" transform="rotate(-45 21.3696 236.424)" fill="#272727"/>
<rect x="25.6089" y="240.664" width="225.151" height="0.666128" transform="rotate(-45 25.6089 240.664)" fill="#272727"/>
<rect x="29.8481" y="244.902" width="225.151" height="0.666128" transform="rotate(-45 29.8481 244.902)" fill="#272727"/>
<rect x="34.0879" y="249.142" width="225.151" height="0.666128" transform="rotate(-45 34.0879 249.142)" fill="#272727"/>
<rect x="38.3262" y="253.382" width="225.151" height="0.666128" transform="rotate(-45 38.3262 253.382)" fill="#272727"/>
<rect x="42.5659" y="257.621" width="225.151" height="0.666128" transform="rotate(-45 42.5659 257.621)" fill="#272727"/>
<rect x="46.8047" y="261.859" width="225.151" height="0.666128" transform="rotate(-45 46.8047 261.859)" fill="#272727"/>
<rect x="51.0439" y="266.098" width="225.151" height="0.666128" transform="rotate(-45 51.0439 266.098)" fill="#272727"/>
</g>
</g>
<rect x="168.889" y="137.179" width="1.03319" height="1.18884" transform="rotate(32.0909 168.889 137.179)" fill="#272727"/>
<rect width="1.03319" height="1.18884" transform="matrix(0.847207 -0.531264 -0.531264 -0.847207 166.831 138.735)" fill="#272727"/>
<rect width="0.999192" height="1.33226" transform="matrix(1 0 0 -1 167.531 138.556)" fill="#272727"/>
<rect y="138.665" width="335" height="1.8891" fill="#272727"/>
</svg>
