<svg width="68" height="18" viewBox="0 0 68 18" fill="none" xmlns="http://www.w3.org/2000/svg">
<path d="M11.0391 2.55143V0.643311L0.600098 0.643311L0.600098 17.0926H11.0391V15.1626H2.81975V9.37242H7.58872V10.3374H9.85233V8.47319H8.13814V7.50816H2.81975V2.55143H11.0391Z" fill="#9897DE"/>
<path d="M39.9479 14.5383C39.9628 13.8547 40.0448 13.1784 40.194 12.5096C40.3431 11.826 40.4922 11.1423 40.6413 10.4586C40.8054 9.77495 40.8874 9.09128 40.8874 8.40761C40.9023 7.7388 40.8128 7.07742 40.619 6.42348C40.4251 5.76953 40.2312 5.12302 40.0374 4.48394C39.8435 3.82999 39.7466 3.19091 39.7466 2.56669C39.7466 1.9276 39.8733 1.45201 40.1268 1.1399C40.3953 0.827785 40.8725 0.619711 41.5584 0.515675C42.2444 0.411638 43.2212 0.359619 44.4887 0.359619C45.6668 0.359619 46.7405 0.48595 47.7098 0.738611C48.6791 0.976409 49.4471 1.37769 50.0138 1.94247C50.5954 2.49237 50.8862 3.22806 50.8862 4.14953C50.8862 4.63999 50.752 5.04127 50.4835 5.35339C50.2151 5.65063 49.8572 5.79926 49.4098 5.79926C49.0669 5.79926 48.7984 5.69522 48.6046 5.48715C48.4256 5.26421 48.284 4.98183 48.1796 4.63999C48.0752 4.28329 47.9559 3.91916 47.8217 3.5476C47.7024 3.16118 47.5309 2.79705 47.3072 2.45522C47.0835 2.09852 46.7629 1.81614 46.3453 1.60806C45.9427 1.38513 45.3984 1.27366 44.7124 1.27366C43.9668 1.27366 43.3703 1.52632 42.9229 2.03164C42.4756 2.5221 42.2519 3.13889 42.2519 3.88201C42.2519 4.63999 42.3563 5.24192 42.565 5.68779C42.7887 6.1188 43.0721 6.44577 43.415 6.66871C43.7729 6.87678 44.1607 7.02541 44.5782 7.11458C45.0107 7.18889 45.4357 7.24834 45.8532 7.29293C46.2857 7.32265 46.6734 7.3821 47.0164 7.47128C47.3743 7.54559 47.6576 7.68678 47.8664 7.89486C48.0901 8.08807 48.2019 8.40018 48.2019 8.83119C48.2019 9.29192 48.0603 9.64119 47.7769 9.87899C47.5085 10.1168 47.2103 10.2357 46.8822 10.2357C46.4646 10.2357 46.0396 10.1168 45.6072 9.87899C45.1896 9.64119 44.787 9.34394 44.3993 8.98724C44.0265 8.63054 43.6835 8.26642 43.3703 7.89486C43.0721 7.50843 42.826 7.1666 42.6321 6.86935C42.4532 6.55724 42.3563 6.34917 42.3413 6.24513H42.2519V10.793C42.2519 11.6253 42.2668 12.3907 42.2966 13.0893C42.3264 13.7878 42.4383 14.3972 42.6321 14.9173C42.826 15.4227 43.1541 15.8165 43.6164 16.0989C44.0936 16.3664 44.7721 16.5002 45.6519 16.5002C46.2037 16.5002 46.6287 16.3887 46.9269 16.1658C47.2401 15.928 47.4861 15.6456 47.6651 15.3186C47.844 14.9768 48.0155 14.635 48.1796 14.2931C48.3585 13.9513 48.5747 13.6689 48.8283 13.446C49.0967 13.2082 49.477 13.0893 49.9691 13.0893C50.491 13.0893 50.916 13.2453 51.2441 13.5574C51.5871 13.8547 51.7586 14.2188 51.7586 14.6498C51.7586 15.274 51.505 15.7942 50.998 16.2104C50.491 16.6117 49.7901 16.9089 48.8954 17.1021C48.0006 17.3102 46.9717 17.4142 45.8085 17.4142C44.6155 17.4142 43.6387 17.3845 42.8782 17.325C42.1177 17.2656 41.5212 17.1393 41.0887 16.9461C40.6712 16.7528 40.3729 16.463 40.194 16.0766C40.0299 15.6902 39.9479 15.1774 39.9479 14.5383Z" fill="#9897DE"/>
<path d="M35.1166 5.12313C35.0318 4.38449 34.6846 3.80676 34.0749 3.38996C33.4652 2.96788 32.6885 2.75684 31.7449 2.75684C30.7588 2.75684 29.9662 2.98107 29.3672 3.42953C28.7734 3.87799 28.4765 4.45308 28.4765 5.15478C28.4765 5.45024 28.5401 5.72459 28.6674 5.97784C28.7946 6.22581 28.951 6.43421 29.1365 6.60305C29.3274 6.7666 29.5633 6.91961 29.8443 7.06206C30.1306 7.20451 30.393 7.31531 30.6316 7.39445C30.8701 7.47359 31.1379 7.55009 31.4347 7.62395L33.0252 8.03548C36.1478 8.8005 37.7091 10.32 37.7091 12.5939C37.7091 13.9974 37.171 15.1396 36.0948 16.0207C35.0239 16.9018 33.5527 17.3424 31.6813 17.3424C29.8629 17.3424 28.4129 16.9203 27.3314 16.0761C26.2499 15.2267 25.6694 14.066 25.5898 12.5939H28.055C28.124 13.4381 28.4924 14.0844 29.1604 14.5329C29.8337 14.9761 30.6687 15.1977 31.6654 15.1977C32.7204 15.1977 33.5845 14.9576 34.2578 14.4775C34.9364 13.9921 35.2757 13.3563 35.2757 12.5702C35.2757 12.2906 35.2227 12.0347 35.1166 11.8025C35.0106 11.5704 34.8701 11.3726 34.6952 11.209C34.5255 11.0454 34.3002 10.8951 34.0192 10.7579C33.7435 10.6154 33.4652 10.4967 33.1842 10.4018C32.9033 10.3015 32.5719 10.2013 32.1902 10.101L30.2658 9.57871C27.4401 8.81897 26.0272 7.39181 26.0272 5.29723C26.0272 4.38449 26.279 3.57198 26.7827 2.85972C27.2916 2.14746 27.9835 1.60139 28.8582 1.22152C29.733 0.836373 30.7137 0.643799 31.8005 0.643799C33.444 0.643799 34.7932 1.06324 35.8482 1.90213C36.9032 2.74101 37.4493 3.81468 37.4864 5.12313H35.1166Z" fill="#9897DE"/>
<path d="M67.4171 0.857666V17.0578H65.1629L56.9003 5.17663H56.7495V17.0578H54.2969V0.857666L56.5669 0.857666L64.8375 12.7546H64.9883V0.857666H67.4171Z" fill="#9897DE"/>
<path d="M14.2916 9.51285C12.9187 8.65508 13.469 7.30344 13.9157 6.73484C13.8636 6.81065 13.905 6.76733 14.4878 5.98754C15.0706 5.20774 14.5998 4.08138 14.2916 3.61567C14.0628 3.03083 13.8242 1.71493 14.7002 1.1301C15.7953 0.399047 16.8577 0.480269 17.8057 1.45501C18.5641 2.2348 19.56 2.05068 19.9632 1.86114C20.5734 1.3467 21.9605 0.626475 22.6273 1.86114C23.4609 3.40448 22.8725 4.98031 22.6273 5.5489C22.3821 6.1175 21.6793 6.23122 20.5025 6.16624C19.5611 6.11425 19.2971 4.78224 19.1459 4.11929C18.8944 3.54722 18.0476 2.62469 16.8577 3.27452C15.3704 4.0868 15.7463 6.11751 15.9424 6.73484C16.1386 7.35218 17.7403 8.82698 19.1459 7.53088C20.2704 6.49399 21.0746 6.70234 21.5322 6.89729C22.0062 7.02725 22.9477 7.30994 23.2484 8.5706C23.6243 10.1464 23.0404 9.91821 22.8725 11.0237C22.7417 11.8847 23.5753 12.6483 23.6734 13.4443C23.7714 14.2403 23.5642 15.1905 22.3985 16.3035C20.9648 17.6724 18.296 17.3432 17.4951 17.3432C16.7045 17.3432 15.2069 16.8721 14.4878 16.3035C13.9157 15.8512 13.458 15.0688 13.0658 13.6555C12.5641 11.8477 13.6378 11.2349 13.9157 11.0237C14.1984 10.8089 15.6809 10.4876 16.351 11.0237C17.0212 11.5598 17.0212 12.4046 16.8577 13.6555C16.6943 14.9064 17.0177 15.3458 17.4951 15.9299C17.9201 16.4497 20.4372 16.6772 20.9765 15.6537C21.5141 14.6337 20.8179 14.1946 19.9719 13.661L19.9632 13.6555C19.1133 13.1194 19.2604 12.1284 19.5219 11.4623C19.7834 10.7963 20.1266 10.4876 19.6853 9.35039C19.3323 8.44063 18.1653 8.44063 17.4951 8.91176C16.7106 9.51285 15.6646 10.3706 14.2916 9.51285Z" fill="#9897DE"/>
</svg>
