<svg width="335" height="180" viewBox="0 0 335 180" fill="none" xmlns="http://www.w3.org/2000/svg">
<path d="M279.535 139.157V146.696H278.622V140.114H278.578L276.738 141.337V140.409L278.622 139.157H279.535ZM281.698 146.755C281.517 146.755 281.361 146.69 281.231 146.56C281.101 146.43 281.036 146.274 281.036 146.092C281.036 145.911 281.101 145.755 281.231 145.625C281.361 145.495 281.517 145.43 281.698 145.43C281.88 145.43 282.036 145.495 282.166 145.625C282.296 145.755 282.361 145.911 282.361 146.092C282.361 146.213 282.33 146.323 282.269 146.424C282.21 146.524 282.13 146.605 282.03 146.667C281.932 146.725 281.821 146.755 281.698 146.755ZM285.902 146.799C285.47 146.799 285.081 146.713 284.735 146.541C284.389 146.37 284.112 146.134 283.903 145.835C283.694 145.535 283.58 145.194 283.561 144.811H284.444C284.479 145.152 284.633 145.435 284.908 145.658C285.185 145.879 285.517 145.989 285.902 145.989C286.211 145.989 286.486 145.917 286.726 145.772C286.969 145.627 287.16 145.429 287.297 145.176C287.437 144.921 287.507 144.632 287.507 144.311C287.507 143.982 287.434 143.689 287.29 143.431C287.147 143.171 286.951 142.966 286.701 142.816C286.45 142.667 286.164 142.591 285.843 142.588C285.612 142.586 285.375 142.621 285.133 142.695C284.89 142.766 284.69 142.858 284.533 142.971L283.679 142.868L284.135 139.157H288.052V139.967H284.901L284.636 142.191H284.68C284.834 142.068 285.028 141.966 285.261 141.885C285.495 141.804 285.737 141.764 285.99 141.764C286.452 141.764 286.863 141.874 287.223 142.095C287.587 142.313 287.871 142.613 288.077 142.993C288.286 143.373 288.39 143.808 288.39 144.296C288.39 144.777 288.282 145.206 288.066 145.584C287.853 145.96 287.558 146.257 287.183 146.475C286.807 146.691 286.38 146.799 285.902 146.799ZM290.308 141.042L291.662 143.354L293.017 141.042H294.018L292.192 143.869L294.018 146.696H293.017L291.662 144.502L290.308 146.696H289.307L291.103 143.869L289.307 141.042H290.308Z" fill="#F8F5E8"/>
<g opacity="0.5">
<rect x="182.577" y="0.235584" width="121.09" height="157.37" stroke="black" stroke-width="0.471167"/>
<rect x="30.8616" y="0.235584" width="121.09" height="157.37" stroke="black" stroke-width="0.471167"/>
<rect x="0.235584" y="127.007" width="95.2726" height="334.529" transform="rotate(-90 0.235584 127.007)" stroke="black" stroke-width="0.471167"/>
<rect x="0.235584" y="157.605" width="157.37" height="334.529" transform="rotate(-90 0.235584 157.605)" stroke="black" stroke-width="0.471167"/>
</g>
<path d="M323.221 130.713V127.215H303.903V157.37H323.221V153.831H308.01V143.217H316.836V144.986H321.025V141.568H317.852V139.799H308.01V130.713H323.221Z" fill="#F8F5E8"/>
<path d="M221.979 114.965H220.978L222.774 117.792L220.978 120.619H221.979L223.333 118.425L224.688 120.619H225.689L223.863 117.792L225.689 114.965H224.688L223.333 117.277L221.979 114.965Z" fill="#F8F5E8"/>
<path d="M275.367 124.196C275.382 123.478 275.466 122.768 275.618 122.066C275.77 121.348 275.922 120.631 276.074 119.913C276.241 119.195 276.325 118.478 276.325 117.76C276.34 117.058 276.249 116.363 276.051 115.677C275.854 114.99 275.656 114.312 275.458 113.641C275.26 112.954 275.162 112.283 275.162 111.628C275.162 110.957 275.291 110.458 275.549 110.13C275.823 109.802 276.31 109.584 277.009 109.475C277.709 109.365 278.705 109.311 279.998 109.311C281.199 109.311 282.294 109.443 283.283 109.709C284.271 109.958 285.055 110.38 285.633 110.973C286.226 111.55 286.522 112.322 286.522 113.29C286.522 113.804 286.385 114.226 286.112 114.553C285.838 114.865 285.473 115.021 285.017 115.021C284.667 115.021 284.393 114.912 284.195 114.694C284.013 114.46 283.868 114.163 283.762 113.804C283.656 113.43 283.534 113.048 283.397 112.658C283.275 112.252 283.1 111.87 282.872 111.511C282.644 111.136 282.317 110.84 281.891 110.621C281.481 110.387 280.926 110.27 280.226 110.27C279.466 110.27 278.857 110.536 278.401 111.066C277.945 111.581 277.717 112.229 277.717 113.009C277.717 113.804 277.823 114.436 278.036 114.904C278.264 115.357 278.553 115.7 278.903 115.934C279.268 116.153 279.663 116.309 280.089 116.402C280.53 116.48 280.964 116.543 281.389 116.59C281.83 116.621 282.226 116.683 282.576 116.777C282.941 116.855 283.23 117.003 283.443 117.221C283.671 117.424 283.785 117.752 283.785 118.204C283.785 118.688 283.64 119.055 283.351 119.304C283.078 119.554 282.773 119.679 282.439 119.679C282.013 119.679 281.58 119.554 281.139 119.304C280.713 119.055 280.302 118.743 279.907 118.368C279.526 117.994 279.177 117.612 278.857 117.221C278.553 116.816 278.302 116.457 278.104 116.145C277.922 115.817 277.823 115.599 277.808 115.49H277.717V120.264C277.717 121.138 277.732 121.941 277.762 122.675C277.793 123.408 277.907 124.048 278.104 124.594C278.302 125.124 278.637 125.538 279.108 125.834C279.595 126.115 280.287 126.256 281.184 126.256C281.747 126.256 282.18 126.139 282.484 125.905C282.804 125.655 283.055 125.358 283.237 125.015C283.42 124.656 283.595 124.297 283.762 123.939C283.944 123.58 284.165 123.283 284.424 123.049C284.697 122.8 285.085 122.675 285.587 122.675C286.119 122.675 286.553 122.839 286.887 123.166C287.237 123.478 287.412 123.861 287.412 124.313C287.412 124.968 287.153 125.514 286.636 125.951C286.119 126.373 285.404 126.685 284.492 126.887C283.579 127.106 282.53 127.215 281.344 127.215C280.127 127.215 279.131 127.184 278.355 127.122C277.58 127.059 276.971 126.926 276.53 126.724C276.105 126.521 275.8 126.217 275.618 125.811C275.451 125.405 275.367 124.867 275.367 124.196Z" fill="#272727"/>
<path d="M245.007 111.333V109.311H234.17V126.744H245.007V124.698H236.474V118.562H241.425V119.585H243.775V117.609H241.995V116.586H236.474V111.333H245.007Z" fill="#F8F5E8"/>
<path d="M269.634 113.649C269.546 112.852 269.185 112.23 268.551 111.78C267.917 111.326 267.109 111.098 266.127 111.098C265.102 111.098 264.277 111.34 263.654 111.823C263.037 112.306 262.728 112.926 262.728 113.683C262.728 114.001 262.794 114.297 262.926 114.57C263.059 114.837 263.221 115.062 263.414 115.244C263.613 115.42 263.858 115.585 264.151 115.738C264.448 115.892 264.721 116.011 264.969 116.097C265.218 116.182 265.496 116.264 265.805 116.344L267.459 116.788C270.707 117.612 272.331 119.25 272.331 121.701C272.331 123.213 271.771 124.445 270.652 125.394C269.538 126.344 268.008 126.819 266.061 126.819C264.17 126.819 262.662 126.364 261.537 125.454C260.412 124.538 259.808 123.287 259.726 121.701H262.29C262.361 122.611 262.745 123.307 263.439 123.791C264.14 124.268 265.008 124.507 266.045 124.507C267.142 124.507 268.041 124.248 268.741 123.731C269.447 123.208 269.8 122.522 269.8 121.675C269.8 121.374 269.745 121.098 269.634 120.848C269.524 120.598 269.378 120.384 269.196 120.208C269.02 120.032 268.785 119.87 268.493 119.722C268.206 119.568 267.917 119.44 267.624 119.338C267.332 119.23 266.988 119.122 266.591 119.014L264.589 118.451C261.65 117.632 260.18 116.094 260.18 113.836C260.18 112.852 260.442 111.977 260.966 111.209C261.496 110.441 262.215 109.853 263.125 109.443C264.035 109.028 265.055 108.821 266.185 108.821C267.895 108.821 269.298 109.273 270.395 110.177C271.493 111.081 272.061 112.238 272.099 113.649H269.634Z" fill="#272727"/>
<path d="M303.432 109.059V126.528H301.083L292.473 113.716H292.316V126.528H289.76V109.059H292.125L300.744 121.888H300.901V109.059H303.432Z" fill="#272727"/>
<path d="M247.963 118.394C246.536 117.469 247.573 115.397 247.573 115.397C247.573 115.397 247.708 115.147 248.167 114.591C248.826 113.794 248.284 112.535 247.963 112.033C247.726 111.402 247.477 109.982 248.388 109.351C249.527 108.563 250.632 108.651 251.618 109.702C252.406 110.543 253.442 110.345 253.861 110.14C254.496 109.585 255.938 108.808 256.632 110.14C257.499 111.805 256.887 113.505 256.632 114.118C256.377 114.731 255.646 114.854 254.422 114.784C253.443 114.728 253.169 113.291 253.012 112.576C252.75 111.959 251.869 110.964 250.632 111.665C249.085 112.541 249.476 114.731 249.68 115.397C249.884 116.063 251.55 117.654 253.012 116.256C254.181 115.138 255.017 115.362 255.493 115.573C255.986 115.713 256.965 116.018 257.278 117.378C257.669 119.078 257.061 118.831 256.887 120.024C256.751 120.953 257.618 121.776 257.72 122.635C257.822 123.494 257.606 124.519 256.394 125.719C254.903 127.196 252.128 126.841 251.295 126.841C250.473 126.841 248.915 126.333 248.167 125.719C247.573 125.231 247.097 124.387 246.689 122.863C246.167 120.913 247.284 120.252 247.573 120.024C247.867 119.792 249.408 119.446 250.105 120.024C250.802 120.602 250.802 121.513 250.632 122.863C250.462 124.212 250.798 124.686 251.295 125.316C251.737 125.877 254.354 126.122 254.915 125.018C255.474 123.918 254.75 123.444 253.87 122.869L253.861 122.863C252.978 122.284 253.131 121.215 253.402 120.497C253.674 119.778 254.031 119.446 253.572 118.219C253.205 117.237 251.992 117.237 251.295 117.746C250.479 118.394 249.391 119.319 247.963 118.394Z" fill="#272727"/>
<path d="M229.292 125.026C229.384 125.118 229.533 125.118 229.625 125.026L231.124 123.526C231.216 123.434 231.216 123.285 231.124 123.193C231.032 123.101 230.883 123.101 230.791 123.193L229.458 124.526L228.126 123.193C228.034 123.101 227.885 123.101 227.793 123.193C227.701 123.285 227.701 123.434 227.793 123.526L229.292 125.026ZM229.223 113.08L229.223 124.859L229.694 124.859L229.694 113.08L229.223 113.08Z" fill="#F8F5E8"/>
<path d="M313.93 168.841V176.379H313.017V169.798H312.973L311.132 171.02V170.092L313.017 168.841H313.93ZM316.093 176.438C315.911 176.438 315.756 176.373 315.625 176.243C315.495 176.113 315.43 175.957 315.43 175.776C315.43 175.594 315.495 175.438 315.625 175.308C315.756 175.178 315.911 175.113 316.093 175.113C316.275 175.113 316.43 175.178 316.56 175.308C316.691 175.438 316.756 175.594 316.756 175.776C316.756 175.896 316.725 176.006 316.664 176.107C316.605 176.208 316.525 176.289 316.424 176.35C316.326 176.409 316.216 176.438 316.093 176.438ZM320.296 176.482C319.864 176.482 319.476 176.397 319.13 176.225C318.784 176.053 318.506 175.817 318.298 175.518C318.089 175.219 317.975 174.878 317.955 174.495H318.839C318.873 174.836 319.028 175.118 319.303 175.341C319.58 175.562 319.911 175.673 320.296 175.673C320.606 175.673 320.88 175.6 321.121 175.455C321.364 175.311 321.554 175.112 321.691 174.859C321.831 174.604 321.901 174.316 321.901 173.994C321.901 173.665 321.829 173.372 321.684 173.114C321.542 172.854 321.345 172.649 321.095 172.5C320.845 172.35 320.559 172.274 320.238 172.271C320.007 172.269 319.77 172.305 319.527 172.378C319.284 172.449 319.084 172.541 318.927 172.654L318.073 172.551L318.53 168.841H322.446V169.651H319.295L319.03 171.874H319.074C319.229 171.751 319.423 171.649 319.656 171.568C319.889 171.487 320.132 171.447 320.385 171.447C320.846 171.447 321.257 171.557 321.618 171.778C321.981 171.997 322.266 172.296 322.472 172.676C322.68 173.057 322.785 173.491 322.785 173.979C322.785 174.46 322.677 174.89 322.461 175.268C322.247 175.643 321.953 175.94 321.577 176.159C321.202 176.374 320.775 176.482 320.296 176.482ZM324.702 170.725L326.057 173.037L327.412 170.725H328.413L326.587 173.552L328.413 176.379H327.412L326.057 174.186L324.702 176.379H323.701L325.497 173.552L323.701 170.725H324.702Z" fill="#F8F5E8"/>
<path d="M330.927 163.662C331.019 163.57 331.019 163.421 330.927 163.329L329.428 161.829C329.336 161.737 329.186 161.737 329.094 161.829C329.002 161.921 329.002 162.07 329.094 162.162L330.427 163.495L329.094 164.828C329.002 164.92 329.002 165.069 329.094 165.161C329.186 165.253 329.336 165.253 329.428 165.161L330.927 163.662ZM307.035 163.329C306.943 163.421 306.943 163.57 307.035 163.662L308.535 165.161C308.627 165.253 308.776 165.253 308.868 165.161C308.96 165.069 308.96 164.92 308.868 164.828L307.535 163.495L308.868 162.162C308.96 162.07 308.96 161.921 308.868 161.829C308.776 161.737 308.627 161.737 308.535 161.829L307.035 163.329ZM330.76 163.26L307.202 163.26L307.202 163.731L330.76 163.731L330.76 163.26Z" fill="#F8F5E8"/>
<path d="M298.416 130.347C298.324 130.255 298.174 130.255 298.082 130.347L296.583 131.846C296.491 131.938 296.491 132.087 296.583 132.179C296.675 132.271 296.824 132.271 296.916 132.179L298.249 130.846L299.582 132.179C299.674 132.271 299.823 132.271 299.915 132.179C300.007 132.087 300.007 131.938 299.915 131.846L298.416 130.347ZM298.082 154.238C298.174 154.33 298.324 154.33 298.416 154.238L299.915 152.739C300.007 152.647 300.007 152.498 299.915 152.406C299.823 152.314 299.674 152.314 299.582 152.406L298.249 153.738L296.916 152.406C296.824 152.314 296.675 152.314 296.583 152.406C296.491 152.498 296.491 152.647 296.583 152.739L298.082 154.238ZM298.013 130.513L298.013 154.072L298.485 154.072L298.485 130.513L298.013 130.513Z" fill="#F8F5E8"/>
<path d="M229.625 110.558C229.533 110.466 229.384 110.466 229.292 110.558L227.793 112.057C227.701 112.149 227.701 112.298 227.793 112.39C227.885 112.482 228.034 112.482 228.126 112.39L229.458 111.057L230.791 112.39C230.883 112.482 231.032 112.482 231.124 112.39C231.216 112.298 231.216 112.149 231.124 112.057L229.625 110.558ZM229.694 122.503L229.694 110.724L229.223 110.724L229.223 122.503L229.694 122.503Z" fill="#F8F5E8"/>
<line x1="303.667" y1="157.37" x2="303.667" y2="164.908" stroke="#803121" stroke-width="0.471167"/>
<line x1="334.764" y1="157.37" x2="334.764" y2="164.908" stroke="#803121" stroke-width="0.471167"/>
</svg>
