<svg width="101" height="63" viewBox="0 0 101 63" fill="none" xmlns="http://www.w3.org/2000/svg">
<path d="M16.0362 8.64541V1.68213L0.341797 1.68213L0.341797 61.7104H16.0362V54.6671H3.67892L3.67892 33.5371H10.8488L10.8488 37.0588H14.252L14.252 30.2556H11.6748V26.7339H3.67892L3.67892 8.64541H16.0362Z" fill="#FFCC11"/>
<path d="M59.499 52.3863C59.5214 49.8914 59.6447 47.4236 59.8689 44.9829C60.0931 42.488 60.3173 39.9931 60.5415 37.4982C60.7881 35.0033 60.9114 32.5084 60.9114 30.0135C60.9338 27.5728 60.7993 25.1592 60.5079 22.7728C60.2164 20.3864 59.9249 18.0271 59.6335 15.6949C59.342 13.3084 59.1963 10.9762 59.1963 8.69826C59.1963 6.36606 59.3869 4.63048 59.768 3.4915C60.1716 2.35251 60.889 1.59319 61.9203 1.21354C62.9516 0.833874 64.4201 0.644043 66.3258 0.644043C68.097 0.644043 69.7112 1.10506 71.1685 2.02709C72.6258 2.89489 73.7805 4.35929 74.6324 6.4203C75.5068 8.42707 75.944 11.1118 75.944 14.4745C75.944 16.2643 75.7422 17.7287 75.3387 18.8677C74.9351 19.9525 74.397 20.4948 73.7244 20.4948C73.2088 20.4948 72.8052 20.1152 72.5137 19.3559C72.2447 18.5423 72.0317 17.5118 71.8748 16.2643C71.7178 14.9627 71.5385 13.6338 71.3367 12.2779C71.1573 10.8677 70.8995 9.53894 70.5632 8.29148C70.2269 6.98979 69.7449 5.95929 69.1171 5.19997C68.5118 4.38641 67.6935 3.97963 66.6621 3.97963C65.5411 3.97963 64.6443 4.90166 63.9717 6.74573C63.2991 8.53555 62.9628 10.7864 62.9628 13.4982C62.9628 16.2643 63.1198 18.4609 63.4337 20.0881C63.77 21.6609 64.1959 22.8542 64.7116 23.6677C65.2497 24.427 65.8326 24.9694 66.4604 25.2948C67.1105 25.566 67.7495 25.783 68.3773 25.9457C69.0274 26.0541 69.6104 26.2711 70.126 26.5965C70.6641 26.8677 71.0901 27.383 71.404 28.1423C71.7403 28.8474 71.9084 29.9863 71.9084 31.5592C71.9084 33.2406 71.6954 34.5151 71.2694 35.3829C70.8659 36.2507 70.4175 36.6846 69.9242 36.6846C69.2965 36.6846 68.6575 36.2507 68.0073 35.3829C67.3796 34.5151 66.7742 33.4304 66.1913 32.1287C65.6308 30.827 65.1152 29.4982 64.6443 28.1423C64.1959 26.7321 63.826 25.4847 63.5345 24.3999C63.2655 23.2609 63.1198 22.5016 63.0974 22.122H62.9628V38.7185C62.9628 41.7558 62.9853 44.549 63.0301 47.0982C63.0749 49.6473 63.2431 51.871 63.5345 53.7693C63.826 55.6134 64.3192 57.0507 65.0143 58.0812C65.7317 59.0574 66.7518 59.5456 68.0746 59.5456C68.9041 59.5456 69.5431 59.1388 69.9915 58.3252C70.4623 57.4575 70.8322 56.4269 71.1013 55.2337C71.3703 53.9863 71.6282 52.7388 71.8748 51.4914C72.1438 50.2439 72.4689 49.2134 72.85 48.3998C73.2536 47.5321 73.8253 47.0982 74.5652 47.0982C75.3499 47.0982 75.9888 47.6676 76.4821 48.8066C76.9977 49.8914 77.2556 51.2202 77.2556 52.7931C77.2556 55.071 76.8744 56.9693 76.1121 58.488C75.3499 59.9524 74.2961 61.0371 72.9509 61.7422C71.6057 62.5015 70.0588 62.8812 68.31 62.8812C66.5164 62.8812 65.0479 62.7727 63.9045 62.5557C62.7611 62.3388 61.8643 61.8778 61.2141 61.1727C60.5863 60.4676 60.1379 59.41 59.8689 57.9998C59.6223 56.5897 59.499 54.7185 59.499 52.3863Z" fill="#4AB15E"/>
<path d="M52.2356 18.0285C52.108 15.333 51.586 13.2247 50.6694 11.7037C49.7528 10.1634 48.5851 9.39322 47.1663 9.39322C45.6838 9.39322 44.4922 10.2115 43.5916 11.8481C42.6989 13.4846 42.2525 15.5833 42.2525 18.144C42.2525 19.2222 42.3482 20.2234 42.5395 21.1476C42.7308 22.0525 42.9659 22.813 43.2448 23.4291C43.5318 24.026 43.8865 24.5843 44.3089 25.1042C44.7393 25.624 45.1339 26.0284 45.4925 26.3172C45.8512 26.606 46.2537 26.8852 46.7001 27.1547L49.0912 28.6565C53.7858 31.4483 56.1331 36.9933 56.1331 45.2916C56.1331 50.4131 55.3241 54.5815 53.7061 57.7969C52.0961 61.0123 49.8843 62.6199 47.0707 62.6199C44.3368 62.6199 42.1569 61.0796 40.5309 57.9991C38.9049 54.8992 38.0322 50.6634 37.9126 45.2916H41.6189C41.7225 48.3722 42.2764 50.7308 43.2807 52.3674C44.293 53.9847 45.5483 54.7933 47.0468 54.7933C48.6329 54.7933 49.9321 53.9173 50.9443 52.1652C51.9646 50.3939 52.4747 48.0738 52.4747 45.205C52.4747 44.1846 52.395 43.2508 52.2356 42.4036C52.0761 41.5564 51.8649 40.8344 51.6019 40.2376C51.3468 39.6407 51.0081 39.092 50.5857 38.5914C50.1712 38.0715 49.7528 37.6383 49.3303 37.2918C48.9079 36.9259 48.4097 36.5601 47.8358 36.1943L44.9426 34.2882C40.6943 31.5157 38.5702 26.3075 38.5702 18.6638C38.5702 15.333 38.9488 12.3679 39.706 9.76866C40.4711 7.16942 41.5113 5.17667 42.8264 3.7904C44.1415 2.38489 45.6161 1.68213 47.25 1.68213C49.7209 1.68213 51.7494 3.2128 53.3355 6.27412C54.9216 9.33545 55.7426 13.2536 55.7984 18.0285H52.2356Z" fill="#FF6242"/>
<path d="M100.797 2.46265V61.5814H97.4082L84.9858 18.2238H84.7591V61.5814H81.0718V2.46265H84.4847L96.919 45.878H97.1457V2.46265H100.797Z" fill="#272727"/>
<path d="M20.9263 34.0478C18.8621 30.9176 19.6894 25.9851 20.3611 23.9101C20.2827 24.1868 20.3449 24.0287 21.2211 21.183C22.0973 18.3373 21.3896 14.2268 20.9263 12.5273C20.5822 10.3931 20.2235 5.59101 21.5406 3.45676C23.1869 0.788959 24.7842 1.08536 26.2094 4.64246C27.3496 7.48814 28.8469 6.81623 29.4531 6.12457C30.3704 4.24721 32.4559 1.61891 33.4584 6.12457C34.7117 11.7566 33.827 17.5073 33.4584 19.5823C33.0899 21.6572 32.0332 22.0722 30.264 21.8351C28.8486 21.6454 28.4516 16.7845 28.2244 14.3652C27.8462 12.2776 26.5731 8.91098 24.7842 11.2824C22.5481 14.2466 23.1132 21.6573 23.4081 23.9101C23.703 26.1629 26.1111 31.5449 28.2244 26.8151C29.915 23.0312 31.124 23.7915 31.8121 24.5029C32.5247 24.9772 33.9401 26.0088 34.3922 30.6093C34.9574 36.3599 34.0794 35.5271 33.827 39.5613C33.6305 42.7034 34.8837 45.4898 35.0311 48.3948C35.1786 51.2998 34.867 54.7671 33.1144 58.8289C30.959 63.8244 26.9466 62.6232 25.7425 62.6232C24.5539 62.6232 22.3023 60.9039 21.2211 58.8289C20.3611 57.1784 19.673 54.3233 19.0833 49.1655C18.329 42.5684 19.9433 40.332 20.3611 39.5613C20.7861 38.7773 23.0149 37.6049 24.0224 39.5613C25.0299 41.5177 25.0299 44.6005 24.7842 49.1655C24.5385 53.7304 25.0247 55.3339 25.7425 57.4654C26.3814 59.3625 30.1657 60.1925 30.9766 56.4575C31.7847 52.7353 30.738 51.1329 29.4661 49.1855L29.4531 49.1655C28.1753 47.2091 28.3964 43.5927 28.7896 41.162C29.1828 38.7313 29.6988 37.6049 29.0353 33.455C28.5045 30.135 26.75 30.135 25.7425 31.8543C24.563 34.0478 22.9904 37.1781 20.9263 34.0478Z" fill="#9897DE"/>
</svg>
