<svg width="155" height="89" viewBox="0 0 155 89" fill="none" xmlns="http://www.w3.org/2000/svg">
<rect x="0.72168" y="0.303467" width="153.414" height="88.1556" fill="#4AB15E"/>
<path d="M43.6098 34.6879V31.863H28.2085V56.215H43.6098V53.3577H31.4833V44.7858H38.5193V46.2145H41.8589V43.4546H39.3299V42.0259H31.4833V34.6879H43.6098Z" fill="#FFCC11"/>
<path d="M86.2609 52.4327C86.2829 51.4206 86.4039 50.4194 86.6239 49.4293C86.8439 48.4172 87.0639 47.4051 87.2839 46.393C87.526 45.3808 87.647 44.3687 87.647 43.3566C87.669 42.3665 87.537 41.3873 87.2509 40.4192C86.9649 39.4511 86.6789 38.494 86.3929 37.5479C86.1069 36.5798 85.9639 35.6336 85.9639 34.7095C85.9639 33.7634 86.1509 33.0593 86.5249 32.5973C86.9209 32.1352 87.625 31.8272 88.637 31.6732C89.6491 31.5191 91.0902 31.4421 92.9603 31.4421C94.6984 31.4421 96.2825 31.6292 97.7126 32.0032C99.1426 32.3553 100.276 32.9493 101.112 33.7854C101.97 34.5995 102.399 35.6887 102.399 37.0528C102.399 37.7789 102.201 38.373 101.805 38.835C101.409 39.2751 100.881 39.4951 100.221 39.4951C99.7147 39.4951 99.3187 39.3411 99.0326 39.0331C98.7686 38.703 98.5596 38.285 98.4056 37.7789C98.2516 37.2508 98.0756 36.7118 97.8776 36.1617C97.7016 35.5896 97.4485 35.0506 97.1185 34.5445C96.7885 34.0165 96.3155 33.5984 95.6994 33.2904C95.1054 32.9603 94.3024 32.7953 93.2903 32.7953C92.1902 32.7953 91.3102 33.1693 90.6501 33.9174C89.9901 34.6435 89.6601 35.5566 89.6601 36.6568C89.6601 37.7789 89.8141 38.67 90.1221 39.3301C90.4521 39.9682 90.8702 40.4522 91.3762 40.7823C91.9042 41.0903 92.4763 41.3103 93.0923 41.4424C93.7303 41.5524 94.3574 41.6404 94.9734 41.7064C95.6114 41.7504 96.1835 41.8384 96.6895 41.9704C97.2175 42.0804 97.6356 42.2895 97.9436 42.5975C98.2736 42.8835 98.4386 43.3456 98.4386 43.9837C98.4386 44.6657 98.2296 45.1828 97.8116 45.5349C97.4155 45.8869 96.9755 46.0629 96.4915 46.0629C95.8755 46.0629 95.2484 45.8869 94.6104 45.5349C93.9943 45.1828 93.4003 44.7428 92.8283 44.2147C92.2782 43.6866 91.7722 43.1476 91.3102 42.5975C90.8702 42.0254 90.5071 41.5194 90.2211 41.0793C89.9571 40.6173 89.8141 40.3092 89.7921 40.1552H89.6601V46.888C89.6601 48.1202 89.6821 49.2533 89.7261 50.2874C89.7701 51.3216 89.9351 52.2237 90.2211 52.9938C90.5071 53.7418 90.9912 54.3249 91.6732 54.743C92.3772 55.139 93.3783 55.337 94.6764 55.337C95.4904 55.337 96.1175 55.172 96.5575 54.842C97.0195 54.4899 97.3825 54.0719 97.6466 53.5878C97.9106 53.0818 98.1636 52.5757 98.4056 52.0696C98.6696 51.5636 98.9886 51.1455 99.3627 50.8155C99.7587 50.4634 100.32 50.2874 101.046 50.2874C101.816 50.2874 102.443 50.5185 102.927 50.9805C103.433 51.4206 103.686 51.9596 103.686 52.5977C103.686 53.5218 103.312 54.2919 102.564 54.908C101.816 55.5021 100.782 55.9421 99.4617 56.2282C98.1416 56.5362 96.6235 56.6902 94.9074 56.6902C93.1473 56.6902 91.7062 56.6462 90.5841 56.5582C89.4621 56.4702 88.582 56.2832 87.944 55.9971C87.3279 55.7111 86.8879 55.282 86.6239 54.71C86.3819 54.1379 86.2609 53.3788 86.2609 52.4327Z" fill="#4AB15E"/>
<path d="M79.1341 38.4943C79.009 37.4008 78.4966 36.5456 77.5972 35.9285C76.6977 35.3037 75.5518 34.9912 74.1595 34.9912C72.7047 34.9912 71.5354 35.3232 70.6515 35.9871C69.7755 36.651 69.3375 37.5024 69.3375 38.5412C69.3375 38.9786 69.4314 39.3848 69.6191 39.7597C69.8068 40.1268 70.0375 40.4353 70.3113 40.6853C70.5929 40.9274 70.9409 41.1539 71.3555 41.3648C71.7779 41.5757 72.165 41.7397 72.517 41.8569C72.869 41.974 73.264 42.0873 73.702 42.1966L76.0485 42.8059C80.6554 43.9384 82.9589 46.1879 82.9589 49.5543C82.9589 51.632 82.165 53.323 80.5772 54.6274C78.9972 55.9318 76.8267 56.584 74.0657 56.584C71.3829 56.584 69.2436 55.9591 67.648 54.7094C66.0524 53.4519 65.1959 51.7335 65.0786 49.5543H68.7157C68.8174 50.8041 69.361 51.7609 70.3465 52.4248C71.3398 53.0809 72.5717 53.4089 74.0422 53.4089C75.5987 53.4089 76.8736 53.0535 77.867 52.3428C78.8682 51.6242 79.3688 50.683 79.3688 49.5192C79.3688 49.1052 79.2905 48.7264 79.1341 48.3827C78.9777 48.0391 78.7704 47.7462 78.5123 47.504C78.262 47.2619 77.9296 47.0393 77.515 46.8362C77.1083 46.6253 76.6977 46.4496 76.2831 46.309C75.8686 46.1606 75.3797 46.0122 74.8166 45.8638L71.9773 45.0905C67.8084 43.9658 65.7239 41.853 65.7239 38.7521C65.7239 37.4008 66.0954 36.198 66.8385 35.1435C67.5894 34.0891 68.6101 33.2807 69.9007 32.7183C71.1912 32.1481 72.6382 31.863 74.2417 31.863C76.6664 31.863 78.657 32.484 80.2135 33.7259C81.77 34.9678 82.5756 36.5573 82.6304 38.4943H79.1341Z" fill="#FF6242"/>
<path d="M126.788 32.1794V56.1625H123.463L111.272 38.5734H111.05V56.1625H107.431V32.1794H110.78L122.982 49.792H123.205V32.1794H126.788Z" fill="#272727"/>
<path d="M48.4077 44.993C46.3821 43.7231 47.1939 41.7221 47.853 40.8804C47.7761 40.9926 47.8372 40.9285 48.697 39.774C49.5569 38.6196 48.8624 36.9521 48.4077 36.2627C48.0701 35.3969 47.718 33.4488 49.0105 32.583C50.6262 31.5007 52.1936 31.6209 53.5922 33.064C54.7111 34.2184 56.1804 33.9458 56.7752 33.6652C57.6755 32.9036 59.722 31.8374 60.7058 33.6652C61.9357 35.95 61.0676 38.2829 60.7058 39.1247C60.3441 39.9664 59.3072 40.1348 57.571 40.0386C56.182 39.9616 55.7925 37.9897 55.5695 37.0082C55.1984 36.1613 53.9491 34.7956 52.1936 35.7576C49.9992 36.9601 50.5538 39.9665 50.8432 40.8804C51.1325 41.7943 53.4957 43.9776 55.5695 42.0588C57.2286 40.5238 58.415 40.8323 59.0902 41.1209C59.7895 41.3133 61.1785 41.7318 61.6222 43.5981C62.1768 45.931 61.3152 45.5931 61.0676 47.2297C60.8746 48.5044 62.1045 49.6347 62.2491 50.8132C62.3938 51.9917 62.0881 53.3983 60.3682 55.0461C58.2531 57.0726 54.3156 56.5853 53.134 56.5853C51.9675 56.5853 49.758 55.8879 48.697 55.0461C47.853 54.3765 47.1778 53.2183 46.5991 51.1259C45.8589 48.4496 47.4431 47.5423 47.853 47.2297C48.2701 46.9117 50.4574 46.436 51.446 47.2297C52.4347 48.0234 52.4347 49.274 52.1936 51.1259C51.9524 52.9778 52.4296 53.6282 53.134 54.4929C53.761 55.2625 57.4746 55.5993 58.2703 54.0841C59.0634 52.5741 58.0362 51.924 56.7881 51.134L56.7752 51.1259C55.5213 50.3322 55.7383 48.8651 56.1242 47.8791C56.51 46.893 57.0164 46.436 56.3653 44.7525C55.8444 43.4057 54.1227 43.4057 53.134 44.1031C51.9765 44.993 50.4333 46.2629 48.4077 44.993Z" fill="#9897DE"/>
</svg>
