<svg width="189" height="188" viewBox="0 0 189 188" fill="none" xmlns="http://www.w3.org/2000/svg">
<rect x="0.71875" width="188.281" height="187.5" fill="#FECE30"/>
<path d="M46.3432 80.2131V76.182H24.2881V110.933H46.3432V106.855H28.9777V94.623H39.0534V96.6617H43.8359V92.7233H40.2142V90.6846H28.9777V80.2131H46.3432Z" fill="#F8F5E8"/>
<path d="M107.42 105.535C107.452 104.091 107.625 102.662 107.94 101.249C108.255 99.8048 108.57 98.3605 108.886 96.9162C109.232 95.4719 109.405 94.0276 109.405 92.5833C109.437 91.1704 109.248 89.7731 108.838 88.3916C108.429 87.0101 108.019 85.6443 107.609 84.2942C107.2 82.9126 106.995 81.5625 106.995 80.2438C106.995 78.8937 107.263 77.8889 107.799 77.2296C108.366 76.5702 109.374 76.1306 110.823 75.9109C112.272 75.6911 114.336 75.5812 117.014 75.5812C119.503 75.5812 121.772 75.8481 123.82 76.3818C125.868 76.8842 127.49 77.732 128.687 78.9251C129.916 80.0868 130.53 81.641 130.53 83.5877C130.53 84.6238 130.247 85.4716 129.68 86.131C129.113 86.7589 128.357 87.0729 127.411 87.0729C126.687 87.0729 126.12 86.8531 125.71 86.4135C125.332 85.9426 125.033 85.346 124.812 84.6238C124.592 83.8703 124.339 83.101 124.056 82.3161C123.804 81.4997 123.442 80.7305 122.969 80.0083C122.496 79.2548 121.819 78.6582 120.937 78.2186C120.086 77.7476 118.936 77.5122 117.487 77.5122C115.911 77.5122 114.651 78.0459 113.706 79.1135C112.761 80.1496 112.288 81.4526 112.288 83.0225C112.288 84.6238 112.509 85.8955 112.95 86.8374C113.422 87.748 114.021 88.4387 114.746 88.9097C115.502 89.3493 116.321 89.6632 117.203 89.8516C118.117 90.0086 119.015 90.1342 119.897 90.2284C120.811 90.2912 121.63 90.4168 122.355 90.6052C123.111 90.7622 123.709 91.0605 124.15 91.5C124.623 91.9082 124.859 92.5676 124.859 93.4781C124.859 94.4515 124.56 95.1893 123.961 95.6917C123.394 96.1941 122.764 96.4452 122.071 96.4452C121.189 96.4452 120.291 96.1941 119.377 95.6917C118.495 95.1893 117.644 94.5613 116.825 93.8078C116.037 93.0542 115.313 92.285 114.651 91.5C114.021 90.6837 113.501 89.9615 113.092 89.3336C112.714 88.6742 112.509 88.2346 112.477 88.0148H112.288V97.6227C112.288 99.381 112.32 100.998 112.383 102.474C112.446 103.949 112.682 105.237 113.092 106.336C113.501 107.403 114.194 108.235 115.171 108.832C116.179 109.397 117.613 109.68 119.472 109.68C120.637 109.68 121.535 109.444 122.166 108.973C122.827 108.471 123.347 107.874 123.725 107.183C124.103 106.461 124.465 105.739 124.812 105.017C125.19 104.295 125.647 103.698 126.183 103.227C126.75 102.725 127.553 102.474 128.593 102.474C129.696 102.474 130.594 102.803 131.287 103.463C132.011 104.091 132.374 104.86 132.374 105.77C132.374 107.089 131.838 108.188 130.767 109.067C129.696 109.915 128.215 110.543 126.324 110.951C124.434 111.391 122.26 111.611 119.803 111.611C117.282 111.611 115.218 111.548 113.611 111.422C112.005 111.297 110.744 111.03 109.831 110.621C108.949 110.213 108.318 109.601 107.94 108.785C107.594 107.968 107.42 106.885 107.42 105.535Z" fill="#4AB15E"/>
<path d="M97.2143 85.645C97.0351 84.0845 96.3015 82.8641 95.0134 81.9835C93.7253 81.0918 92.0843 80.646 90.0906 80.646C88.0072 80.646 86.3327 81.1197 85.067 82.0671C83.8125 83.0145 83.1853 84.2294 83.1853 85.7119C83.1853 86.336 83.3197 86.9156 83.5885 87.4506C83.8573 87.9745 84.1877 88.4148 84.5798 88.7714C84.983 89.117 85.4814 89.4402 86.0751 89.7412C86.6799 90.0421 87.2344 90.2762 87.7384 90.4434C88.2425 90.6105 88.8081 90.7722 89.4353 90.9282L92.7956 91.7976C99.3929 93.4138 102.692 96.6238 102.692 101.428C102.692 104.393 101.555 106.806 99.2809 108.667C97.0183 110.528 93.9101 111.459 89.9562 111.459C86.1143 111.459 83.0509 110.568 80.7659 108.784C78.4809 106.99 77.2544 104.538 77.0864 101.428H82.2948C82.4404 103.211 83.2189 104.577 84.6302 105.524C86.0527 106.46 87.8168 106.928 89.9226 106.928C92.1515 106.928 93.9773 106.421 95.3998 105.407C96.8335 104.381 97.5503 103.038 97.5503 101.378C97.5503 100.787 97.4383 100.246 97.2143 99.7559C96.9903 99.2654 96.6935 98.8475 96.3239 98.5019C95.9654 98.1564 95.4894 97.8387 94.8958 97.5489C94.3133 97.248 93.7253 96.9972 93.1316 96.7966C92.538 96.5848 91.8379 96.373 91.0315 96.1613L86.9656 95.0578C80.9955 93.4528 78.0105 90.4378 78.0105 86.0128C78.0105 84.0845 78.5425 82.3681 79.6066 80.8633C80.6819 79.3586 82.1436 78.205 83.9917 77.4025C85.8399 76.5888 87.912 76.182 90.2082 76.182C93.6805 76.182 96.5311 77.0681 98.76 78.8403C100.989 80.6126 102.143 82.8808 102.221 85.645H97.2143Z" fill="#FF6242"/>
<path d="M165.457 76.6337V110.858H160.694L143.237 85.7579H142.919V110.858H137.737V76.6337H142.533L160.007 101.767H160.325V76.6337H165.457Z" fill="#272727"/>
<path d="M53.2144 94.9187C50.3137 93.1065 51.4763 90.2511 52.4201 89.0499C52.31 89.21 52.3974 89.1185 53.6288 87.4711C54.8601 85.8237 53.8656 83.4442 53.2144 82.4604C52.7309 81.2248 52.2267 78.4449 54.0777 77.2094C56.3913 75.6649 58.6359 75.8365 60.6388 77.8958C62.2411 79.5431 64.3452 79.1542 65.197 78.7538C66.4862 77.6669 69.4168 76.1454 70.8257 78.7538C72.5869 82.0142 71.3437 85.3433 70.8257 86.5445C70.3078 87.7457 68.8229 87.9859 66.3366 87.8486C64.3475 87.7388 63.7897 84.9248 63.4704 83.5243C62.9389 82.3157 61.1498 80.3668 58.6359 81.7396C55.4935 83.4557 56.2877 87.7457 56.7021 89.0499C57.1165 90.354 60.5006 93.4697 63.4704 90.7316C65.8462 88.5411 67.5452 88.9812 68.5121 89.3931C69.5135 89.6676 71.5026 90.2648 72.138 92.9281C72.9322 96.2572 71.6984 95.775 71.3437 98.1104C71.0675 99.9294 72.8286 101.542 73.0358 103.224C73.243 104.906 72.8052 106.913 70.3423 109.265C67.3133 112.156 61.6747 111.461 59.9827 111.461C58.3122 111.461 55.1482 110.466 53.6288 109.265C52.4201 108.309 51.4532 106.656 50.6245 103.67C49.5644 99.8513 51.833 98.5566 52.4201 98.1104C53.0174 97.6566 56.1496 96.9779 57.5654 98.1104C58.9812 99.243 58.9812 101.028 58.6359 103.67C58.2906 106.313 58.9739 107.241 59.9827 108.475C60.8804 109.573 66.1984 110.054 67.338 107.892C68.4737 105.737 67.0028 104.809 65.2154 103.682L65.197 103.67C63.4013 102.538 63.7121 100.444 64.2646 99.0371C64.8172 97.63 65.5423 96.9779 64.61 94.5755C63.8641 92.6535 61.3985 92.6535 59.9827 93.6488C58.3251 94.9187 56.1151 96.7308 53.2144 94.9187Z" fill="#9897DE"/>
</svg>
