<svg width="335" height="41" viewBox="0 0 335 41" fill="none" xmlns="http://www.w3.org/2000/svg">
<path d="M0 39.8985V3.03018H23.1147V7.81874H5.56265V19.052H21.9086V23.8226H5.56265V35.1099H23.3307V39.8985H0Z" fill="#272727"/>
<path d="M79.5103 12.7153C79.3182 11.0351 78.5321 9.72096 77.152 8.77285C75.7718 7.81274 74.0136 7.33268 71.8774 7.33268C69.6451 7.33268 67.8509 7.84274 66.4947 8.86286C65.1506 9.88298 64.4785 11.1911 64.4785 12.7873C64.4785 13.4594 64.6225 14.0835 64.9106 14.6595C65.1986 15.2236 65.5526 15.6977 65.9727 16.0817C66.4047 16.4537 66.9388 16.8018 67.5749 17.1258C68.2229 17.4499 68.817 17.7019 69.3571 17.8819C69.8971 18.0619 70.5032 18.236 71.1753 18.404L74.7757 19.3401C81.8445 21.0803 85.3789 24.5367 85.3789 29.7093C85.3789 32.9017 84.1608 35.5 81.7245 37.5042C79.3002 39.5084 75.9698 40.5105 71.7334 40.5105C67.6169 40.5105 64.3345 39.5504 61.8862 37.6302C59.4379 35.698 58.1238 33.0577 57.9437 29.7093H63.5244C63.6804 31.6295 64.5145 33.0997 66.0267 34.1198C67.5509 35.1279 69.4411 35.632 71.6973 35.632C74.0856 35.632 76.0419 35.0859 77.566 33.9938C79.1022 32.8897 79.8703 31.4435 79.8703 29.6553C79.8703 29.0192 79.7503 28.4371 79.5103 27.9091C79.2702 27.381 78.9522 26.931 78.5561 26.5589C78.1721 26.1869 77.662 25.8448 77.026 25.5328C76.4019 25.2088 75.7718 24.9387 75.1357 24.7227C74.4997 24.4947 73.7496 24.2667 72.8855 24.0386L68.529 22.8505C62.1322 21.1223 58.9339 17.8759 58.9339 13.1114C58.9339 11.0351 59.5039 9.1869 60.6441 7.56671C61.7962 5.94652 63.3624 4.70438 65.3426 3.84028C67.3228 2.96417 69.5431 2.52612 72.0034 2.52612C75.7238 2.52612 78.7782 3.48023 81.1665 5.38846C83.5547 7.29668 84.7909 9.73896 84.8749 12.7153H79.5103Z" fill="#272727"/>
<path d="M92.0262 39.8985V3.03018H115.141V7.81874H97.5889V19.052H113.935V23.8226H97.5889V35.1099H115.357V39.8985H92.0262Z" fill="#272727"/>
<path d="M40.6916 17.1509C36.7031 15.4496 33.2496 13.8943 33.2496 11.5612C33.2496 8.30458 35.9735 6.45755 40.2539 6.45755C43.756 6.45755 46.6258 8.4504 47.9391 11.9986H52.4146C51.7011 4.96877 45.507 2.32605 40.2539 2.32605C33.0064 2.32605 28.3369 6.26313 28.3369 11.464C28.3369 16.7134 33.8819 19.3867 39.1351 21.574C43.756 23.5182 48.085 25.4625 48.085 28.9621V34.0657H52.8518V28.4274C52.8518 22.3517 46.2366 19.4839 40.6916 17.1509ZM34.0765 31.0521H29.1152V37.6139H32.6173V39.8984H47.5499V35.7669H34.0765V31.0521Z" fill="#272727"/>
<path d="M132.223 3.0809H121.02V39.8985H152V4.6588C150.264 2.9757 148.055 2.13416 145.688 2.13416C140.639 2.13416 138.377 5.76332 138.377 10.497C138.377 13.6528 139.639 17.7028 140.533 20.7534L140.376 20.806C138.482 14.3892 135.379 8.91912 132.223 3.0809ZM126.28 38.3206V3.0809L145.109 38.3206H126.28ZM140.218 12.8639C140.218 9.97106 141.585 7.34122 144.794 7.34122C148.739 7.34122 150.422 11.6016 150.422 14.9677V36.9531C147.213 31.1675 140.218 19.2807 140.218 12.8639Z" fill="#272727"/>
<path d="M233.466 11.0975C233.264 9.33277 232.439 7.95249 230.989 6.95667C229.54 5.94825 227.693 5.44405 225.449 5.44405C223.105 5.44405 221.22 5.97977 219.796 7.05121C218.384 8.12266 217.678 9.49663 217.678 11.1731C217.678 11.879 217.829 12.5345 218.132 13.1396C218.434 13.732 218.806 14.2299 219.247 14.6333C219.701 15.024 220.262 15.3896 220.93 15.7299C221.611 16.0703 222.235 16.335 222.802 16.5241C223.369 16.7131 224.006 16.8959 224.712 17.0724L228.493 18.0556C235.918 19.8834 239.63 23.5137 239.63 28.9465C239.63 32.2995 238.351 35.0286 235.792 37.1337C233.246 39.2387 229.748 40.2913 225.298 40.2913C220.974 40.2913 217.527 39.2829 214.955 37.266C212.384 35.2366 211.004 32.4634 210.814 28.9465H216.676C216.84 30.9634 217.716 32.5075 219.304 33.579C220.905 34.6378 222.89 35.1672 225.26 35.1672C227.769 35.1672 229.823 34.5937 231.424 33.4466C233.038 32.2869 233.844 30.768 233.844 28.8898C233.844 28.2217 233.718 27.6104 233.466 27.0558C233.214 26.5011 232.88 26.0284 232.464 25.6377C232.061 25.2469 231.525 24.8877 230.857 24.5599C230.201 24.2196 229.54 23.936 228.871 23.7091C228.203 23.4696 227.416 23.2301 226.508 22.9906L221.932 21.7426C215.214 19.9275 211.854 16.5178 211.854 11.5135C211.854 9.33277 212.453 7.39156 213.651 5.68985C214.861 3.98814 216.506 2.68349 218.586 1.77592C220.665 0.855731 222.997 0.395639 225.582 0.395639C229.489 0.395639 232.697 1.39776 235.206 3.40199C237.714 5.40623 239.012 7.9714 239.101 11.0975H233.466Z" fill="#272727"/>
<path d="M257.695 15.9115C253.417 14.0856 249.713 12.4162 249.713 9.9121C249.713 6.41678 252.635 4.43436 257.226 4.43436C260.982 4.43436 264.06 6.57329 265.468 10.3816H270.737C270.192 7.27822 267.537 3.40199 264.948 2.13893C262.752 0.737923 260.083 0 257.226 0C249.453 0 244.444 4.22569 244.444 9.80777C244.444 15.442 250.392 18.3113 256.026 20.6589C260.982 22.7457 265.625 24.8324 265.625 28.5886V34.0663H270.737V28.0147C270.737 21.4936 263.642 18.4156 257.695 15.9115ZM250.6 30.8319H245.279V37.8747H249.035V40.3266H265.051V35.8922H250.6V30.8319Z" fill="#272727"/>
<path d="M277.078 39.6484V0.925059H301.355V5.95456H282.92V17.7531H300.089V22.7637H282.92V34.6189H301.582V39.6484H277.078Z" fill="#272727"/>
<path d="M183 1.1571V39.6489H205.526V34.1501H188.508V6.65593H196.604C193.244 9.57031 191.096 13.2545 191.096 17.7636C191.096 22.7125 193.74 26.6167 199.027 26.6167C201.395 26.6167 203.598 25.8468 205.471 24.3622V11.6049C205.471 15.784 202.937 21.1728 198.146 21.1728C195.062 21.1728 193.409 18.9183 193.409 16.0039C193.409 8.80047 203.598 2.69678 209.767 1.1571H183Z" fill="#272727"/>
<path d="M314.903 39.6486V19.528C314.903 17.1641 316.754 17.1103 317.478 17.1103C318.444 17.1103 319.248 17.7551 319.248 21.892C319.248 25.9572 312.917 31.3747 318.175 35.834C322.382 39.4014 325.66 37.5532 325.66 34.8669C325.66 33.9267 325.606 32.8173 325.66 32.6373C326.17 30.9449 328.826 30.9986 329.228 32.6373V39.6486H335V0.992432H329.148C329.148 7.59182 329.185 20.8919 329.185 21.1608C329.185 21.5321 329.738 26.7274 325.928 26.7274C321.753 26.7274 322.06 22.6344 322.222 20.47L322.226 20.4145C322.375 18.4322 327.377 12.1407 325.928 9.10511C324.775 6.68743 323.138 5.81787 319.034 7.38587C315.321 8.80425 314.733 3.71457 314.903 0.992432H308.949V39.6486H314.903Z" fill="#272727"/>
</svg>
