<svg width="188" height="188" viewBox="0 0 188 188" fill="none" xmlns="http://www.w3.org/2000/svg">
<rect width="187.5" height="187.5" fill="#4AB15E"/>
<path d="M45.4353 80.2133V76.1823H23.4717V110.933H45.4353V106.855H28.1418V94.6233H38.1757V96.662H42.9384V92.7236H39.3317V90.6849H28.1418V80.2133H45.4353Z" fill="#272727"/>
<path d="M106.26 105.535C106.291 104.091 106.463 102.662 106.777 101.249C107.091 99.8048 107.405 98.3605 107.718 96.9162C108.064 95.4719 108.236 94.0276 108.236 92.5833C108.268 91.1703 108.079 89.7731 107.671 88.3916C107.264 87.0101 106.856 85.6443 106.448 84.2942C106.04 82.9126 105.836 81.5625 105.836 80.2438C105.836 78.8937 106.103 77.8889 106.636 77.2296C107.201 76.5702 108.205 76.1306 109.648 75.9109C111.091 75.6911 113.146 75.5812 115.813 75.5812C118.292 75.5812 120.551 75.8481 122.591 76.3818C124.63 76.8842 126.246 77.7319 127.438 78.9251C128.662 80.0868 129.274 81.641 129.274 83.5877C129.274 84.6238 128.991 85.4716 128.427 86.1309C127.862 86.7589 127.109 87.0729 126.167 87.0729C125.446 87.0729 124.881 86.8531 124.473 86.4135C124.097 85.9426 123.799 85.346 123.579 84.6238C123.359 83.8703 123.108 83.101 122.826 82.3161C122.575 81.4997 122.214 80.7305 121.743 80.0083C121.273 79.2548 120.598 78.6582 119.72 78.2186C118.873 77.7476 117.727 77.5122 116.284 77.5122C114.715 77.5122 113.46 78.0459 112.519 79.1135C111.578 80.1496 111.107 81.4526 111.107 83.0225C111.107 84.6238 111.327 85.8955 111.766 86.8374C112.237 87.7479 112.833 88.4387 113.554 88.9097C114.307 89.3493 115.123 89.6632 116.002 89.8516C116.912 90.0086 117.806 90.1342 118.684 90.2284C119.594 90.2912 120.41 90.4168 121.132 90.6052C121.885 90.7622 122.481 91.0605 122.92 91.5C123.391 91.9082 123.626 92.5676 123.626 93.4781C123.626 94.4514 123.328 95.1893 122.732 95.6917C122.167 96.194 121.54 96.4452 120.849 96.4452C119.971 96.4452 119.077 96.194 118.167 95.6917C117.288 95.1893 116.441 94.5613 115.625 93.8078C114.841 93.0542 114.119 92.285 113.46 91.5C112.833 90.6837 112.315 89.9615 111.907 89.3336C111.531 88.6742 111.327 88.2346 111.295 88.0148H111.107V97.6227C111.107 99.381 111.138 100.998 111.201 102.474C111.264 103.949 111.499 105.237 111.907 106.336C112.315 107.403 113.005 108.235 113.978 108.832C114.982 109.397 116.41 109.68 118.261 109.68C119.422 109.68 120.316 109.444 120.943 108.973C121.602 108.471 122.12 107.874 122.496 107.183C122.873 106.461 123.234 105.739 123.579 105.017C123.955 104.295 124.41 103.698 124.944 103.227C125.509 102.725 126.309 102.474 127.344 102.474C128.442 102.474 129.336 102.803 130.027 103.463C130.748 104.091 131.109 104.86 131.109 105.77C131.109 107.089 130.576 108.188 129.509 109.067C128.442 109.915 126.968 110.543 125.085 110.951C123.202 111.391 121.038 111.611 118.59 111.611C116.08 111.611 114.025 111.548 112.425 111.422C110.825 111.297 109.57 111.03 108.66 110.621C107.781 110.213 107.154 109.601 106.777 108.785C106.432 107.968 106.26 106.885 106.26 105.535Z" fill="#272727"/>
<path d="M96.0951 85.6452C95.9167 84.0848 95.1861 82.8643 93.9033 81.9838C92.6206 81.0921 90.9865 80.6462 89.001 80.6462C86.9263 80.6462 85.2587 81.1199 83.9983 82.0674C82.749 83.0148 82.1243 84.2297 82.1243 85.7121C82.1243 86.3363 82.2582 86.9159 82.5259 87.4509C82.7936 87.9747 83.1226 88.415 83.513 88.7717C83.9146 89.1172 84.411 89.4404 85.0021 89.7414C85.6045 90.0423 86.1566 90.2764 86.6586 90.4436C87.1605 90.6108 87.7238 90.7724 88.3485 90.9284L91.6948 91.7978C98.2647 93.414 101.55 96.6241 101.55 101.428C101.55 104.393 100.417 106.806 98.1531 108.667C95.8999 110.529 92.8046 111.459 88.8671 111.459C85.0412 111.459 81.9905 110.568 79.715 108.784C77.4395 106.99 76.2181 104.538 76.0508 101.428H81.2376C81.3826 103.211 82.1578 104.577 83.5632 105.524C84.9798 106.46 86.7366 106.929 88.8337 106.929C91.0534 106.929 92.8715 106.421 94.2881 105.407C95.7159 104.382 96.4298 103.039 96.4298 101.378C96.4298 100.787 96.3182 100.247 96.0951 99.7561C95.8721 99.2657 95.5765 98.8477 95.2084 98.5022C94.8514 98.1566 94.3774 97.839 93.7862 97.5492C93.2062 97.2482 92.6206 96.9974 92.0294 96.7968C91.4382 96.585 90.7411 96.3733 89.9379 96.1615L85.8889 95.058C79.9437 93.453 76.971 90.438 76.971 86.013C76.971 84.0848 77.5008 82.3683 78.5605 80.8636C79.6313 79.3589 81.087 78.2053 82.9274 77.4027C84.7679 76.5891 86.8315 76.1823 89.1181 76.1823C92.576 76.1823 95.4147 77.0684 97.6345 78.8406C99.8542 80.6128 101.003 82.881 101.081 85.6452H96.0951Z" fill="#272727"/>
<path d="M164.054 76.6337V110.858H159.311L141.927 85.7579H141.609V110.858H136.449V76.6337H141.225L158.627 101.767H158.944V76.6337H164.054Z" fill="#272727"/>
<path d="M52.2782 94.9189C49.3895 93.1068 50.5473 90.2513 51.4872 89.0501C51.3775 89.2103 51.4646 89.1187 52.6908 87.4714C53.917 85.824 52.9266 83.4444 52.2782 82.4606C51.7967 81.2251 51.2946 78.4451 53.1379 77.2096C55.4419 75.6652 57.6772 75.8368 59.6717 77.896C61.2674 79.5434 63.3628 79.1544 64.2111 78.754C65.4949 77.6672 68.4134 76.1457 69.8164 78.754C71.5703 82.0144 70.3323 85.3435 69.8164 86.5447C69.3006 87.7459 67.8219 87.9862 65.3459 87.8489C63.3651 87.7391 62.8096 84.9251 62.4916 83.5245C61.9623 82.316 60.1807 80.3671 57.6772 81.7399C54.5478 83.4559 55.3387 87.7459 55.7514 89.0501C56.1641 90.3543 59.5342 93.4699 62.4916 90.7318C64.8576 88.5413 66.5495 88.9814 67.5124 89.3933C68.5097 89.6679 70.4905 90.2651 71.1232 92.9283C71.9142 96.2574 70.6855 95.7753 70.3323 98.1107C70.0572 99.9297 71.811 101.543 72.0173 103.224C72.2237 104.906 71.7877 106.913 69.335 109.265C66.3186 112.157 60.7034 111.461 59.0184 111.461C57.3548 111.461 54.2039 110.466 52.6908 109.265C51.4872 108.309 50.5243 106.656 49.699 103.671C48.6434 99.8515 50.9025 98.5568 51.4872 98.1107C52.082 97.6568 55.2012 96.9781 56.6111 98.1107C58.0211 99.2432 58.0211 101.028 57.6772 103.671C57.3333 106.313 58.0138 107.241 59.0184 108.475C59.9124 109.574 65.2083 110.054 66.3432 107.892C67.4741 105.737 66.0094 104.809 64.2294 103.682L64.2111 103.671C62.4228 102.538 62.7323 100.444 63.2826 99.0373C63.8328 97.6302 64.555 96.9781 63.6265 94.5757C62.8837 92.6537 60.4283 92.6537 59.0184 93.649C57.3677 94.9189 55.1668 96.731 52.2782 94.9189Z" fill="#272727"/>
</svg>
