<svg width="68" height="19" viewBox="0 0 68 19" fill="none" xmlns="http://www.w3.org/2000/svg">
<path d="M11.3313 3.16554V1.22803L0.914062 1.22803L0.914063 17.9307H11.3313V15.9709H3.1291V10.0916H7.88815V11.0715H10.1471V9.1785H8.43643V8.19861H3.1291V3.16554H11.3313Z" fill="#4AB15E"/>
<path d="M40.1794 15.3373C40.1943 14.6431 40.2761 13.9564 40.425 13.2773C40.5738 12.5831 40.7226 11.8889 40.8714 11.1947C41.0351 10.5005 41.1169 9.80633 41.1169 9.11213C41.1318 8.43302 41.0425 7.76146 40.8491 7.09744C40.6556 6.43342 40.4622 5.77695 40.2687 5.12802C40.0752 4.46401 39.9785 3.81508 39.9785 3.18124C39.9785 2.53232 40.105 2.0494 40.358 1.73248C40.6259 1.41556 41.1021 1.20428 41.7866 1.09864C42.4712 0.993005 43.4459 0.940186 44.7108 0.940186C45.8864 0.940186 46.9579 1.06846 47.9252 1.32501C48.8925 1.56648 49.6589 1.97394 50.2244 2.54741C50.8048 3.10579 51.095 3.85281 51.095 4.78847C51.095 5.28648 50.961 5.69395 50.6932 6.01086C50.4253 6.31269 50.0681 6.4636 49.6217 6.4636C49.2794 6.4636 49.0116 6.35796 48.8181 6.14668C48.6395 5.92032 48.4981 5.63358 48.394 5.28648C48.2898 4.92429 48.1707 4.55455 48.0368 4.17727C47.9178 3.7849 47.7466 3.41516 47.5234 3.06806C47.3002 2.70587 46.9802 2.41913 46.5636 2.20786C46.1618 1.98149 45.6186 1.8683 44.934 1.8683C44.19 1.8683 43.5947 2.12485 43.1483 2.63796C42.7018 3.13597 42.4786 3.76226 42.4786 4.51683C42.4786 5.28648 42.5828 5.89768 42.7911 6.35042C43.0143 6.78807 43.2971 7.12007 43.6394 7.34644C43.9965 7.55772 44.3834 7.70864 44.8001 7.79918C45.2317 7.87464 45.6558 7.935 46.0725 7.98028C46.504 8.01046 46.8909 8.07083 47.2332 8.16137C47.5904 8.23683 47.8731 8.3802 48.0815 8.59148C48.3047 8.78766 48.4163 9.10458 48.4163 9.54223C48.4163 10.0101 48.2749 10.3647 47.9922 10.6062C47.7243 10.8476 47.4267 10.9684 47.0993 10.9684C46.6826 10.9684 46.2585 10.8476 45.8269 10.6062C45.4102 10.3647 45.0084 10.0629 44.6215 9.70069C44.2495 9.3385 43.9072 8.96876 43.5947 8.59148C43.2971 8.1991 43.0515 7.852 42.8581 7.55018C42.6795 7.23326 42.5828 7.02198 42.5679 6.91634H42.4786V11.5343C42.4786 12.3794 42.4935 13.1566 42.5232 13.8659C42.553 14.5752 42.6646 15.1939 42.8581 15.7221C43.0515 16.2352 43.3789 16.6351 43.8402 16.9219C44.3165 17.1935 44.9936 17.3293 45.8716 17.3293C46.4222 17.3293 46.8463 17.2162 47.1439 16.9898C47.4564 16.7483 47.702 16.4616 47.8806 16.1296C48.0591 15.7825 48.2303 15.4354 48.394 15.0883C48.5725 14.7412 48.7883 14.4544 49.0413 14.2281C49.3092 13.9866 49.6887 13.8659 50.1797 13.8659C50.7006 13.8659 51.1247 14.0243 51.4521 14.3413C51.7944 14.6431 51.9655 15.0128 51.9655 15.4505C51.9655 16.0843 51.7125 16.6125 51.2066 17.0351C50.7006 17.4425 50.0012 17.7444 49.1083 17.9405C48.2154 18.1518 47.1886 18.2575 46.0278 18.2575C44.8373 18.2575 43.8626 18.2273 43.1036 18.1669C42.3447 18.1065 41.7494 17.9783 41.3178 17.7821C40.9012 17.5859 40.6035 17.2916 40.425 16.8992C40.2613 16.5069 40.1794 15.9862 40.1794 15.3373Z" fill="#4AB15E"/>
<path d="M35.359 5.77707C35.2744 5.02706 34.9279 4.44044 34.3195 4.01721C33.7111 3.58863 32.936 3.37434 31.9943 3.37434C31.0103 3.37434 30.2193 3.60203 29.6215 4.05739C29.029 4.51276 28.7327 5.0967 28.7327 5.80922C28.7327 6.10923 28.7962 6.3878 28.9232 6.64495C29.0501 6.89674 29.2062 7.10835 29.3914 7.27979C29.5818 7.44586 29.8173 7.60122 30.0977 7.74587C30.3833 7.89052 30.6452 8.00302 30.8833 8.08338C31.1214 8.16373 31.3885 8.24142 31.6848 8.31642L33.2719 8.73428C36.388 9.51109 37.9461 11.054 37.9461 13.363C37.9461 14.788 37.4091 15.9478 36.3351 16.8425C35.2664 17.7372 33.7983 18.1845 31.9308 18.1845C30.1162 18.1845 28.6692 17.7559 27.59 16.8987C26.5107 16.0362 25.9314 14.8576 25.8521 13.363H28.3121C28.3809 14.2201 28.7486 14.8764 29.4152 15.3318C30.0871 15.7818 30.9203 16.0068 31.9149 16.0068C32.9677 16.0068 33.8301 15.763 34.502 15.2755C35.1792 14.7826 35.5177 14.1371 35.5177 13.3388C35.5177 13.0549 35.4648 12.7951 35.359 12.5594C35.2532 12.3236 35.113 12.1228 34.9384 11.9567C34.7691 11.7906 34.5443 11.6379 34.2639 11.4986C33.9888 11.354 33.7111 11.2334 33.4307 11.137C33.1503 11.0352 32.8196 10.9334 32.4387 10.8317L30.5183 10.3013C27.6984 9.52984 26.2885 8.0807 26.2885 5.95386C26.2885 5.02706 26.5398 4.20204 27.0424 3.47881C27.5503 2.75558 28.2407 2.2011 29.1136 1.81538C29.9866 1.4243 30.9653 1.22876 32.0498 1.22876C33.6899 1.22876 35.0363 1.65466 36.0891 2.50647C37.1419 3.35827 37.6868 4.44847 37.7239 5.77707H35.359Z" fill="#4AB15E"/>
<path d="M67.592 1.44556V17.8951H65.3425L57.097 5.83104H56.9465V17.8951H54.499V1.44556H56.7643L65.0177 13.5257H65.1682V1.44556L67.592 1.44556Z" fill="#4AB15E"/>
<path d="M14.5769 10.2344C13.2068 9.36342 13.7559 7.99097 14.2018 7.41361C14.1497 7.49059 14.191 7.4466 14.7726 6.6548C15.3542 5.86299 14.8845 4.71928 14.5769 4.2464C14.3485 3.65255 14.1104 2.31639 14.9847 1.72255C16.0775 0.980238 17.1376 1.06271 18.0836 2.05246C18.8405 2.84426 19.8343 2.65731 20.2366 2.46485C20.8456 1.94248 22.2298 1.21117 22.8952 2.46485C23.7271 4.03196 23.1399 5.63206 22.8952 6.20941C22.6506 6.78676 21.9492 6.90224 20.7749 6.83625C19.8354 6.78346 19.5719 5.43094 19.4211 4.75778C19.1701 4.1769 18.325 3.24016 17.1376 3.9C15.6534 4.72479 16.0285 6.78677 16.2243 7.41361C16.42 8.04045 18.0184 9.53798 19.4211 8.22191C20.5433 7.16906 21.3457 7.38061 21.8024 7.57856C22.2754 7.71052 23.2149 7.99757 23.515 9.27764C23.8902 10.8777 23.3074 10.646 23.1399 11.7685C23.0094 12.6428 23.8413 13.4181 23.9391 14.2264C24.037 15.0347 23.8302 15.9995 22.6669 17.1297C21.2362 18.5196 18.573 18.1854 17.7738 18.1854C16.9848 18.1854 15.4903 17.707 14.7726 17.1297C14.2018 16.6704 13.745 15.876 13.3536 14.4408C12.8529 12.6052 13.9244 11.983 14.2018 11.7685C14.4838 11.5504 15.9633 11.2242 16.632 11.7685C17.3007 12.3129 17.3007 13.1707 17.1376 14.4408C16.9745 15.711 17.2973 16.1572 17.7738 16.7503C18.1978 17.2781 20.7096 17.5091 21.2479 16.4698C21.7843 15.4341 21.0896 14.9883 20.2453 14.4464L20.2366 14.4408C19.3885 13.8965 19.5353 12.8902 19.7963 12.2139C20.0572 11.5376 20.3997 11.2242 19.9594 10.0694C19.6071 9.14568 18.4425 9.14567 17.7738 9.62405C16.9908 10.2344 15.947 11.1054 14.5769 10.2344Z" fill="#4AB15E"/>
</svg>
