<svg width="124" height="33" viewBox="0 0 124 33" fill="none" xmlns="http://www.w3.org/2000/svg">
<path d="M19.3998 5.0113V1.47559L0.135254 1.47559L0.135254 31.9558H19.3998V28.3795H4.23151L4.23151 17.6504H13.0324V19.4386H17.2097V15.9842L14.0463 15.9842V14.196H4.23151L4.23151 5.0113L19.3998 5.0113Z" fill="#9F8629"/>
<path d="M72.749 27.2214C72.7765 25.9545 72.9278 24.7015 73.203 23.4622C73.4782 22.1954 73.7534 20.9286 74.0286 19.6617C74.3314 18.3949 74.4827 17.1281 74.4827 15.8612C74.5102 14.622 74.3451 13.3964 73.9874 12.1847C73.6296 10.9729 73.2718 9.77497 72.9141 8.59076C72.5563 7.37901 72.3774 6.1948 72.3774 5.03814C72.3774 3.85393 72.6114 2.97266 73.0792 2.39432C73.5746 1.81599 74.4552 1.43043 75.7211 1.23765C76.9871 1.04488 78.7896 0.948486 81.1288 0.948486C83.3029 0.948486 85.2844 1.18257 87.0732 1.65075C88.862 2.09139 90.2793 2.83496 91.325 3.88147C92.3983 4.90044 92.935 6.26365 92.935 7.97111C92.935 8.87992 92.6873 9.6235 92.1919 10.2018C91.6966 10.7526 91.0361 11.028 90.2105 11.028C89.5775 11.028 89.0822 10.8352 88.7244 10.4497C88.3942 10.0366 88.1327 9.51334 87.9401 8.87992C87.7474 8.21897 87.5273 7.54425 87.2796 6.85575C87.0594 6.13972 86.7429 5.465 86.3301 4.83159C85.9173 4.17063 85.3257 3.64738 84.5551 3.26182C83.812 2.84873 82.8076 2.64218 81.5416 2.64218C80.1656 2.64218 79.0648 3.11036 78.2392 4.04671C77.4136 4.95552 77.0008 6.09841 77.0008 7.4754C77.0008 8.87993 77.1935 9.99528 77.5787 10.8215C77.9915 11.6201 78.5144 12.226 79.1474 12.6391C79.8079 13.0247 80.5234 13.3001 81.294 13.4653C82.092 13.603 82.8764 13.7131 83.6469 13.7958C84.445 13.8508 85.1605 13.961 85.7935 14.1262C86.454 14.2639 86.9769 14.5256 87.3621 14.9111C87.7749 15.2691 87.9813 15.8475 87.9813 16.6461C87.9813 17.4999 87.7199 18.147 87.197 18.5877C86.7017 19.0283 86.1513 19.2486 85.5458 19.2486C84.7753 19.2486 83.9909 19.0283 83.1929 18.5877C82.4223 18.147 81.6792 17.5962 80.9637 16.9353C80.2757 16.2743 79.6428 15.5996 79.0648 14.9111C78.5144 14.1951 78.0603 13.5617 77.7026 13.0109C77.3723 12.4325 77.1935 12.047 77.1659 11.8542H77.0008V20.2814C77.0008 21.8236 77.0283 23.2419 77.0834 24.5363C77.1384 25.8306 77.3448 26.9597 77.7026 27.9236C78.0603 28.86 78.6658 29.5898 79.5189 30.113C80.3996 30.6088 81.6517 30.8566 83.2754 30.8566C84.2937 30.8566 85.078 30.6501 85.6284 30.237C86.2063 29.7963 86.6604 29.2731 86.9906 28.6672C87.3209 28.0338 87.6373 27.4004 87.9401 26.767C88.2703 26.1336 88.6694 25.6103 89.1372 25.1972C89.6326 24.7566 90.3343 24.5363 91.2425 24.5363C92.2057 24.5363 92.99 24.8254 93.5955 25.4038C94.2284 25.9545 94.5449 26.6293 94.5449 27.4279C94.5449 28.5846 94.0771 29.5485 93.1414 30.3196C92.2057 31.0632 90.9122 31.614 89.261 31.972C87.6098 32.3575 85.7109 32.5503 83.5644 32.5503C81.3628 32.5503 79.5602 32.4952 78.1567 32.3851C76.7531 32.2749 75.6523 32.0408 74.8543 31.6828C74.0837 31.3248 73.5333 30.7878 73.203 30.0717C72.9003 29.3557 72.749 28.4056 72.749 27.2214Z" fill="#094B16"/>
<path d="M72.749 27.2214C72.7765 25.9545 72.9278 24.7015 73.203 23.4622C73.4782 22.1954 73.7534 20.9286 74.0286 19.6617C74.3314 18.3949 74.4827 17.1281 74.4827 15.8612C74.5102 14.622 74.3451 13.3964 73.9874 12.1847C73.6296 10.9729 73.2718 9.77497 72.9141 8.59076C72.5563 7.37901 72.3774 6.1948 72.3774 5.03814C72.3774 3.85393 72.6114 2.97266 73.0792 2.39432C73.5746 1.81599 74.4552 1.43043 75.7211 1.23765C76.9871 1.04488 78.7896 0.948486 81.1288 0.948486C83.3029 0.948486 85.2844 1.18257 87.0732 1.65075C88.862 2.09139 90.2793 2.83496 91.325 3.88147C92.3983 4.90044 92.935 6.26365 92.935 7.97111C92.935 8.87992 92.6873 9.6235 92.1919 10.2018C91.6966 10.7526 91.0361 11.028 90.2105 11.028C89.5775 11.028 89.0822 10.8352 88.7244 10.4497C88.3942 10.0366 88.1327 9.51334 87.9401 8.87992C87.7474 8.21897 87.5273 7.54425 87.2796 6.85575C87.0594 6.13972 86.7429 5.465 86.3301 4.83159C85.9173 4.17063 85.3257 3.64738 84.5551 3.26182C83.812 2.84873 82.8076 2.64218 81.5416 2.64218C80.1656 2.64218 79.0648 3.11036 78.2392 4.04671C77.4136 4.95552 77.0008 6.09841 77.0008 7.4754C77.0008 8.87993 77.1935 9.99528 77.5787 10.8215C77.9915 11.6201 78.5144 12.226 79.1474 12.6391C79.8079 13.0247 80.5234 13.3001 81.294 13.4653C82.092 13.603 82.8764 13.7131 83.6469 13.7958C84.445 13.8508 85.1605 13.961 85.7935 14.1262C86.454 14.2639 86.9769 14.5256 87.3621 14.9111C87.7749 15.2691 87.9813 15.8475 87.9813 16.6461C87.9813 17.4999 87.7199 18.147 87.197 18.5877C86.7017 19.0283 86.1513 19.2486 85.5458 19.2486C84.7753 19.2486 83.9909 19.0283 83.1929 18.5877C82.4223 18.147 81.6792 17.5962 80.9637 16.9353C80.2757 16.2743 79.6428 15.5996 79.0648 14.9111C78.5144 14.1951 78.0603 13.5617 77.7026 13.0109C77.3723 12.4325 77.1935 12.047 77.1659 11.8542H77.0008V20.2814C77.0008 21.8236 77.0283 23.2419 77.0834 24.5363C77.1384 25.8306 77.3448 26.9597 77.7026 27.9236C78.0603 28.86 78.6658 29.5898 79.5189 30.113C80.3996 30.6088 81.6517 30.8566 83.2754 30.8566C84.2937 30.8566 85.078 30.6501 85.6284 30.237C86.2063 29.7963 86.6604 29.2731 86.9906 28.6672C87.3209 28.0338 87.6373 27.4004 87.9401 26.767C88.2703 26.1336 88.6694 25.6103 89.1372 25.1972C89.6326 24.7566 90.3343 24.5363 91.2425 24.5363C92.2057 24.5363 92.99 24.8254 93.5955 25.4038C94.2284 25.9545 94.5449 26.6293 94.5449 27.4279C94.5449 28.5846 94.0771 29.5485 93.1414 30.3196C92.2057 31.0632 90.9122 31.614 89.261 31.972C87.6098 32.3575 85.7109 32.5503 83.5644 32.5503C81.3628 32.5503 79.5602 32.4952 78.1567 32.3851C76.7531 32.2749 75.6523 32.0408 74.8543 31.6828C74.0837 31.3248 73.5333 30.7878 73.203 30.0717C72.9003 29.3557 72.749 28.4056 72.749 27.2214Z" fill="url(#paint0_linear)"/>
<path d="M63.8341 9.77569C63.6776 8.407 63.0368 7.33649 61.9116 6.56417C60.7865 5.78206 59.3532 5.39101 57.6117 5.39101C55.792 5.39101 54.3293 5.8065 53.2238 6.63749C52.128 7.46847 51.5801 8.5341 51.5801 9.83435C51.5801 10.3818 51.6975 10.8902 51.9323 11.3595C52.1671 11.8189 52.4557 12.2051 52.7982 12.5179C53.1504 12.821 53.5858 13.1045 54.1043 13.3685C54.6326 13.6325 55.1169 13.8378 55.5572 13.9844C55.9974 14.131 56.4915 14.2728 57.0394 14.4097L59.9745 15.1722C65.737 16.5898 68.6183 19.4054 68.6183 23.619C68.6183 26.2195 67.6253 28.336 65.6392 29.9687C63.6629 31.6013 60.9479 32.4177 57.4943 32.4177C54.1385 32.4177 51.4627 31.6356 49.4668 30.0713C47.471 28.4974 46.3997 26.3466 46.2529 23.619H50.8023C50.9295 25.1832 51.6095 26.3808 52.8422 27.2118C54.0847 28.033 55.6256 28.4436 57.465 28.4436C59.4119 28.4436 61.0066 27.9988 62.2492 27.1091C63.5015 26.2097 64.1276 25.0316 64.1276 23.575C64.1276 23.0568 64.0298 22.5827 63.8341 22.1525C63.6384 21.7224 63.3792 21.3557 63.0563 21.0527C62.7432 20.7496 62.3274 20.471 61.8089 20.2168C61.3002 19.9528 60.7865 19.7329 60.268 19.5569C59.7495 19.3712 59.138 19.1854 58.4336 18.9997L54.8821 18.0318C49.6674 16.624 47.0601 13.9795 47.0601 10.0983C47.0601 8.407 47.5248 6.90145 48.4542 5.58164C49.3935 4.26184 50.6702 3.24999 52.2845 2.54609C53.8988 1.83242 55.7088 1.47559 57.7145 1.47559C60.7474 1.47559 63.2373 2.2528 65.1843 3.80724C67.1312 5.36168 68.1389 7.35116 68.2074 9.77569H63.8341Z" fill="#FF0000"/>
<path d="M123.442 1.87183V31.8903H119.282L104.033 9.87479H103.755V31.8903H99.229V1.87183L103.418 1.87183L118.681 23.9166H118.959V1.87183L123.442 1.87183Z" fill="#3D0202"/>
<path d="M25.4028 17.9097C22.8691 16.3203 23.8846 13.8158 24.709 12.7622C24.6128 12.9026 24.6892 12.8224 25.7647 11.3774C26.8402 9.93247 25.9715 7.84535 25.4028 6.98241C24.9805 5.8987 24.5401 3.46038 26.1568 2.37668C28.1777 1.02207 30.1383 1.17257 31.8878 2.97874C33.2873 4.42368 35.1252 4.0825 35.8693 3.7313C36.9953 2.77804 39.5552 1.44348 40.7858 3.7313C42.3241 6.59107 41.2383 9.51104 40.7858 10.5646C40.3334 11.6182 39.0364 11.829 36.8646 11.7086C35.1273 11.6122 34.64 9.14403 34.3611 7.9156C33.8968 6.85557 32.3342 5.14614 30.1383 6.35026C27.3935 7.8554 28.0872 11.6183 28.4492 12.7622C28.8111 13.9061 31.7671 16.6389 34.3611 14.2372C36.4363 12.3159 37.9203 12.7019 38.7649 13.0632C39.6396 13.304 41.377 13.8278 41.932 16.1638C42.6257 19.0838 41.5481 18.6609 41.2383 20.7093C40.9969 22.3048 42.5353 23.7196 42.7162 25.1946C42.8972 26.6697 42.5148 28.4303 40.3635 30.4927C37.7178 33.0292 32.7926 32.4193 31.3147 32.4193C29.8556 32.4193 27.0919 31.5463 25.7647 30.4927C24.709 29.6546 23.8644 28.2049 23.1405 25.586C22.2146 22.2362 24.1962 21.1006 24.709 20.7093C25.2307 20.3112 27.9666 19.7159 29.2033 20.7093C30.4399 21.7027 30.4399 23.268 30.1383 25.586C29.8367 27.9039 30.4336 28.718 31.3147 29.8004C32.0989 30.7636 36.744 31.1851 37.7394 29.2886C38.7313 27.3986 37.4466 26.5849 35.8853 25.5961L35.8693 25.586C34.3008 24.5926 34.5723 22.7563 35.0549 21.5221C35.5375 20.2879 36.1709 19.7159 35.3565 17.6087C34.705 15.923 32.5513 15.9229 31.3147 16.7959C29.8668 17.9097 27.9364 19.4992 25.4028 17.9097Z" fill="#0501FF"/>
<defs>
<linearGradient id="paint0_linear" x1="77.3323" y1="15.423" x2="83.4612" y2="32.5503" gradientUnits="userSpaceOnUse">
<stop stop-color="#DC5A5A"/>
<stop offset="1" stop-color="white" stop-opacity="0"/>
</linearGradient>
</defs>
</svg>
