<svg width="68" height="18" viewBox="0 0 68 18" fill="none" xmlns="http://www.w3.org/2000/svg">
<path d="M11.3302 2.65406V0.753662L0.93457 0.753662L0.93457 17.1364H11.3302V15.2142H3.14502V9.44743H7.89419V10.4086H10.1484V8.55184H8.44133V7.59072H3.14502V2.65406H11.3302Z" fill="#FF6242"/>
<path d="M40.1189 14.5925C40.1338 13.9116 40.2155 13.2381 40.364 12.572C40.5125 11.8911 40.661 11.2102 40.8095 10.5293C40.9728 9.8484 41.0545 9.1675 41.0545 8.4866C41.0694 7.8205 40.9803 7.1618 40.7872 6.5105C40.5942 5.8592 40.4011 5.21531 40.208 4.57881C40.015 3.92751 39.9185 3.29102 39.9185 2.66932C39.9185 2.03283 40.0447 1.55916 40.2971 1.24831C40.5645 0.937462 41.0397 0.730231 41.7228 0.626615C42.4059 0.522999 43.3786 0.471191 44.6409 0.471191C45.8141 0.471191 46.8834 0.59701 47.8487 0.848648C48.8139 1.08548 49.5787 1.48514 50.1431 2.04763C50.7222 2.59531 51.0118 3.32802 51.0118 4.24576C51.0118 4.73423 50.8782 5.13389 50.6109 5.44474C50.3436 5.74078 49.9871 5.88881 49.5416 5.88881C49.2001 5.88881 48.9328 5.78519 48.7397 5.57796C48.5615 5.35593 48.4204 5.07468 48.3165 4.73423C48.2125 4.37898 48.0937 4.01632 47.96 3.64627C47.8412 3.26141 47.6705 2.89876 47.4477 2.55831C47.2249 2.20305 46.9056 1.92181 46.4898 1.71458C46.0889 1.49255 45.5468 1.38153 44.8637 1.38153C44.1212 1.38153 43.5271 1.63317 43.0816 2.13644C42.6361 2.62492 42.4134 3.23921 42.4134 3.97932C42.4134 4.73423 42.5173 5.33372 42.7252 5.77779C42.948 6.20705 43.2301 6.5327 43.5717 6.75474C43.9281 6.96197 44.3142 7.10999 44.73 7.1988C45.1607 7.27281 45.5839 7.33202 45.9998 7.37643C46.4304 7.40603 46.8165 7.46524 47.1581 7.55406C47.5145 7.62807 47.7967 7.76869 48.0046 7.97592C48.2273 8.16835 48.3387 8.4792 48.3387 8.90846C48.3387 9.36733 48.1976 9.71518 47.9155 9.95202C47.6482 10.1889 47.3512 10.3073 47.0245 10.3073C46.6086 10.3073 46.1854 10.1889 45.7547 9.95202C45.3389 9.71518 44.9379 9.41914 44.5518 9.06388C44.1806 8.70863 43.839 8.34598 43.5271 7.97592C43.2301 7.59106 42.9851 7.25061 42.792 6.95457C42.6138 6.64372 42.5173 6.43649 42.5025 6.33287H42.4134V10.8624C42.4134 11.6913 42.4282 12.4536 42.4579 13.1493C42.4876 13.845 42.599 14.4519 42.792 14.97C42.9851 15.4732 43.3118 15.8655 43.7722 16.1467C44.2474 16.4132 44.9231 16.5464 45.7993 16.5464C46.3488 16.5464 46.772 16.4354 47.069 16.2134C47.3809 15.9765 47.6259 15.6953 47.8041 15.3696C47.9823 15.0292 48.1531 14.6887 48.3165 14.3483C48.4947 14.0078 48.71 13.7266 48.9625 13.5046C49.2298 13.2677 49.6085 13.1493 50.0985 13.1493C50.6183 13.1493 51.0415 13.3047 51.3682 13.6156C51.7098 13.9116 51.8806 14.2743 51.8806 14.7035C51.8806 15.3252 51.6281 15.8433 51.1232 16.2578C50.6183 16.6574 49.9203 16.9535 49.0293 17.1459C48.1382 17.3531 47.1136 17.4567 45.9552 17.4567C44.7672 17.4567 43.7945 17.4271 43.0371 17.3679C42.2797 17.3087 41.6857 17.1829 41.255 16.9905C40.8392 16.798 40.5422 16.5094 40.364 16.1245C40.2006 15.7397 40.1189 15.229 40.1189 14.5925Z" fill="#FF6242"/>
<path d="M35.3081 5.21534C35.2236 4.47969 34.8778 3.90431 34.2706 3.48919C33.6635 3.06882 32.89 2.85864 31.9503 2.85864C30.9683 2.85864 30.179 3.08196 29.5824 3.5286C28.9911 3.97525 28.6955 4.548 28.6955 5.24687C28.6955 5.54113 28.7588 5.81437 28.8855 6.0666C29.0123 6.31356 29.168 6.52112 29.3528 6.68927C29.5428 6.85216 29.7778 7.00455 30.0576 7.14643C30.3427 7.2883 30.604 7.39865 30.8416 7.47747C31.0792 7.55629 31.3458 7.63248 31.6414 7.70605L33.2253 8.11591C36.3349 8.87783 37.8897 10.3912 37.8897 12.6559C37.8897 14.0537 37.3539 15.1913 36.2821 16.0688C35.2157 16.9463 33.7506 17.3851 31.8869 17.3851C30.0761 17.3851 28.6321 16.9647 27.5551 16.124C26.4781 15.278 25.9 14.122 25.8208 12.6559H28.2758C28.3444 13.4967 28.7113 14.1404 29.3765 14.587C30.047 15.0284 30.8786 15.2491 31.8711 15.2491C32.9217 15.2491 33.7823 15.01 34.4528 14.5318C35.1286 14.0484 35.4664 13.4152 35.4664 12.6323C35.4664 12.3538 35.4136 12.0989 35.3081 11.8677C35.2025 11.6365 35.0626 11.4395 34.8883 11.2766C34.7194 11.1137 34.495 10.9639 34.2152 10.8273C33.9407 10.6854 33.6635 10.5672 33.3837 10.4726C33.1039 10.3728 32.7739 10.2729 32.3938 10.1731L30.4773 9.65289C27.6633 8.89622 26.2564 7.47484 26.2564 5.38875C26.2564 4.47969 26.5071 3.67048 27.0087 2.9611C27.5155 2.25172 28.2045 1.70787 29.0756 1.32953C29.9467 0.945945 30.9234 0.75415 32.0057 0.75415C33.6424 0.75415 34.986 1.17189 36.0366 2.00738C37.0873 2.84287 37.631 3.91219 37.668 5.21534H35.3081Z" fill="#FF6242"/>
<path d="M67.4745 0.967529V17.102H65.2296L57.0013 5.26901H56.8511V17.102H54.4087V0.967529L56.6693 0.967529L64.9056 12.8163H65.0558V0.967529H67.4745Z" fill="#FF6242"/>
<path d="M14.5687 9.58729C13.2015 8.73299 13.7495 7.38683 14.1944 6.82053C14.1424 6.89604 14.1836 6.85289 14.764 6.07625C15.3444 5.29961 14.8756 4.17781 14.5687 3.71399C14.3408 3.13152 14.1032 1.82095 14.9756 1.23848C16.0662 0.510389 17.1241 0.591283 18.0682 1.56208C18.8234 2.33871 19.8152 2.15533 20.2167 1.96657C20.8244 1.4542 22.2057 0.736896 22.8698 1.96657C23.6999 3.50365 23.114 5.0731 22.8698 5.6394C22.6257 6.20569 21.9258 6.31895 20.7538 6.25423C19.8163 6.20246 19.5534 4.87584 19.4029 4.21557C19.1523 3.64582 18.3091 2.72703 17.1241 3.37422C15.643 4.18321 16.0173 6.2057 16.2127 6.82053C16.408 7.43537 18.0031 8.9042 19.4029 7.61335C20.5227 6.58066 21.3235 6.78816 21.7793 6.98232C22.2513 7.11176 23.1888 7.3933 23.4883 8.64886C23.8627 10.2183 23.2811 9.99102 23.114 11.092C22.9837 11.9495 23.8139 12.71 23.9115 13.5028C24.0092 14.2956 23.8028 15.2419 22.6419 16.3505C21.2142 17.7138 18.5565 17.386 17.7589 17.386C16.9716 17.386 15.4802 16.9168 14.764 16.3505C14.1944 15.9 13.7386 15.1208 13.348 13.7132C12.8483 11.9127 13.9176 11.3023 14.1944 11.092C14.4759 10.8781 15.9522 10.5581 16.6196 11.092C17.2869 11.626 17.2869 12.4673 17.1241 13.7132C16.9614 14.959 17.2835 15.3966 17.7589 15.9783C18.1821 16.4961 20.6887 16.7226 21.2259 15.7033C21.7612 14.6874 21.0679 14.2501 20.2254 13.7186L20.2167 13.7132C19.3703 13.1792 19.5168 12.1922 19.7772 11.5289C20.0377 10.8655 20.3795 10.5581 19.94 9.42549C19.5884 8.51942 18.4263 8.51941 17.7589 8.98863C16.9777 9.58729 15.936 10.4416 14.5687 9.58729Z" fill="#FF6242"/>
</svg>
