<svg width="334" height="87" viewBox="0 0 334 87" fill="none" xmlns="http://www.w3.org/2000/svg">
<path d="M52.0362 12.2195V2.67383L0 2.67383L0 84.9637H52.0362V75.3083H11.0645V46.3423H34.8369V51.17H46.1205V41.8438H37.5756V37.0161H11.0645L11.0645 12.2195L52.0362 12.2195Z" fill="#272727"/>
<path d="M196.442 71.0873C196.517 67.7886 196.926 64.5257 197.669 61.2986C198.413 57.9999 199.157 54.7011 199.9 51.4023C200.718 48.1036 201.127 44.8048 201.127 41.506C201.202 38.279 200.756 35.0878 199.789 31.9324C198.822 28.7771 197.855 25.6576 196.889 22.574C195.922 19.4187 195.438 16.335 195.438 13.3231C195.438 10.2395 196.071 7.94469 197.335 6.43873C198.673 4.93277 201.053 3.92879 204.474 3.42681C207.895 2.92482 212.766 2.67383 219.087 2.67383C224.962 2.67383 230.316 3.28338 235.15 4.50249C239.984 5.64989 243.814 7.58612 246.64 10.3112C249.54 12.9645 250.99 16.5143 250.99 20.9605C250.99 23.327 250.321 25.2632 248.982 26.7692C247.644 28.2034 245.859 28.9205 243.628 28.9205C241.918 28.9205 240.579 28.4185 239.612 27.4146C238.72 26.3389 238.013 24.9764 237.493 23.327C236.972 21.6059 236.377 19.8489 235.708 18.0561C235.113 16.1916 234.258 14.4346 233.142 12.7853C232.027 11.0642 230.428 9.70164 228.346 8.69767C226.338 7.62198 223.623 7.08413 220.203 7.08413C216.484 7.08413 213.51 8.30325 211.279 10.7415C209.048 13.108 207.932 16.084 207.932 19.6696C207.932 23.327 208.453 26.2313 209.494 28.3827C210.609 30.4623 212.022 32.04 213.733 33.1157C215.517 34.1197 217.451 34.8368 219.533 35.2671C221.69 35.6256 223.809 35.9125 225.892 36.1276C228.048 36.271 229.982 36.5579 231.692 36.9882C233.477 37.3467 234.89 38.028 235.931 39.032C237.047 39.9642 237.604 41.4702 237.604 43.5498C237.604 45.7729 236.898 47.4582 235.485 48.6056C234.146 49.7529 232.659 50.3266 231.023 50.3266C228.941 50.3266 226.821 49.7529 224.664 48.6056C222.582 47.4582 220.574 46.0239 218.641 44.3028C216.782 42.5817 215.071 40.8248 213.51 39.032C212.022 37.1674 210.795 35.5181 209.828 34.0838C208.936 32.5779 208.453 31.5739 208.378 31.0719H207.932V53.0159C207.932 57.0317 208.006 60.7249 208.155 64.0954C208.304 67.4659 208.862 70.4061 209.828 72.916C210.795 75.3542 212.431 77.2546 214.737 78.6171C217.116 79.908 220.5 80.5534 224.888 80.5534C227.639 80.5534 229.759 80.0155 231.246 78.9398C232.808 77.7924 234.035 76.4299 234.927 74.8522C235.819 73.2029 236.675 71.5535 237.493 69.9041C238.385 68.2547 239.463 66.8922 240.728 65.8165C242.066 64.6691 243.963 64.0954 246.417 64.0954C249.02 64.0954 251.139 64.8484 252.775 66.3543C254.485 67.7886 255.341 69.5455 255.341 71.6252C255.341 74.6371 254.076 77.147 251.548 79.155C249.02 81.0912 245.524 82.5255 241.062 83.4577C236.6 84.4617 231.469 84.9637 225.668 84.9637C219.719 84.9637 214.848 84.8203 211.055 84.5334C207.263 84.2466 204.288 83.637 202.131 82.7048C200.049 81.7725 198.562 80.3741 197.669 78.5096C196.851 76.6451 196.442 74.171 196.442 71.0873Z" fill="#272727"/>
<path d="M172.555 24.0246C172.123 20.3043 170.355 17.3945 167.25 15.2952C164.146 13.1693 160.19 12.1064 155.385 12.1064C150.363 12.1064 146.327 13.2357 143.276 15.4945C140.252 17.7532 138.74 20.6497 138.74 24.184C138.74 25.6721 139.064 27.0539 139.712 28.3295C140.36 29.5784 141.157 30.6281 142.102 31.4784C143.074 32.3022 144.275 33.0728 145.706 33.7903C147.164 34.5078 148.5 35.0658 149.715 35.4645C150.93 35.8631 152.293 36.2484 153.805 36.6204L161.905 38.6931C177.807 42.5463 185.757 50.1994 185.757 61.6526C185.757 68.7212 183.017 74.4743 177.537 78.9121C172.083 83.3499 164.591 85.5688 155.061 85.5688C145.8 85.5688 138.416 83.4429 132.909 79.1911C127.401 74.9128 124.445 69.0666 124.04 61.6526H136.594C136.945 65.9044 138.821 69.1596 142.223 71.4184C145.652 73.6505 149.904 74.7666 154.98 74.7666C160.352 74.7666 164.753 73.5575 168.182 71.1393C171.637 68.6946 173.365 65.4925 173.365 61.533C173.365 60.1246 173.095 58.8358 172.555 57.6666C172.015 56.4974 171.3 55.5009 170.409 54.6771C169.545 53.8533 168.398 53.096 166.967 52.405C165.563 51.6876 164.146 51.0897 162.715 50.6113C161.284 50.1064 159.596 49.6015 157.653 49.0966L147.852 46.4659C133.462 42.6393 126.267 35.4512 126.267 24.9015C126.267 20.3043 127.55 16.212 130.115 12.6245C132.706 9.03713 136.23 6.28677 140.684 4.37348C145.139 2.43362 150.134 1.46368 155.668 1.46368C164.038 1.46368 170.909 3.57628 176.281 7.80146C181.654 12.0266 184.435 17.4343 184.624 24.0246H172.555Z" fill="#272727"/>
<path d="M334 2.67383V84.9637H322.565L280.649 24.6124H279.884V84.9637H267.442V2.67383L278.958 2.67383L320.914 63.1054H321.679V2.67383L334 2.67383Z" fill="#272727"/>
<path d="M67.6065 46.0754C60.4269 41.7023 63.3044 34.8113 65.6406 31.9124C65.3679 32.2989 65.5844 32.0781 68.6321 28.1024C71.6797 24.1268 69.2182 18.3843 67.6065 16.01C66.4098 13.0284 65.1619 6.31958 69.7432 3.33791C75.4698 -0.389169 81.0254 0.0249262 85.9827 4.9944C89.9486 8.96999 95.1567 8.03129 97.265 7.06499C100.456 4.44221 107.71 0.77032 111.197 7.06499C115.556 14.9333 112.479 22.9673 111.197 25.8662C109.915 28.765 106.239 29.3448 100.085 29.0135C95.1624 28.7485 93.7818 21.9575 92.9914 18.5776C91.6758 15.6611 87.2477 10.9578 81.0254 14.2708C73.2475 18.412 75.2134 28.7651 76.239 31.9124C77.2647 35.0597 85.6409 42.5787 92.9914 35.9708C98.8718 30.6845 103.077 31.7467 105.47 32.7406C107.949 33.4032 112.872 34.8444 114.445 41.2716C116.411 49.3056 113.357 48.1421 112.479 53.7781C111.795 58.1678 116.154 62.0606 116.667 66.119C117.18 70.1774 116.096 75.0214 110 80.6961C102.503 87.675 88.5469 85.9969 84.3588 85.9969C80.2242 85.9969 72.3928 83.595 68.6321 80.6961C65.6406 78.3902 63.2473 74.4014 61.1961 67.1957C58.5724 57.9792 64.1874 54.8548 65.6406 53.7781C67.1189 52.6828 74.8715 51.0449 78.3758 53.7781C81.8801 56.5113 81.8801 60.8182 81.0254 67.1957C80.1707 73.5732 81.8621 75.8133 84.3588 78.7911C86.5809 81.4415 99.7436 82.6011 102.564 77.3831C105.375 72.183 101.734 69.9442 97.3105 67.2237L97.265 67.1957C92.8204 64.4625 93.5897 59.4102 94.9572 56.0144C96.3248 52.6186 98.1197 51.0449 95.8119 45.2472C93.9658 40.609 87.8631 40.609 84.3588 43.0109C80.2562 46.0754 74.786 50.4486 67.6065 46.0754Z" fill="#272727"/>
</svg>
