<svg width="331" height="185" viewBox="0 0 331 185" fill="none" xmlns="http://www.w3.org/2000/svg">
<path d="M108.992 89.2484V83.6481H77.5381V131.927H108.992V126.262H84.2262V109.268H98.5958V112.1H105.416V106.629H100.251V103.796H84.2262V89.2484H108.992Z" fill="#FFCC11"/>
<path d="M196.281 123.785C196.326 121.85 196.573 119.936 197.023 118.043C197.472 116.107 197.922 114.172 198.371 112.236C198.866 110.301 199.113 108.366 199.113 106.43C199.158 104.537 198.888 102.665 198.304 100.814C197.72 98.9625 197.135 97.1324 196.551 95.3233C195.966 93.4721 195.674 91.6629 195.674 89.8959C195.674 88.0867 196.056 86.7404 196.821 85.8569C197.63 84.9734 199.068 84.3843 201.136 84.0898C203.204 83.7953 206.148 83.6481 209.969 83.6481C213.52 83.6481 216.757 84.0057 219.679 84.7209C222.601 85.3941 224.916 86.5301 226.624 88.1288C228.377 89.6855 229.253 91.7681 229.253 94.3766C229.253 95.765 228.849 96.901 228.04 97.7845C227.231 98.626 226.152 99.0467 224.803 99.0467C223.769 99.0467 222.96 98.7522 222.376 98.1632C221.836 97.5321 221.409 96.7327 221.095 95.765C220.78 94.7553 220.42 93.7245 220.016 92.6727C219.656 91.5788 219.139 90.548 218.465 89.5803C217.791 88.5706 216.824 87.7712 215.566 87.1822C214.352 86.5511 212.711 86.2355 210.643 86.2355C208.396 86.2355 206.598 86.9508 205.249 88.3813C203.901 89.7697 203.226 91.5157 203.226 93.6193C203.226 95.765 203.541 97.469 204.17 98.7311C204.845 99.9513 205.699 100.877 206.733 101.508C207.811 102.097 208.98 102.518 210.239 102.77C211.542 102.98 212.824 103.149 214.082 103.275C215.386 103.359 216.555 103.527 217.588 103.78C218.667 103.99 219.521 104.39 220.151 104.979C220.825 105.526 221.162 106.409 221.162 107.63C221.162 108.934 220.735 109.922 219.881 110.596C219.072 111.269 218.173 111.605 217.184 111.605C215.925 111.605 214.644 111.269 213.34 110.596C212.082 109.922 210.868 109.081 209.699 108.071C208.576 107.062 207.542 106.031 206.598 104.979C205.699 103.885 204.957 102.917 204.373 102.076C203.833 101.192 203.541 100.603 203.496 100.309H203.226V113.183C203.226 115.539 203.271 117.706 203.361 119.683C203.451 121.661 203.788 123.386 204.373 124.858C204.957 126.289 205.946 127.404 207.339 128.203C208.778 128.96 210.823 129.339 213.475 129.339C215.139 129.339 216.42 129.023 217.319 128.392C218.263 127.719 219.004 126.92 219.544 125.994C220.083 125.027 220.6 124.059 221.095 123.091C221.634 122.124 222.286 121.324 223.05 120.693C223.859 120.02 225.006 119.683 226.489 119.683C228.062 119.683 229.343 120.125 230.332 121.009C231.366 121.85 231.883 122.881 231.883 124.101C231.883 125.868 231.119 127.341 229.591 128.519C228.062 129.655 225.949 130.496 223.252 131.043C220.555 131.632 217.454 131.927 213.947 131.927C210.351 131.927 207.407 131.842 205.114 131.674C202.822 131.506 201.024 131.148 199.72 130.601C198.461 130.054 197.562 129.234 197.023 128.14C196.528 127.046 196.281 125.595 196.281 123.785Z" fill="#4AB15E"/>
<path d="M181.633 96.2596C181.377 94.0593 180.329 92.3384 178.489 91.0969C176.649 89.8396 174.305 89.2109 171.457 89.2109C168.481 89.2109 166.089 89.8789 164.281 91.2147C162.489 92.5506 161.593 94.2636 161.593 96.3539C161.593 97.234 161.785 98.0512 162.169 98.8056C162.553 99.5442 163.025 100.165 163.585 100.668C164.161 101.155 164.873 101.611 165.721 102.035C166.585 102.46 167.377 102.79 168.097 103.025C168.817 103.261 169.625 103.489 170.521 103.709L175.321 104.935C184.745 107.214 189.456 111.74 189.456 118.514C189.456 122.694 187.832 126.097 184.585 128.721C181.353 131.346 176.913 132.658 171.265 132.658C165.777 132.658 161.401 131.401 158.138 128.886C154.874 126.356 153.122 122.898 152.882 118.514H160.322C160.53 121.028 161.641 122.953 163.657 124.289C165.689 125.609 168.209 126.269 171.217 126.269C174.401 126.269 177.009 125.554 179.041 124.124C181.089 122.678 182.113 120.785 182.113 118.443C182.113 117.61 181.953 116.848 181.633 116.156C181.313 115.465 180.889 114.875 180.361 114.388C179.849 113.901 179.169 113.453 178.321 113.044C177.489 112.62 176.649 112.266 175.801 111.984C174.953 111.685 173.953 111.386 172.801 111.088L166.993 109.532C158.466 107.269 154.202 103.018 154.202 96.7782C154.202 94.0593 154.962 91.6391 156.482 89.5174C158.018 87.3957 160.106 85.7691 162.745 84.6375C165.385 83.4903 168.345 82.9166 171.625 82.9166C176.585 82.9166 180.657 84.1661 183.841 86.6649C187.025 89.1638 188.672 92.362 188.784 96.2596H181.633Z" fill="#FF6242"/>
<path d="M279.43 83.6481V131.927H272.518L247.181 96.5192H246.718V131.927H239.198V83.6481H246.159L271.52 119.103H271.982V83.6481H279.43Z" fill="#272727"/>
<path d="M118.951 109.279C114.798 106.73 116.462 102.712 117.814 101.022C117.656 101.247 117.781 101.119 119.544 98.8006C121.307 96.4827 119.883 93.1347 118.951 91.7504C118.259 90.012 117.537 86.1005 120.187 84.3621C123.5 82.1891 126.713 82.4305 129.581 85.3279C131.875 87.6458 134.888 87.0985 136.107 86.5351C137.953 85.006 142.149 82.8651 144.166 86.5351C146.688 91.1226 144.908 95.8067 144.166 97.4968C143.425 99.1869 141.299 99.525 137.739 99.3318C134.891 99.1773 134.092 95.2179 133.635 93.2474C132.874 91.5469 130.313 88.8047 126.713 90.7363C122.214 93.1508 123.351 99.1869 123.945 101.022C124.538 102.857 129.383 107.241 133.635 103.388C137.037 100.306 139.469 100.925 140.854 101.505C142.288 101.891 145.136 102.731 146.045 106.479C147.182 111.163 145.416 110.484 144.908 113.77C144.513 116.33 147.034 118.599 147.331 120.965C147.627 123.332 147.001 126.156 143.474 129.464C139.137 133.533 131.064 132.555 128.642 132.555C126.25 132.555 121.72 131.154 119.544 129.464C117.814 128.12 116.429 125.794 115.243 121.593C113.725 116.22 116.973 114.398 117.814 113.77C118.669 113.132 123.153 112.177 125.181 113.77C127.208 115.364 127.208 117.875 126.713 121.593C126.219 125.311 127.197 126.617 128.642 128.354C129.927 129.899 137.541 130.575 139.173 127.533C140.799 124.501 138.693 123.196 136.134 121.61L136.107 121.593C133.536 120 133.981 117.054 134.772 115.074C135.563 113.094 136.602 112.177 135.267 108.797C134.199 106.092 130.669 106.092 128.642 107.493C126.268 109.279 123.104 111.829 118.951 109.279Z" fill="#9897DE"/>
<rect x="77.1723" y="82.5509" width="202.257" height="50.4729" stroke="#AFADA4" stroke-width="0.731492"/>
<rect x="25.9678" y="31.3465" width="51.2044" height="51.2044" stroke="#AFADA4" stroke-width="0.731492"/>
<rect x="25.9678" y="31.3465" width="304.666" height="152.882" stroke="#AFADA4" stroke-width="0.731492"/>
<rect x="25.9678" y="133.024" width="51.2044" height="51.2044" stroke="#AFADA4" stroke-width="0.731492"/>
<rect x="279.43" y="133.024" width="51.2044" height="51.2044" stroke="#AFADA4" stroke-width="0.731492"/>
<rect x="279.43" y="31.3465" width="51.2044" height="51.2044" stroke="#AFADA4" stroke-width="0.731492"/>
<mask id="mask0" mask-type="alpha" maskUnits="userSpaceOnUse" x="25" y="30" width="53" height="53">
<rect x="25.6021" y="30.9807" width="51.9359" height="51.9359" fill="#C4C4C4"/>
</mask>
<g mask="url(#mask0)">
<rect x="-21.5312" y="73.6703" width="122.891" height="0.73149" transform="rotate(-45 -21.5312 73.6703)" fill="#AFADA4"/>
<rect x="-16.876" y="78.3254" width="122.891" height="0.73149" transform="rotate(-45 -16.876 78.3254)" fill="#AFADA4"/>
<rect x="-12.2212" y="82.9805" width="122.891" height="0.73149" transform="rotate(-45 -12.2212 82.9805)" fill="#AFADA4"/>
<rect x="-7.56543" y="87.636" width="122.891" height="0.73149" transform="rotate(-45 -7.56543 87.636)" fill="#AFADA4"/>
<rect x="-2.91064" y="92.2909" width="122.891" height="0.73149" transform="rotate(-45 -2.91064 92.2909)" fill="#AFADA4"/>
<rect x="1.74463" y="96.9462" width="122.891" height="0.73149" transform="rotate(-45 1.74463 96.9462)" fill="#AFADA4"/>
<rect x="6.3999" y="101.601" width="122.891" height="0.73149" transform="rotate(-45 6.3999 101.601)" fill="#AFADA4"/>
<rect x="11.0552" y="106.257" width="122.891" height="0.73149" transform="rotate(-45 11.0552 106.257)" fill="#AFADA4"/>
<rect x="15.71" y="110.912" width="122.891" height="0.73149" transform="rotate(-45 15.71 110.912)" fill="#AFADA4"/>
<rect x="20.3657" y="115.567" width="122.891" height="0.73149" transform="rotate(-45 20.3657 115.567)" fill="#AFADA4"/>
<rect x="25.0205" y="120.222" width="122.891" height="0.73149" transform="rotate(-45 25.0205 120.222)" fill="#AFADA4"/>
<rect x="29.6758" y="124.877" width="122.891" height="0.73149" transform="rotate(-45 29.6758 124.877)" fill="#AFADA4"/>
<rect x="34.3311" y="129.532" width="122.891" height="0.73149" transform="rotate(-45 34.3311 129.532)" fill="#AFADA4"/>
</g>
<mask id="mask1" mask-type="alpha" maskUnits="userSpaceOnUse" x="25" y="132" width="53" height="53">
<rect x="25.6021" y="132.658" width="51.9359" height="51.9359" fill="#C4C4C4"/>
</mask>
<g mask="url(#mask1)">
<rect x="-21.5312" y="175.348" width="122.891" height="0.73149" transform="rotate(-45 -21.5312 175.348)" fill="#AFADA4"/>
<rect x="-16.876" y="180.003" width="122.891" height="0.73149" transform="rotate(-45 -16.876 180.003)" fill="#AFADA4"/>
<rect x="-12.2212" y="184.658" width="122.891" height="0.73149" transform="rotate(-45 -12.2212 184.658)" fill="#AFADA4"/>
<rect x="-7.56543" y="189.313" width="122.891" height="0.73149" transform="rotate(-45 -7.56543 189.313)" fill="#AFADA4"/>
<rect x="-2.91064" y="193.969" width="122.891" height="0.73149" transform="rotate(-45 -2.91064 193.969)" fill="#AFADA4"/>
<rect x="1.74463" y="198.624" width="122.891" height="0.73149" transform="rotate(-45 1.74463 198.624)" fill="#AFADA4"/>
<rect x="6.3999" y="203.279" width="122.891" height="0.73149" transform="rotate(-45 6.3999 203.279)" fill="#AFADA4"/>
<rect x="11.0552" y="207.934" width="122.891" height="0.73149" transform="rotate(-45 11.0552 207.934)" fill="#AFADA4"/>
<rect x="15.71" y="212.589" width="122.891" height="0.73149" transform="rotate(-45 15.71 212.589)" fill="#AFADA4"/>
<rect x="20.3657" y="217.244" width="122.891" height="0.73149" transform="rotate(-45 20.3657 217.244)" fill="#AFADA4"/>
<rect x="25.0205" y="221.9" width="122.891" height="0.73149" transform="rotate(-45 25.0205 221.9)" fill="#AFADA4"/>
<rect x="29.6758" y="226.555" width="122.891" height="0.73149" transform="rotate(-45 29.6758 226.555)" fill="#AFADA4"/>
<rect x="34.3311" y="231.21" width="122.891" height="0.73149" transform="rotate(-45 34.3311 231.21)" fill="#AFADA4"/>
</g>
<mask id="mask2" mask-type="alpha" maskUnits="userSpaceOnUse" x="279" y="132" width="52" height="53">
<rect x="279.064" y="132.658" width="51.9359" height="51.9359" fill="#C4C4C4"/>
</mask>
<g mask="url(#mask2)">
<rect x="231.931" y="175.348" width="122.891" height="0.73149" transform="rotate(-45 231.931 175.348)" fill="#AFADA4"/>
<rect x="236.587" y="180.003" width="122.891" height="0.73149" transform="rotate(-45 236.587 180.003)" fill="#AFADA4"/>
<rect x="241.241" y="184.658" width="122.891" height="0.73149" transform="rotate(-45 241.241 184.658)" fill="#AFADA4"/>
<rect x="245.897" y="189.313" width="122.891" height="0.73149" transform="rotate(-45 245.897 189.313)" fill="#AFADA4"/>
<rect x="250.552" y="193.969" width="122.891" height="0.73149" transform="rotate(-45 250.552 193.969)" fill="#AFADA4"/>
<rect x="255.207" y="198.624" width="122.891" height="0.73149" transform="rotate(-45 255.207 198.624)" fill="#AFADA4"/>
<rect x="259.862" y="203.279" width="122.891" height="0.73149" transform="rotate(-45 259.862 203.279)" fill="#AFADA4"/>
<rect x="264.518" y="207.934" width="122.891" height="0.73149" transform="rotate(-45 264.518 207.934)" fill="#AFADA4"/>
<rect x="269.172" y="212.589" width="122.891" height="0.73149" transform="rotate(-45 269.172 212.589)" fill="#AFADA4"/>
<rect x="273.828" y="217.244" width="122.891" height="0.73149" transform="rotate(-45 273.828 217.244)" fill="#AFADA4"/>
<rect x="278.483" y="221.899" width="122.891" height="0.73149" transform="rotate(-45 278.483 221.899)" fill="#AFADA4"/>
<rect x="283.138" y="226.555" width="122.891" height="0.73149" transform="rotate(-45 283.138 226.555)" fill="#AFADA4"/>
<rect x="287.793" y="231.21" width="122.891" height="0.73149" transform="rotate(-45 287.793 231.21)" fill="#AFADA4"/>
</g>
<mask id="mask3" mask-type="alpha" maskUnits="userSpaceOnUse" x="279" y="30" width="52" height="53">
<rect x="279.064" y="30.9807" width="51.9359" height="51.9359" fill="#C4C4C4"/>
</mask>
<g mask="url(#mask3)">
<rect x="231.931" y="73.6703" width="122.891" height="0.73149" transform="rotate(-45 231.931 73.6703)" fill="#AFADA4"/>
<rect x="236.587" y="78.3254" width="122.891" height="0.73149" transform="rotate(-45 236.587 78.3254)" fill="#AFADA4"/>
<rect x="241.241" y="82.9806" width="122.891" height="0.73149" transform="rotate(-45 241.241 82.9806)" fill="#AFADA4"/>
<rect x="245.897" y="87.6361" width="122.891" height="0.73149" transform="rotate(-45 245.897 87.6361)" fill="#AFADA4"/>
<rect x="250.552" y="92.291" width="122.891" height="0.73149" transform="rotate(-45 250.552 92.291)" fill="#AFADA4"/>
<rect x="255.207" y="96.9463" width="122.891" height="0.73149" transform="rotate(-45 255.207 96.9463)" fill="#AFADA4"/>
<rect x="259.862" y="101.601" width="122.891" height="0.73149" transform="rotate(-45 259.862 101.601)" fill="#AFADA4"/>
<rect x="264.518" y="106.257" width="122.891" height="0.73149" transform="rotate(-45 264.518 106.257)" fill="#AFADA4"/>
<rect x="269.172" y="110.912" width="122.891" height="0.73149" transform="rotate(-45 269.172 110.912)" fill="#AFADA4"/>
<rect x="273.828" y="115.567" width="122.891" height="0.73149" transform="rotate(-45 273.828 115.567)" fill="#AFADA4"/>
<rect x="278.483" y="120.222" width="122.891" height="0.73149" transform="rotate(-45 278.483 120.222)" fill="#AFADA4"/>
<rect x="283.138" y="124.877" width="122.891" height="0.73149" transform="rotate(-45 283.138 124.877)" fill="#AFADA4"/>
<rect x="287.793" y="129.532" width="122.891" height="0.73149" transform="rotate(-45 287.793 129.532)" fill="#AFADA4"/>
</g>
<line x1="26.3335" y1="82.5509" x2="10.2407" y2="82.5509" stroke="#AFADA4" stroke-width="0.731492"/>
<line x1="26.3335" y1="31.3465" x2="10.2407" y2="31.3465" stroke="#AFADA4" stroke-width="0.731492"/>
<line x1="77.1723" y1="31.7122" x2="77.1723" y2="15.6193" stroke="#AFADA4" stroke-width="0.731492"/>
<line x1="25.9678" y1="31.7122" x2="25.9678" y2="15.6193" stroke="#AFADA4" stroke-width="0.731492"/>
<line x1="26.3335" y1="133.024" x2="10.2407" y2="133.024" stroke="#AFADA4" stroke-width="0.731492"/>
<path d="M10.4993 85.584C10.3565 85.4412 10.1249 85.4412 9.9821 85.584L7.65451 87.9116C7.51168 88.0545 7.51168 88.286 7.65451 88.4289C7.79734 88.5717 8.02892 88.5717 8.17175 88.4289L10.2407 86.3599L12.3097 88.4289C12.4525 88.5717 12.6841 88.5717 12.8269 88.4289C12.9698 88.286 12.9698 88.0545 12.8269 87.9116L10.4993 85.584ZM9.9821 129.259C10.1249 129.402 10.3565 129.402 10.4993 129.259L12.8269 126.932C12.9698 126.789 12.9698 126.557 12.8269 126.414C12.6841 126.272 12.4525 126.272 12.3097 126.414L10.2407 128.483L8.17175 126.414C8.02892 126.272 7.79734 126.272 7.65451 126.414C7.51168 126.557 7.51168 126.789 7.65451 126.932L9.9821 129.259ZM9.87498 85.8427L9.87498 129.001L10.6065 129.001L10.6065 85.8427L9.87498 85.8427Z" fill="#AFADA4"/>
<path d="M10.4993 34.3797C10.3565 34.2369 10.1249 34.2369 9.9821 34.3797L7.65451 36.7073C7.51168 36.8501 7.51168 37.0817 7.65451 37.2245C7.79734 37.3674 8.02892 37.3674 8.17175 37.2245L10.2407 35.1555L12.3097 37.2245C12.4525 37.3674 12.6841 37.3674 12.8269 37.2245C12.9698 37.0817 12.9698 36.8501 12.8269 36.7073L10.4993 34.3797ZM9.9821 78.7864C10.1249 78.9293 10.3565 78.9293 10.4993 78.7864L12.8269 76.4588C12.9698 76.316 12.9698 76.0844 12.8269 75.9416C12.6841 75.7988 12.4525 75.7988 12.3097 75.9416L10.2407 78.0106L8.17175 75.9416C8.02892 75.7988 7.79734 75.7988 7.65451 75.9416C7.51168 76.0844 7.51168 76.316 7.65451 76.4588L9.9821 78.7864ZM9.87498 34.6383L9.87498 78.5278L10.6065 78.5278L10.6065 34.6383L9.87498 34.6383Z" fill="#AFADA4"/>
<path d="M74.139 15.878C74.2818 15.7352 74.2818 15.5036 74.139 15.3608L71.8114 13.0332C71.6686 12.8903 71.437 12.8903 71.2942 13.0332C71.1513 13.176 71.1513 13.4076 71.2942 13.5504L73.3631 15.6194L71.2942 17.6884C71.1513 17.8312 71.1513 18.0628 71.2942 18.2056C71.437 18.3484 71.6686 18.3484 71.8114 18.2056L74.139 15.878ZM29.7323 15.3608C29.5894 15.5036 29.5894 15.7352 29.7323 15.878L32.0598 18.2056C32.2027 18.3484 32.4343 18.3484 32.5771 18.2056C32.7199 18.0628 32.7199 17.8312 32.5771 17.6884L30.5081 15.6194L32.5771 13.5504C32.7199 13.4076 32.7199 13.176 32.5771 13.0332C32.4343 12.8903 32.2027 12.8903 32.0598 13.0332L29.7323 15.3608ZM73.8804 15.2536L29.9909 15.2536V15.9851L73.8804 15.9851V15.2536Z" fill="#AFADA4"/>
<path d="M1.42869 108.061V110.667H0.574335V104.815H1.41727V106.992H1.47156C1.69443 106.478 2.1278 106.221 2.77167 106.221C3.23456 106.221 3.60031 106.363 3.8689 106.646C4.1394 106.93 4.27465 107.34 4.27465 107.875V110.667H3.42029V107.978C3.42029 107.658 3.33743 107.408 3.1717 107.229C3.00597 107.05 2.77548 106.961 2.48021 106.961C2.16781 106.961 1.91445 107.059 1.72015 107.255C1.52585 107.449 1.42869 107.718 1.42869 108.061Z" fill="#AFADA4"/>
<path d="M1.42869 57.2223V59.8282H0.574335V53.9763H1.41727V56.1536H1.47156C1.69443 55.6393 2.1278 55.3821 2.77167 55.3821C3.23456 55.3821 3.60031 55.5241 3.8689 55.8079C4.1394 56.0917 4.27465 56.5013 4.27465 57.0366V59.8282H3.42029V57.1394C3.42029 56.8194 3.33743 56.5699 3.1717 56.3908C3.00597 56.2117 2.77548 56.1222 2.48021 56.1222C2.16781 56.1222 1.91445 56.2203 1.72015 56.4165C1.52585 56.6108 1.42869 56.8794 1.42869 57.2223Z" fill="#AFADA4"/>
<path d="M50.4385 6.01796V8.6239H49.5841V2.77197H50.427V4.9493H50.4813C50.7042 4.43497 51.1376 4.1778 51.7814 4.1778C52.2443 4.1778 52.6101 4.31972 52.8787 4.60355C53.1492 4.88739 53.2844 5.29695 53.2844 5.83223V8.6239H52.4301V5.9351C52.4301 5.61507 52.3472 5.36553 52.1815 5.18646C52.0157 5.0074 51.7852 4.91787 51.49 4.91787C51.1776 4.91787 50.9242 5.01597 50.7299 5.21218C50.5356 5.40648 50.4385 5.67508 50.4385 6.01796Z" fill="#AFADA4"/>
</svg>
