<svg width="339" height="87" viewBox="0 0 339 87" fill="none" xmlns="http://www.w3.org/2000/svg">
<path d="M53.2873 11.1398V1.44629L0.471802 1.44629L0.471802 85.0106H53.2873V75.2057H11.7021V45.7911H35.8304V50.6935H47.2831V41.2229H38.6102V36.3205H11.7021L11.7021 11.1398L53.2873 11.1398Z" fill="#F8F5E8"/>
<path d="M199.55 72.0295C199.626 68.5563 200.041 65.121 200.795 61.7234C201.55 58.2502 202.304 54.7771 203.059 51.304C203.889 47.8309 204.304 44.3578 204.304 40.8847C204.379 37.487 203.926 34.1272 202.945 30.8051C201.965 27.4829 200.984 24.1986 200.003 20.952C199.022 17.6299 198.532 14.3832 198.532 11.2121C198.532 7.96553 199.173 5.54944 200.456 3.96389C201.814 2.37833 204.228 1.3213 207.699 0.792781C211.169 0.26426 216.111 0 222.524 0C228.485 0 233.917 0.641772 238.821 1.92532C243.726 3.13336 247.611 5.17193 250.478 8.04103C253.421 10.8346 254.892 14.572 254.892 19.2532C254.892 21.7447 254.213 23.7833 252.855 25.3689C251.497 26.8789 249.686 27.6339 247.423 27.6339C245.687 27.6339 244.329 27.1054 243.348 26.0484C242.443 24.9159 241.726 23.4813 241.198 21.7447C240.67 19.9327 240.066 18.0829 239.387 16.1953C238.784 14.2322 237.916 12.3824 236.784 10.6459C235.653 8.83381 234.03 7.39926 231.918 6.34222C229.881 5.20968 227.127 4.64341 223.656 4.64341C219.884 4.64341 216.866 5.92696 214.602 8.49405C212.339 10.9856 211.207 14.119 211.207 17.8941C211.207 21.7447 211.735 24.8026 212.792 27.0677C213.923 29.2572 215.357 30.9183 217.092 32.0508C218.903 33.1079 220.865 33.8629 222.977 34.3159C225.165 34.6934 227.315 34.9954 229.428 35.222C231.616 35.373 233.578 35.675 235.313 36.128C237.124 36.5055 238.557 37.2228 239.614 38.2798C240.745 39.2613 241.311 40.8469 241.311 43.0365C241.311 45.3771 240.594 47.1514 239.161 48.3594C237.803 49.5674 236.294 50.1715 234.634 50.1715C232.521 50.1715 230.371 49.5674 228.183 48.3594C226.071 47.1514 224.033 45.6413 222.072 43.8293C220.185 42.0172 218.45 40.1674 216.866 38.2798C215.357 36.3167 214.112 34.5802 213.131 33.0701C212.226 31.4846 211.735 30.4275 211.66 29.899H211.207V53.0028C211.207 57.231 211.283 61.1193 211.433 64.668C211.584 68.2166 212.15 71.3122 213.131 73.9548C214.112 76.5219 215.772 78.5227 218.111 79.9572C220.525 81.3163 223.958 81.9958 228.409 81.9958C231.201 81.9958 233.351 81.4295 234.86 80.297C236.445 79.089 237.69 77.6544 238.595 75.9933C239.5 74.2568 240.368 72.5202 241.198 70.7837C242.103 69.0471 243.197 67.6126 244.48 66.48C245.838 65.272 247.762 64.668 250.252 64.668C252.893 64.668 255.043 65.4607 256.703 67.0463C258.438 68.5563 259.306 70.4062 259.306 72.5957C259.306 75.7668 258.023 78.4094 255.458 80.5235C252.893 82.5621 249.346 84.0721 244.82 85.0537C240.293 86.1107 235.087 86.6392 229.202 86.6392C223.166 86.6392 218.224 86.4882 214.376 86.1862C210.528 85.8842 207.51 85.2424 205.322 84.2609C203.21 83.2794 201.701 81.807 200.795 79.844C199.965 77.8809 199.55 75.2761 199.55 72.0295Z" fill="#F8F5E8"/>
<path d="M175.108 24.2018C174.679 20.4494 172.922 17.5145 169.838 15.3971C166.753 13.2529 162.824 12.1808 158.049 12.1808C153.06 12.1808 149.05 13.3199 146.019 15.5981C143.015 17.8763 141.513 20.7978 141.513 24.3626C141.513 25.8635 141.835 27.2573 142.479 28.5438C143.122 29.8035 143.914 30.8622 144.852 31.7199C145.818 32.5508 147.012 33.3281 148.433 34.0517C149.882 34.7754 151.209 35.3383 152.416 35.7403C153.623 36.1423 154.978 36.531 156.48 36.9062L164.527 38.9968C180.325 42.8832 188.225 50.6024 188.225 62.1543C188.225 69.2838 185.502 75.0866 180.057 79.5627C174.639 84.0387 167.196 86.2767 157.727 86.2767C148.527 86.2767 141.191 84.1325 135.719 79.8441C130.247 75.5289 127.31 69.6323 126.908 62.1543H139.381C139.729 66.4428 141.593 69.7261 144.973 72.0043C148.38 74.2557 152.604 75.3814 157.647 75.3814C162.984 75.3814 167.357 74.1619 170.763 71.7229C174.196 69.257 175.913 66.0273 175.913 62.0337C175.913 60.6132 175.645 59.3133 175.108 58.1339C174.572 56.9546 173.861 55.9495 172.976 55.1186C172.118 54.2877 170.978 53.5239 169.556 52.827C168.161 52.1033 166.753 51.5003 165.331 51.0178C163.91 50.5086 162.233 49.9993 160.302 49.4901L150.566 46.8366C136.269 42.977 129.121 35.7269 129.121 25.0862C129.121 20.4494 130.395 16.3218 132.943 12.7034C135.518 9.08505 139.018 6.31098 143.444 4.38118C147.87 2.42459 152.832 1.44629 158.331 1.44629C166.646 1.44629 173.472 3.5771 178.81 7.83873C184.148 12.1003 186.91 17.5547 187.098 24.2018H175.108Z" fill="#F8F5E8"/>
<path d="M338.528 2.53125V84.8294H327.123L285.319 24.4721H284.556V84.8294H272.147V2.53125L283.632 2.53125L325.477 62.969H326.24V2.53125L338.528 2.53125Z" fill="#F8F5E8"/>
<path d="M69.7419 46.502C62.7956 42.1444 65.5797 35.278 67.84 32.3894C67.5761 32.7746 67.7856 32.5545 70.7342 28.593C73.6829 24.6316 71.3013 18.9096 69.7419 16.5437C68.5842 13.5727 67.3768 6.88777 71.8093 3.91673C77.3498 0.202922 82.7249 0.615543 87.5212 5.56732C91.3582 9.52874 96.397 8.59338 98.4368 7.63053C101.524 5.01709 108.542 1.35828 111.916 7.63053C116.133 15.4708 113.156 23.4762 111.916 26.3647C110.676 29.2533 107.12 29.831 101.166 29.5009C96.4025 29.2368 95.0668 22.47 94.3021 19.1022C93.0293 16.196 88.745 11.5094 82.7249 14.8106C75.1997 18.9371 77.1017 29.2533 78.094 32.3894C79.0864 35.5256 87.1904 43.0177 94.3021 36.4334C99.9915 31.1659 104.06 32.2243 106.375 33.2147C108.774 33.8749 113.537 35.311 115.058 41.7153C116.96 49.7206 114.006 48.5613 113.156 54.1772C112.495 58.5513 116.712 62.4302 117.208 66.4742C117.705 70.5181 116.656 75.3449 110.758 80.9994C103.505 87.9534 90.002 86.2812 85.95 86.2812C81.9498 86.2812 74.3728 83.8879 70.7342 80.9994C67.84 78.7017 65.5245 74.7271 63.5398 67.547C61.0014 58.3633 66.434 55.2501 67.84 54.1772C69.2702 53.0859 76.7709 51.4538 80.1614 54.1772C83.5519 56.9007 83.5519 61.1923 82.7249 67.547C81.898 73.9018 83.5344 76.1339 85.95 79.1012C88.0999 81.7421 100.835 82.8975 103.564 77.6982C106.283 72.5166 102.761 70.2858 98.4808 67.5749L98.4368 67.547C94.1367 64.8236 94.881 59.7893 96.2041 56.4055C97.5272 53.0218 99.2638 51.4538 97.031 45.6767C95.2448 41.055 89.3404 41.055 85.95 43.4484C81.9807 46.502 76.6883 50.8596 69.7419 46.502Z" fill="#F8F5E8"/>
</svg>
