<svg width="312" height="473" viewBox="0 0 312 473" fill="none" xmlns="http://www.w3.org/2000/svg">
<circle cx="6.16451" cy="18.2368" r="5.87936" fill="#4AB15E"/>
<circle cx="17.9233" cy="18.2368" r="5.87936" fill="#4AB15E"/>
<circle cx="6.16549" cy="6.47799" r="5.87936" fill="#4AB15E"/>
<circle cx="17.9233" cy="6.47799" r="5.87936" fill="#4AB15E"/>
<circle cx="12.059" cy="12.3715" r="5.87936" fill="#4AB15E"/>
<circle cx="63.8086" cy="18.2368" r="5.87936" fill="#FF6242"/>
<circle cx="75.5678" cy="18.2368" r="5.87936" fill="#FF6242"/>
<circle cx="63.809" cy="6.47799" r="5.87936" fill="#FF6242"/>
<circle cx="75.5678" cy="6.47799" r="5.87936" fill="#FF6242"/>
<circle cx="69.7031" cy="12.3715" r="5.87936" fill="#FF6242"/>
<circle cx="121.454" cy="18.2368" r="5.87936" fill="#FECE30"/>
<circle cx="133.212" cy="18.2368" r="5.87936" fill="#FECE30"/>
<circle cx="121.454" cy="6.47799" r="5.87936" fill="#FECE30"/>
<circle cx="133.212" cy="6.47799" r="5.87936" fill="#FECE30"/>
<circle cx="127.348" cy="12.3715" r="5.87936" fill="#FECE30"/>
<circle cx="179.098" cy="18.2368" r="5.87936" fill="#9897DE"/>
<circle cx="190.857" cy="18.2368" r="5.87936" fill="#9897DE"/>
<circle cx="179.098" cy="6.47799" r="5.87936" fill="#9897DE"/>
<circle cx="190.857" cy="6.47799" r="5.87936" fill="#9897DE"/>
<circle cx="184.992" cy="12.3715" r="5.87936" fill="#9897DE"/>
<path fill-rule="evenodd" clip-rule="evenodd" d="M58.8068 456.605C59.201 455.645 59.7186 454.749 60.3397 453.936L69.6998 461.071L58.8068 456.605ZM58.0438 459.424L69.6998 461.071L58.0296 462.609C57.9637 462.105 57.9297 461.591 57.9297 461.069C57.9297 460.511 57.9686 459.962 58.0438 459.424ZM58.7654 465.431L69.6998 461.071L60.3608 468.23C59.7082 467.381 59.1689 466.441 58.7654 465.431ZM62.5104 470.384L69.6998 461.071L65.2096 471.945C64.2376 471.544 63.331 471.017 62.5104 470.384ZM68.0177 472.71L69.6998 461.071L71.2482 472.725C70.7379 472.793 70.2172 472.828 69.6884 472.828C69.1212 472.828 68.5634 472.788 68.0177 472.71ZM74.1264 471.962L69.6998 461.071L76.8396 470.404C76.0146 471.037 75.1033 471.563 74.1264 471.962ZM79.0258 468.217L69.6998 461.071L80.5905 465.483C80.1914 466.468 79.6628 467.386 79.0258 468.217ZM81.3409 462.656L69.6998 461.071L81.3376 459.457C81.4098 459.984 81.4471 460.522 81.4471 461.069C81.4471 461.607 81.411 462.137 81.3409 462.656ZM80.622 456.734L69.6998 461.071L79.038 453.937C79.6864 454.786 80.2219 455.726 80.622 456.734ZM76.8583 451.749L69.6998 461.071L74.0624 450.151C75.071 450.555 76.0104 451.095 76.8583 451.749ZM71.2506 449.413L69.6998 461.071L68.1382 449.412C68.6454 449.345 69.1629 449.311 69.6884 449.311C70.218 449.311 70.7395 449.346 71.2506 449.413ZM65.2222 450.188C64.245 450.59 63.3337 451.119 62.5093 451.756L69.6998 461.071L65.2222 450.188Z" fill="#FF6242"/>
<path fill-rule="evenodd" clip-rule="evenodd" d="M116.451 456.605C116.845 455.645 117.363 454.749 117.984 453.936L127.344 461.071L116.451 456.605ZM115.688 459.424L127.344 461.071L115.674 462.609C115.608 462.105 115.574 461.591 115.574 461.069C115.574 460.511 115.613 459.962 115.688 459.424ZM116.409 465.432L127.344 461.071L118.005 468.23C117.352 467.381 116.813 466.441 116.409 465.432ZM120.155 470.384L127.344 461.071L122.854 471.945C121.882 471.544 120.975 471.017 120.155 470.384ZM125.662 472.71L127.344 461.071L128.893 472.725C128.382 472.793 127.861 472.828 127.332 472.828C126.765 472.828 126.208 472.788 125.662 472.71ZM131.771 471.962L127.344 461.071L134.484 470.404C133.659 471.037 132.748 471.563 131.771 471.962ZM136.67 468.217L127.344 461.071L138.235 465.483C137.836 466.468 137.307 467.386 136.67 468.217ZM138.985 462.656L127.344 461.071L138.982 459.458C139.054 459.984 139.091 460.522 139.091 461.069C139.091 461.607 139.055 462.137 138.985 462.656ZM138.266 456.734L127.344 461.071L136.682 453.937C137.331 454.786 137.866 455.726 138.266 456.734ZM134.503 451.749L127.344 461.071L131.707 450.151C132.715 450.556 133.655 451.096 134.503 451.749ZM128.895 449.413L127.344 461.071L125.783 449.412C126.29 449.345 126.807 449.311 127.332 449.311C127.862 449.311 128.384 449.346 128.895 449.413ZM122.867 450.188C121.889 450.59 120.978 451.119 120.154 451.756L127.344 461.071L122.867 450.188Z" fill="#FECE30"/>
<path fill-rule="evenodd" clip-rule="evenodd" d="M23.8021 123.83H0.284668C2.4359 120.576 3.86756 117.004 3.86756 112.083C3.86756 107.996 1.82775 103.337 0.284668 100.312H23.7198C22.1767 103.337 20.2527 107.996 20.2527 112.083C20.2527 117.004 21.6509 120.576 23.8021 123.83Z" fill="#4AB15E"/>
<path d="M310.647 123.595H287.996C290.036 120.405 291.381 116.874 291.381 112.083C291.381 108.087 289.465 103.578 287.945 100.548H310.616C309.101 103.582 307.295 108.09 307.295 112.083C307.295 116.873 308.608 120.404 310.647 123.595Z" fill="#F8F5E8" stroke="#272727" stroke-width="0.470349"/>
<path fill-rule="evenodd" clip-rule="evenodd" d="M12.0434 173.687C18.5375 173.687 23.8021 168.423 23.8021 161.929C23.8021 155.434 18.5375 150.17 12.0434 150.17C5.54922 150.17 0.284668 155.434 0.284668 161.929C0.284668 168.423 5.54922 173.687 12.0434 173.687ZM12.578 160.515C12.4149 160.072 11.7894 160.072 11.6264 160.515C11.5418 160.744 11.3056 160.88 11.0646 160.839C10.6001 160.759 10.2874 161.301 10.5888 161.663C10.7452 161.851 10.7452 162.124 10.5888 162.312C10.2874 162.674 10.6001 163.216 11.0646 163.136C11.3056 163.094 11.5418 163.231 11.6264 163.46C11.7894 163.902 12.4149 163.902 12.578 163.46C12.6625 163.231 12.8988 163.094 13.1397 163.136C13.6043 163.216 13.917 162.674 13.6155 162.312C13.4591 162.124 13.4591 161.851 13.6155 161.663C13.917 161.301 13.6043 160.759 13.1397 160.839C12.8988 160.88 12.6625 160.744 12.578 160.515Z" fill="#4AB15E"/>
<path fill-rule="evenodd" clip-rule="evenodd" d="M69.6884 173.687C76.1826 173.687 81.4471 168.423 81.4471 161.929C81.4471 155.434 76.1826 150.17 69.6884 150.17C63.1942 150.17 57.9297 155.434 57.9297 161.929C57.9297 168.423 63.1942 173.687 69.6884 173.687ZM70.223 160.515C70.0599 160.072 69.4344 160.072 69.2714 160.515C69.1868 160.744 68.9506 160.88 68.7096 160.839C68.2451 160.759 67.9324 161.301 68.2338 161.663C68.3902 161.851 68.3902 162.124 68.2338 162.312C67.9324 162.674 68.2451 163.216 68.7096 163.136C68.9506 163.094 69.1868 163.231 69.2714 163.46C69.4344 163.902 70.0599 163.902 70.223 163.46C70.3076 163.231 70.5438 163.094 70.7848 163.136C71.2493 163.216 71.562 162.674 71.2605 162.312C71.1042 162.124 71.1042 161.851 71.2605 161.663C71.562 161.301 71.2493 160.759 70.7848 160.839C70.5438 160.88 70.3076 160.744 70.223 160.515Z" fill="#FF6242"/>
<path fill-rule="evenodd" clip-rule="evenodd" d="M127.332 173.687C133.827 173.687 139.091 168.423 139.091 161.929C139.091 155.434 133.827 150.17 127.332 150.17C120.838 150.17 115.574 155.434 115.574 161.929C115.574 168.423 120.838 173.687 127.332 173.687ZM127.867 160.515C127.704 160.072 127.078 160.072 126.915 160.515C126.831 160.744 126.595 160.88 126.354 160.839C125.889 160.759 125.576 161.301 125.878 161.663C126.034 161.851 126.034 162.124 125.878 162.312C125.576 162.674 125.889 163.216 126.354 163.136C126.595 163.094 126.831 163.231 126.915 163.46C127.078 163.902 127.704 163.902 127.867 163.46C127.952 163.231 128.188 163.094 128.429 163.136C128.893 163.216 129.206 162.674 128.905 162.312C128.748 162.124 128.748 161.851 128.905 161.663C129.206 161.301 128.893 160.759 128.429 160.839C128.188 160.88 127.952 160.744 127.867 160.515Z" fill="#FECE30"/>
<path fill-rule="evenodd" clip-rule="evenodd" d="M184.977 173.687C191.472 173.687 196.736 168.423 196.736 161.929C196.736 155.434 191.472 150.17 184.977 150.17C178.483 150.17 173.219 155.434 173.219 161.929C173.219 168.423 178.483 173.687 184.977 173.687ZM185.512 160.515C185.349 160.072 184.724 160.072 184.56 160.515C184.476 160.744 184.24 160.88 183.999 160.839C183.534 160.759 183.221 161.301 183.523 161.663C183.679 161.851 183.679 162.124 183.523 162.312C183.221 162.674 183.534 163.216 183.999 163.136C184.24 163.094 184.476 163.231 184.56 163.46C184.724 163.902 185.349 163.902 185.512 163.46C185.597 163.231 185.833 163.094 186.074 163.136C186.538 163.216 186.851 162.674 186.55 162.312C186.393 162.124 186.393 161.851 186.55 161.663C186.851 161.301 186.538 160.759 186.074 160.839C185.833 160.88 185.597 160.744 185.512 160.515Z" fill="#9897DE"/>
<mask id="mask0" mask-type="alpha" maskUnits="userSpaceOnUse" x="287" y="200" width="25" height="24">
<rect x="287.562" y="200.026" width="23.5174" height="23.5174" fill="#C4C4C4"/>
</mask>
<g mask="url(#mask0)">
<mask id="path-30-inside-1" fill="white">
<path d="M311.08 200.028C311.08 203.117 310.472 206.175 309.29 209.028C308.108 211.881 306.376 214.474 304.192 216.658C302.008 218.841 299.416 220.574 296.563 221.755C293.709 222.937 290.651 223.546 287.563 223.546L287.563 200.028H311.08Z"/>
</mask>
<path d="M311.08 200.028C311.08 203.117 310.472 206.175 309.29 209.028C308.108 211.881 306.376 214.474 304.192 216.658C302.008 218.841 299.416 220.574 296.563 221.755C293.709 222.937 290.651 223.546 287.563 223.546L287.563 200.028H311.08Z" fill="#F8F5E8" stroke="#272727" stroke-width="0.940697" mask="url(#path-30-inside-1)"/>
<mask id="path-31-inside-2" fill="white">
<path d="M300.403 200.027C300.403 201.713 300.071 203.383 299.426 204.941C298.78 206.499 297.835 207.914 296.642 209.107C295.45 210.299 294.034 211.245 292.477 211.89C290.919 212.535 289.249 212.868 287.563 212.868L287.563 200.027H300.403Z"/>
</mask>
<path d="M300.403 200.027C300.403 201.713 300.071 203.383 299.426 204.941C298.78 206.499 297.835 207.914 296.642 209.107C295.45 210.299 294.034 211.245 292.477 211.89C290.919 212.535 289.249 212.868 287.563 212.868L287.563 200.027H300.403Z" fill="#FFCC11" stroke="#272727" stroke-width="0.940697" mask="url(#path-31-inside-2)"/>
<path d="M300.497 200.497C300.497 202.134 300.174 203.755 299.548 205.267C298.922 206.779 298.004 208.153 296.846 209.311C295.689 210.468 294.315 211.386 292.802 212.013C291.29 212.639 289.669 212.962 288.033 212.962L288.033 200.497H300.497Z" fill="#FFCC11"/>
</g>
<mask id="mask1" mask-type="alpha" maskUnits="userSpaceOnUse" x="0" y="200" width="24" height="24">
<rect x="0.284668" y="200.026" width="23.5174" height="23.5174" fill="#C4C4C4"/>
</mask>
<g mask="url(#mask1)">
<path d="M23.8019 200.028C23.8019 203.117 23.1936 206.175 22.0118 209.028C20.8299 211.881 19.0976 214.474 16.9138 216.658C14.7301 218.841 12.1375 220.574 9.28424 221.755C6.43098 222.937 3.37287 223.546 0.284515 223.546L0.284517 200.028H23.8019Z" fill="#4AB15E"/>
<path d="M13.1259 200.027C13.1259 201.713 12.7937 203.383 12.1484 204.941C11.5031 206.499 10.5573 207.914 9.36495 209.107C8.1726 210.299 6.75707 211.245 5.19919 211.89C3.64131 212.535 1.97158 212.868 0.285337 212.868L0.285338 200.027H13.1259Z" fill="#FFCC11"/>
<path d="M13.2195 200.497C13.2195 202.134 12.8971 203.755 12.2707 205.267C11.6443 206.779 10.7262 208.153 9.5688 209.311C8.41138 210.468 7.03734 211.386 5.52511 212.013C4.01288 212.639 2.39208 212.962 0.75525 212.962L0.755251 200.497H13.2195Z" fill="#FFCC11"/>
</g>
<path d="M68.2912 350.51C68.9122 349.294 70.4646 349.294 71.0856 350.51L81.2286 370.378C81.8495 371.595 81.0733 373.115 79.8313 373.115H59.5455C58.3035 373.115 57.5273 371.595 58.1482 370.378L68.2912 350.51Z" fill="#FF6242"/>
<path d="M125.935 349.569C126.556 348.352 128.109 348.352 128.73 349.569L138.873 369.437C139.494 370.653 138.717 372.174 137.475 372.174H117.19C115.948 372.174 115.171 370.653 115.792 369.437L125.935 349.569Z" fill="#FECE30"/>
<path d="M11.1811 250.279C11.6359 249.752 12.4508 249.752 12.9056 250.279L13.1593 250.573C13.5181 250.989 14.1208 251.089 14.5947 250.813L14.9298 250.618C15.5305 250.268 16.3012 250.533 16.5608 251.179L16.7056 251.54C16.9104 252.05 17.4479 252.342 17.9855 252.235L18.3656 252.159C19.0472 252.024 19.6903 252.526 19.7265 253.222L19.7467 253.61C19.7753 254.159 20.1892 254.61 20.7323 254.684L21.1164 254.736C21.8049 254.83 22.2506 255.514 22.0596 256.184L21.953 256.558C21.8024 257.087 22.0479 257.648 22.5376 257.895L22.8839 258.069C23.5048 258.382 23.7049 259.175 23.3073 259.746L23.0855 260.065C22.7719 260.516 22.8223 261.127 23.2057 261.52L23.4767 261.798C23.9627 262.296 23.8954 263.111 23.3343 263.522L23.0214 263.751C22.5788 264.075 22.4288 264.67 22.6641 265.166L22.8305 265.517C23.1289 266.147 22.8016 266.895 22.1378 267.101L21.7676 267.216C21.244 267.379 20.9098 267.892 20.9717 268.438L21.0154 268.825C21.0939 269.517 20.542 270.119 19.8474 270.097L19.4601 270.085C18.9122 270.069 18.43 270.445 18.3117 270.982L18.228 271.362C18.0781 272.042 17.3614 272.431 16.7114 272.185L16.3488 272.048C15.8361 271.853 15.2581 272.052 14.9724 272.522L14.7704 272.853C14.4083 273.448 13.6045 273.583 13.0694 273.138L12.771 272.89C12.3489 272.539 11.7378 272.539 11.3158 272.89L11.0173 273.138C10.4822 273.583 9.67848 273.448 9.31633 272.853L9.11434 272.522C8.82868 272.052 8.25068 271.853 7.73795 272.048L7.3754 272.185C6.72537 272.431 6.00871 272.042 5.85874 271.362L5.77509 270.982C5.65679 270.445 5.17454 270.069 4.6267 270.085L4.23933 270.097C3.54479 270.119 2.99289 269.517 3.07135 268.825L3.1151 268.438C3.17698 267.892 2.84274 267.379 2.31916 267.216L1.94894 267.101C1.28517 266.895 0.957836 266.147 1.25621 265.517L1.42263 265.166C1.65799 264.67 1.50797 264.075 1.06539 263.751L0.752449 263.522C0.191362 263.111 0.12407 262.296 0.610039 261.798L0.881087 261.52C1.26441 261.127 1.31488 260.516 1.00126 260.065L0.779502 259.746C0.381906 259.175 0.581945 258.382 1.20284 258.069L1.54915 257.895C2.03891 257.648 2.28439 257.087 2.13371 256.558L2.02717 256.184C1.83615 255.514 2.28184 254.83 2.97039 254.736L3.35442 254.684C3.89754 254.61 4.31143 254.159 4.34003 253.61L4.36025 253.222C4.39651 252.526 5.03956 252.024 5.72113 252.159L6.10128 252.235C6.6389 252.342 7.17635 252.05 7.38113 251.54L7.52592 251.179C7.78552 250.533 8.55625 250.268 9.15699 250.618L9.49206 250.813C9.96592 251.089 10.5687 250.989 10.9275 250.573L11.1811 250.279Z" fill="#4AB15E"/>
<path d="M298.459 250.279C298.914 249.752 299.729 249.752 300.183 250.279L300.437 250.573C300.796 250.989 301.399 251.089 301.873 250.813L302.208 250.618C302.808 250.268 303.579 250.533 303.839 251.179L303.983 251.54C304.188 252.05 304.726 252.342 305.263 252.235L305.643 252.159C306.325 252.024 306.968 252.526 307.004 253.222L307.025 253.61C307.053 254.159 307.467 254.61 308.01 254.684L308.394 254.736C309.083 254.83 309.528 255.514 309.337 256.184L309.231 256.558C309.08 257.087 309.326 257.648 309.815 257.895L310.162 258.069C310.783 258.382 310.983 259.175 310.585 259.746L310.363 260.065C310.05 260.516 310.1 261.127 310.484 261.52L310.755 261.798C311.241 262.296 311.173 263.111 310.612 263.522L310.299 263.751C309.857 264.075 309.707 264.67 309.942 265.166L310.108 265.517C310.407 266.147 310.079 266.895 309.416 267.101L309.045 267.216C308.522 267.379 308.188 267.892 308.249 268.438L308.293 268.825C308.372 269.517 307.82 270.119 307.125 270.097L306.738 270.085C306.19 270.069 305.708 270.445 305.59 270.982L305.506 271.362C305.356 272.042 304.639 272.431 303.989 272.185L303.627 272.048C303.114 271.853 302.536 272.052 302.25 272.522L302.048 272.853C301.686 273.448 300.882 273.583 300.347 273.138L300.049 272.89C299.627 272.539 299.016 272.539 298.594 272.89L298.295 273.138C297.76 273.583 296.956 273.448 296.594 272.853L296.392 272.522C296.107 272.052 295.529 271.853 295.016 272.048L294.653 272.185C294.003 272.431 293.287 272.042 293.137 271.362L293.053 270.982C292.935 270.445 292.452 270.069 291.905 270.085L291.517 270.097C290.823 270.119 290.271 269.517 290.349 268.825L290.393 268.438C290.455 267.892 290.121 267.379 289.597 267.216L289.227 267.101C288.563 266.895 288.236 266.147 288.534 265.517L288.7 265.166C288.936 264.67 288.786 264.075 288.343 263.751L288.03 263.522C287.469 263.111 287.402 262.296 287.888 261.798L288.159 261.52C288.542 261.127 288.593 260.516 288.279 260.065L288.057 259.746C287.66 259.175 287.86 258.382 288.481 258.069L288.827 257.895C289.317 257.648 289.562 257.087 289.412 256.558L289.305 256.184C289.114 255.514 289.56 254.83 290.248 254.736L290.632 254.684C291.175 254.61 291.589 254.159 291.618 253.61L291.638 253.222C291.674 252.526 292.317 252.024 292.999 252.159L293.379 252.235C293.917 252.342 294.454 252.05 294.659 251.54L294.804 251.179C295.063 250.533 295.834 250.268 296.435 250.618L296.77 250.813C297.244 251.089 297.847 250.989 298.205 250.573L298.459 250.279Z" fill="#F8F5E8" stroke="#272727" stroke-width="0.470349"/>
<path fill-rule="evenodd" clip-rule="evenodd" d="M12.0434 73.9735C18.5375 73.9735 23.8021 68.7089 23.8021 62.2148C23.8021 55.7206 18.5375 50.4561 12.0434 50.4561C5.54922 50.4561 0.284668 55.7206 0.284668 62.2148C0.284668 68.7089 5.54922 73.9735 12.0434 73.9735ZM13.7275 55.986C13.1796 54.4997 11.0776 54.4997 10.5296 55.986L10.2226 56.8187C9.93837 57.5897 9.14448 58.0481 8.33469 57.9087L7.45997 57.7582C5.8989 57.4897 4.84788 59.3101 5.86102 60.5277L6.42871 61.21C6.95426 61.8416 6.95426 62.7583 6.42871 63.39L5.86102 64.0722C4.84788 65.2899 5.8989 67.1103 7.45997 66.8417L8.3347 66.6912C9.14448 66.5519 9.93837 67.0103 10.2226 67.7812L10.5296 68.614C11.0776 70.1002 13.1796 70.1002 13.7275 68.614L14.0346 67.7812C14.3188 67.0103 15.1127 66.5519 15.9225 66.6912L16.7972 66.8417C18.3583 67.1103 19.4093 65.2899 18.3962 64.0722L17.8285 63.39C17.3029 62.7583 17.3029 61.8416 17.8285 61.21L18.3962 60.5277C19.4093 59.3101 18.3583 57.4897 16.7972 57.7582L15.9225 57.9087C15.1127 58.0481 14.3188 57.5897 14.0346 56.8187L13.7275 55.986Z" fill="#4AB15E"/>
<path fill-rule="evenodd" clip-rule="evenodd" d="M69.6884 73.9735C76.1826 73.9735 81.4471 68.7089 81.4471 62.2148C81.4471 55.7206 76.1826 50.4561 69.6884 50.4561C63.1942 50.4561 57.9297 55.7206 57.9297 62.2148C57.9297 68.7089 63.1942 73.9735 69.6884 73.9735ZM71.3726 55.986C70.8246 54.4997 68.7226 54.4997 68.1747 55.986L67.8676 56.8187C67.5834 57.5897 66.7895 58.0481 65.9797 57.9087L65.105 57.7582C63.5439 57.4897 62.4929 59.3101 63.506 60.5277L64.0737 61.21C64.5993 61.8416 64.5993 62.7583 64.0737 63.39L63.506 64.0722C62.4929 65.2899 63.5439 67.1103 65.105 66.8417L65.9797 66.6912C66.7895 66.5519 67.5834 67.0103 67.8676 67.7812L68.1747 68.614C68.7226 70.1002 70.8246 70.1002 71.3726 68.614L71.6796 67.7812C71.9638 67.0103 72.7577 66.5519 73.5675 66.6912L74.4422 66.8417C76.0033 67.1103 77.0543 65.2899 76.0412 64.0722L75.4735 63.39C74.9479 62.7583 74.9479 61.8416 75.4735 61.21L76.0412 60.5277C77.0543 59.3101 76.0033 57.4897 74.4422 57.7582L73.5675 57.9087C72.7577 58.0481 71.9638 57.5897 71.6796 56.8187L71.3726 55.986Z" fill="#FF6242"/>
<path fill-rule="evenodd" clip-rule="evenodd" d="M127.332 73.9735C133.827 73.9735 139.091 68.7089 139.091 62.2148C139.091 55.7206 133.827 50.4561 127.332 50.4561C120.838 50.4561 115.574 55.7206 115.574 62.2148C115.574 68.7089 120.838 73.9735 127.332 73.9735ZM129.017 55.986C128.469 54.4997 126.367 54.4997 125.819 55.986L125.512 56.8187C125.227 57.5897 124.434 58.0481 123.624 57.9087L122.749 57.7582C121.188 57.4897 120.137 59.3101 121.15 60.5277L121.718 61.21C122.243 61.8416 122.243 62.7583 121.718 63.39L121.15 64.0722C120.137 65.2899 121.188 67.1103 122.749 66.8417L123.624 66.6912C124.434 66.5519 125.227 67.0103 125.512 67.7812L125.819 68.614C126.367 70.1002 128.469 70.1002 129.017 68.614L129.324 67.7812C129.608 67.0103 130.402 66.5519 131.212 66.6912L132.086 66.8417C133.647 67.1103 134.698 65.2899 133.685 64.0722L133.118 63.39C132.592 62.7583 132.592 61.8416 133.118 61.21L133.685 60.5277C134.698 59.3101 133.647 57.4897 132.086 57.7582L131.212 57.9087C130.402 58.0481 129.608 57.5897 129.324 56.8187L129.017 55.986Z" fill="#FECE30"/>
<circle cx="179.098" cy="317.379" r="5.87936" fill="#9897DE"/>
<circle cx="190.857" cy="317.379" r="5.87936" fill="#9897DE"/>
<circle cx="179.098" cy="305.621" r="5.87936" fill="#9897DE"/>
<circle cx="190.857" cy="305.621" r="5.87936" fill="#9897DE"/>
<circle cx="121.453" cy="317.379" r="5.87936" fill="#FECE30"/>
<circle cx="133.212" cy="317.379" r="5.87936" fill="#FECE30"/>
<circle cx="121.453" cy="305.621" r="5.87936" fill="#FECE30"/>
<circle cx="133.212" cy="305.621" r="5.87936" fill="#FECE30"/>
<circle cx="63.809" cy="317.379" r="5.87936" fill="#FF6242"/>
<circle cx="75.5678" cy="317.379" r="5.87936" fill="#FF6242"/>
<circle cx="63.809" cy="305.621" r="5.87936" fill="#FF6242"/>
<circle cx="75.5678" cy="305.621" r="5.87936" fill="#FF6242"/>
<circle cx="6.16402" cy="317.379" r="5.87936" fill="#4AB15E"/>
<circle cx="17.9228" cy="317.379" r="5.87936" fill="#4AB15E"/>
<circle cx="6.16402" cy="305.621" r="5.87936" fill="#4AB15E"/>
<circle cx="17.9228" cy="305.621" r="5.87936" fill="#4AB15E"/>
<mask id="mask2" mask-type="alpha" maskUnits="userSpaceOnUse" x="57" y="399" width="25" height="24">
<path fill-rule="evenodd" clip-rule="evenodd" d="M57.9297 403.375C57.9297 401.21 59.6845 399.455 61.8493 399.455H77.5275C79.6923 399.455 81.4471 401.21 81.4471 403.375C81.4471 405.539 79.6923 407.294 77.5275 407.294H61.8493C59.6845 407.294 57.9297 405.539 57.9297 403.375ZM57.9297 411.214C57.9297 409.049 59.6845 407.294 61.8493 407.294H77.5275C79.6923 407.294 81.4471 409.049 81.4471 411.214C81.4471 413.373 79.7015 415.124 77.5446 415.133C79.7015 415.143 81.4471 416.894 81.4471 419.053C81.4471 421.218 79.6923 422.973 77.5275 422.973H61.8493C59.6845 422.973 57.9297 421.218 57.9297 419.053C57.9297 416.894 59.6753 415.143 61.8322 415.133C59.6753 415.124 57.9297 413.373 57.9297 411.214Z" fill="#C4C4C4"/>
</mask>
<g mask="url(#mask2)">
<path fill-rule="evenodd" clip-rule="evenodd" d="M72.1294 400.605L72.1353 400.612L69.743 403.116L69.7371 403.11L69.7312 403.116L67.3389 400.612L67.3448 400.605L57.1686 389.953L59.5609 387.448L69.7371 398.101L79.9133 387.448L82.3056 389.953L72.1294 400.605ZM72.1294 406.134L72.1353 406.14L69.743 408.644L69.7371 408.638L69.7312 408.644L67.3389 406.14L67.3448 406.134L57.1686 395.481L59.5609 392.977L69.7371 403.63L79.9133 392.977L82.3056 395.481L72.1294 406.134ZM69.7373 409.158L59.5611 398.505L57.1688 401.01L67.345 411.662L67.3391 411.669L69.7314 414.173L69.7373 414.167L69.7432 414.173L72.1355 411.669L72.1296 411.662L82.3058 401.01L79.9135 398.505L69.7373 409.158ZM72.1296 417.191L72.1356 417.197L69.7433 419.701L69.7373 419.695L69.7314 419.701L67.3391 417.197L67.345 417.191L54.4921 403.736L56.8844 401.231L69.7373 414.686L81.4261 402.45L83.8184 404.954L72.1296 417.191ZM72.1293 422.719L72.1353 422.725L69.743 425.23L69.7371 425.223L69.7312 425.229L67.3389 422.725L67.3448 422.719L53.9067 408.652L56.299 406.147L69.7371 420.215L82.2466 407.119L84.6389 409.623L72.1293 422.719ZM72.1296 428.248L72.1356 428.254L69.7434 430.759L69.7373 430.752L69.7314 430.759L67.3392 428.254L67.3451 428.248L54.735 415.047L57.1273 412.543L69.7373 425.744L82.1469 412.753L84.5392 415.257L72.1296 428.248ZM72.1294 433.776L72.1353 433.782L69.743 436.286L69.7371 436.28L69.7312 436.286L67.3389 433.782L67.3448 433.776L54.8988 420.747L57.2911 418.243L69.7371 431.271L83.0403 417.345L85.4326 419.85L72.1294 433.776Z" fill="#FF6242"/>
</g>
</svg>
