<svg width="19" height="19" viewBox="0 0 19 19" fill="none" xmlns="http://www.w3.org/2000/svg">
<mask id="mask0" mask-type="alpha" maskUnits="userSpaceOnUse" x="0" y="0" width="19" height="19">
<path fill-rule="evenodd" clip-rule="evenodd" d="M0 3.16667C0 1.41777 1.41777 0 3.16667 0H15.8333C17.5822 0 19 1.41777 19 3.16667C19 4.91558 17.5822 6.33334 15.8333 6.33334H3.16667C1.41777 6.33334 0 4.91558 0 3.16667ZM0 9.50017C0 7.75126 1.41777 6.3335 3.16667 6.3335H15.8333C17.5822 6.3335 19 7.75126 19 9.50017C19 11.2435 17.5912 12.6578 15.85 12.6668C17.5912 12.6758 19 14.0901 19 15.8334C19 17.5823 17.5822 19.0001 15.8333 19.0001H3.16667C1.41777 19.0001 0 17.5823 0 15.8334C0 14.0901 1.40877 12.6758 3.15001 12.6668C1.40877 12.6578 0 11.2435 0 9.50017Z" fill="#C4C4C4"/>
</mask>
<g mask="url(#mask0)">
<path fill-rule="evenodd" clip-rule="evenodd" d="M9.53946 -2.6947L-0.844466 -13.5649L-3.6001 -10.6803L9.548 3.08362L10.3661 2.22715L10.3665 2.22748L21.7475 -9.6866L18.983 -12.5806L9.53946 -2.6947ZM9.53946 4.3053L-0.844466 -6.56494L-3.6001 -3.68025L9.548 10.0836L10.3661 9.22715L10.3665 9.22749L21.7475 -2.68661L18.983 -5.58057L9.53946 4.3053ZM9.53946 11.3053L-0.844466 0.435059L-3.6001 3.31975L9.548 17.0836L10.3661 16.2272L10.3665 16.2275L21.7475 4.31339L18.983 1.41943L9.53946 11.3053ZM9.53946 18.3053L-0.844466 7.43506L-3.6001 10.3197L9.548 24.0836L10.3661 23.2271L10.3665 23.2275L21.7475 11.3134L18.983 8.41943L9.53946 18.3053ZM9.53946 25.3053L-0.844466 14.4351L-3.6001 17.3197L9.548 31.0836L10.3661 30.2271L10.3665 30.2275L21.7475 18.3134L18.983 15.4194L9.53946 25.3053Z" fill="#FF6242"/>
<path fill-rule="evenodd" clip-rule="evenodd" d="M9.53946 -2.6947L-0.844466 -13.5649L-3.6001 -10.6803L9.548 3.08362L10.3661 2.22715L10.3665 2.22748L21.7475 -9.6866L18.983 -12.5806L9.53946 -2.6947ZM9.53946 4.3053L-0.844466 -6.56494L-3.6001 -3.68025L9.548 10.0836L10.3661 9.22715L10.3665 9.22749L21.7475 -2.68661L18.983 -5.58057L9.53946 4.3053ZM9.53946 11.3053L-0.844466 0.435059L-3.6001 3.31975L9.548 17.0836L10.3661 16.2272L10.3665 16.2275L21.7475 4.31339L18.983 1.41943L9.53946 11.3053ZM9.53946 18.3053L-0.844466 7.43506L-3.6001 10.3197L9.548 24.0836L10.3661 23.2271L10.3665 23.2275L21.7475 11.3134L18.983 8.41943L9.53946 18.3053ZM9.53946 25.3053L-0.844466 14.4351L-3.6001 17.3197L9.548 31.0836L10.3661 30.2271L10.3665 30.2275L21.7475 18.3134L18.983 15.4194L9.53946 25.3053Z" fill="url(#paint0_linear)"/>
</g>
<defs>
<linearGradient id="paint0_linear" x1="9.07371" y1="-4" x2="9.07371" y2="22" gradientUnits="userSpaceOnUse">
<stop stop-color="#FF6242"/>
<stop offset="1" stop-color="#EF674B"/>
</linearGradient>
</defs>
</svg>
