<svg width="21" height="21" viewBox="0 0 21 21" fill="none" xmlns="http://www.w3.org/2000/svg">
<path fill-rule="evenodd" clip-rule="evenodd" d="M10.9302 20.8605C16.4146 20.8605 20.8605 16.4146 20.8605 10.9302C20.8605 5.44592 16.4146 1 10.9302 1C5.44592 1 1 5.44592 1 10.9302C1 16.4146 5.44592 20.8605 10.9302 20.8605ZM12.0331 7.80215C11.6791 6.8419 10.3209 6.8419 9.96691 7.80215C9.78327 8.30026 9.27033 8.59641 8.74712 8.50639C7.73851 8.33286 7.05944 9.50904 7.71403 10.2958C8.05359 10.7039 8.05359 11.2961 7.71403 11.7042C7.05944 12.491 7.73851 13.6671 8.74712 13.4936C9.27033 13.4036 9.78327 13.6997 9.96691 14.1979C10.3209 15.1581 11.6791 15.1581 12.0331 14.1979C12.2167 13.6997 12.7297 13.4036 13.2529 13.4936C14.2615 13.6671 14.9406 12.491 14.286 11.7042C13.9464 11.2961 13.9464 10.7039 14.286 10.2958C14.9406 9.50904 14.2615 8.33286 13.2529 8.50639C12.7297 8.59641 12.2167 8.30027 12.0331 7.80215Z" fill="#AD99E5"/>
<path fill-rule="evenodd" clip-rule="evenodd" d="M10.9302 20.8605C16.4146 20.8605 20.8605 16.4146 20.8605 10.9302C20.8605 5.44592 16.4146 1 10.9302 1C5.44592 1 1 5.44592 1 10.9302C1 16.4146 5.44592 20.8605 10.9302 20.8605ZM12.0331 7.80215C11.6791 6.8419 10.3209 6.8419 9.96691 7.80215C9.78327 8.30026 9.27033 8.59641 8.74712 8.50639C7.73851 8.33286 7.05944 9.50904 7.71403 10.2958C8.05359 10.7039 8.05359 11.2961 7.71403 11.7042C7.05944 12.491 7.73851 13.6671 8.74712 13.4936C9.27033 13.4036 9.78327 13.6997 9.96691 14.1979C10.3209 15.1581 11.6791 15.1581 12.0331 14.1979C12.2167 13.6997 12.7297 13.4036 13.2529 13.4936C14.2615 13.6671 14.9406 12.491 14.286 11.7042C13.9464 11.2961 13.9464 10.7039 14.286 10.2958C14.9406 9.50904 14.2615 8.33286 13.2529 8.50639C12.7297 8.59641 12.2167 8.30027 12.0331 7.80215Z" fill="url(#paint0_linear)"/>
<g filter="url(#filter0_f)">
<path d="M2.96155 8.70596C2.9416 8.59869 2.96462 8.48788 3.02564 8.39744L5.91026 4.12182C5.99309 3.99904 6.12101 3.91388 6.26624 3.88484L10.9231 2.95346C10.9999 2.93811 11.079 2.93895 11.1554 2.95593L15.3095 3.87905C15.4567 3.91176 15.5846 4.00218 15.6645 4.13003L17.9723 7.82263C18.0163 7.89291 18.0396 7.97412 18.0396 8.057C18.0396 8.52361 17.4105 8.67211 17.2018 8.25475L15.6593 5.16964C15.5835 5.01814 15.4435 4.90884 15.2782 4.8721L11.1615 3.95729C11.0812 3.93943 10.9979 3.93943 10.9175 3.95729L6.74914 4.8836C6.61416 4.9136 6.49496 4.99225 6.4143 5.10455L3.7079 8.87246C3.49433 9.1698 3.02849 9.06588 2.96155 8.70596Z" fill="url(#paint1_linear)" fill-opacity="0.6"/>
</g>
<defs>
<filter id="filter0_f" x="0.470215" y="0.458252" width="20.0538" height="11.0722" filterUnits="userSpaceOnUse" color-interpolation-filters="sRGB">
<feFlood flood-opacity="0" result="BackgroundImageFix"/>
<feBlend mode="normal" in="SourceGraphic" in2="BackgroundImageFix" result="shape"/>
<feGaussianBlur stdDeviation="1.24219" result="effect1_foregroundBlur"/>
</filter>
<linearGradient id="paint0_linear" x1="10.9302" y1="1" x2="10.9302" y2="20.8605" gradientUnits="userSpaceOnUse">
<stop stop-color="#AD99E5"/>
<stop offset="1" stop-color="#A391D6"/>
</linearGradient>
<linearGradient id="paint1_linear" x1="10.485" y1="2.93018" x2="10.0396" y2="13.4302" gradientUnits="userSpaceOnUse">
<stop stop-color="white"/>
<stop offset="1" stop-color="white" stop-opacity="0"/>
</linearGradient>
</defs>
</svg>
