<svg width="24" height="23" viewBox="0 0 24 23" fill="none" xmlns="http://www.w3.org/2000/svg">
<mask id="mask0" mask-type="alpha" maskUnits="userSpaceOnUse" x="3" y="2" width="19" height="19">
<rect x="3" y="2" width="19" height="19" fill="#C4C4C4"/>
</mask>
<g mask="url(#mask0)">
<g filter="url(#filter0_i)">
<circle cx="3" cy="2" r="19" fill="#F8F5E8"/>
<circle cx="3" cy="2" r="19" fill="url(#paint0_linear)"/>
</g>
<circle cx="3.00022" cy="2.00022" r="10.374" fill="#FFCC11"/>
</g>
<g filter="url(#filter1_f)">
<path d="M16.6502 10.0353C10.9312 15.2778 8.54835 14.8012 4.73569 17.184C4.33329 17.4355 3.80042 19.3267 4.25911 19.2052C11.8844 17.1839 18.0799 12.8947 18.5565 10.0353C18.7125 9.09922 17.3497 9.39404 16.6502 10.0353Z" fill="#E2DDD3" fill-opacity="0.8"/>
</g>
<g filter="url(#filter2_f)">
<path d="M20.6783 3.27965C18.3978 3.27963 16.3073 2.91196 14.4069 2.88672C14.2177 2.88421 14.224 5.73697 14.4069 5.63674C17.4476 3.97054 20.6783 7.20808 20.8683 4.85102C20.9305 4.07936 21.0567 3.27965 20.6783 3.27965Z" fill="url(#paint1_radial)"/>
</g>
<g filter="url(#filter3_f)">
<path d="M12.0251 3.27965C9.09299 3.27963 6.40525 2.91196 3.96185 2.88672C3.71856 2.88421 3.72668 5.73697 3.96185 5.63674C7.87127 3.97054 12.0251 7.20808 12.2694 4.85102C12.3494 4.07936 12.5116 3.27965 12.0251 3.27965Z" fill="url(#paint2_radial)"/>
</g>
<defs>
<filter id="filter0_i" x="-16" y="-17" width="38" height="38" filterUnits="userSpaceOnUse" color-interpolation-filters="sRGB">
<feFlood flood-opacity="0" result="BackgroundImageFix"/>
<feBlend mode="normal" in="SourceGraphic" in2="BackgroundImageFix" result="shape"/>
<feColorMatrix in="SourceAlpha" type="matrix" values="0 0 0 0 0 0 0 0 0 0 0 0 0 0 0 0 0 0 127 0" result="hardAlpha"/>
<feOffset/>
<feGaussianBlur stdDeviation="3.5"/>
<feComposite in2="hardAlpha" operator="arithmetic" k2="-1" k3="1"/>
<feColorMatrix type="matrix" values="0 0 0 0 0.833333 0 0 0 0 0.816782 0 0 0 0 0.734028 0 0 0 0.3 0"/>
<feBlend mode="normal" in2="shape" result="effect1_innerShadow"/>
</filter>
<filter id="filter1_f" x="1.26703" y="6.62348" width="20.117" height="15.4025" filterUnits="userSpaceOnUse" color-interpolation-filters="sRGB">
<feFlood flood-opacity="0" result="BackgroundImageFix"/>
<feBlend mode="normal" in="SourceGraphic" in2="BackgroundImageFix" result="shape"/>
<feGaussianBlur stdDeviation="1.40762" result="effect1_foregroundBlur"/>
</filter>
<filter id="filter2_f" x="11.4521" y="0.0714779" width="12.3026" height="8.48996" filterUnits="userSpaceOnUse" color-interpolation-filters="sRGB">
<feFlood flood-opacity="0" result="BackgroundImageFix"/>
<feBlend mode="normal" in="SourceGraphic" in2="BackgroundImageFix" result="shape"/>
<feGaussianBlur stdDeviation="1.40762" result="effect1_foregroundBlur"/>
</filter>
<filter id="filter3_f" x="0.96723" y="0.0714779" width="14.2089" height="8.48996" filterUnits="userSpaceOnUse" color-interpolation-filters="sRGB">
<feFlood flood-opacity="0" result="BackgroundImageFix"/>
<feBlend mode="normal" in="SourceGraphic" in2="BackgroundImageFix" result="shape"/>
<feGaussianBlur stdDeviation="1.40762" result="effect1_foregroundBlur"/>
</filter>
<linearGradient id="paint0_linear" x1="3" y1="-1.89361" x2="3" y2="21" gradientUnits="userSpaceOnUse">
<stop stop-color="#F5F5F5"/>
<stop offset="0.0001" stop-color="#FFFCF4"/>
<stop offset="1" stop-color="#D7D7D7" stop-opacity="0.11"/>
</linearGradient>
<radialGradient id="paint1_radial" cx="0" cy="0" r="1" gradientUnits="userSpaceOnUse" gradientTransform="translate(17.6034 4.31646) rotate(90) scale(1.42974 3.33605)">
<stop stop-color="#F8F8F8"/>
<stop offset="1" stop-color="white" stop-opacity="0"/>
</radialGradient>
<radialGradient id="paint2_radial" cx="0" cy="0" r="1" gradientUnits="userSpaceOnUse" gradientTransform="translate(8.07163 4.31646) rotate(75.0686) scale(1.84962 5.3877)">
<stop stop-color="#FFE587"/>
<stop offset="1" stop-color="#FFCC11"/>
</radialGradient>
</defs>
</svg>
