<svg width="24" height="24" viewBox="0 0 24 24" fill="none" xmlns="http://www.w3.org/2000/svg">
<path fill-rule="evenodd" clip-rule="evenodd" d="M18.3539 20.4932L20.4703 18.3767L19.7249 15.6687L20.0496 14.8931L22.5002 13.5102V10.5172L20.0566 9.12857L19.7373 8.35435L20.492 5.64492L18.3741 3.53001L15.666 4.2752L14.8921 3.95074L13.5092 1.49976H10.5163L9.12775 3.94355L8.35373 4.26278L5.64486 3.50707L3.53028 5.62176L4.27556 8.33049L3.95111 9.10434L1.50024 10.4874V13.4795L3.94172 14.8712L4.26129 15.6461L3.50667 18.3551L5.62206 20.4706L8.33066 19.7253L9.10457 20.0498L10.4875 22.4998H13.4796L14.8703 20.0581L15.645 19.7386L18.3539 20.4932ZM18.8527 13.6256L17.9809 15.7078L18.6362 18.0886L18.0678 18.657L15.692 17.9951L13.609 18.8542L12.3873 20.999H11.5829L10.3714 18.8529L8.29155 17.9808L5.90947 18.6362L5.34203 18.0688L6.00385 15.693L5.14482 13.6101L3 12.3876V11.583L5.1471 10.3715L6.0192 8.29155L5.36375 5.90947L5.93001 5.34321L8.30576 6.00595L10.3895 5.14655L11.6093 3H12.4129L13.6245 5.1471L15.7044 6.0192L18.087 5.36362L18.6558 5.93166L17.9941 8.30696L18.8534 10.3906L21 11.6103V12.4139L18.8527 13.6256ZM12.0001 15.9999C9.79092 15.9999 8.00006 14.209 8.00006 11.9999C8.00006 9.79074 9.79092 7.99988 12.0001 7.99988C14.2092 7.99988 16.0001 9.79074 16.0001 11.9999C16.0001 14.209 14.2092 15.9999 12.0001 15.9999ZM14 11.9999C14 13.1045 13.1046 13.9999 12 13.9999C10.8955 13.9999 10 13.1045 10 11.9999C10 10.8954 10.8955 9.99994 12 9.99994C13.1046 9.99994 14 10.8954 14 11.9999Z" fill="#272727"/>
</svg>
