<svg width="25" height="25" viewBox="0 0 25 25" fill="none" xmlns="http://www.w3.org/2000/svg">
<path fill-rule="evenodd" clip-rule="evenodd" d="M10.4166 18.7499C5.81421 18.7499 2.08325 15.019 2.08325 10.4166C2.08325 5.81421 5.81421 2.08325 10.4166 2.08325C15.019 2.08325 18.7499 5.81421 18.7499 10.4166C18.7499 12.3423 18.0967 14.1155 16.9998 15.5266L22.6115 21.1384L21.1384 22.6115L15.5266 16.9998C14.1155 18.0967 12.3423 18.7499 10.4166 18.7499ZM16.6666 10.4166C16.6666 13.8684 13.8684 16.6666 10.4166 16.6666C6.96481 16.6666 4.16659 13.8684 4.16659 10.4166C4.16659 6.96481 6.96481 4.16659 10.4166 4.16659C13.8684 4.16659 16.6666 6.96481 16.6666 10.4166Z" fill="#272727"/>
<circle cx="10.367" cy="10.4202" r="6.36553" fill="white"/>
<circle cx="11.3651" cy="9.23299" r="2.46565" fill="#FECE30" fill-opacity="0.68"/>
</svg>
