<svg width="97" height="25" viewBox="0 0 97 25" fill="none" xmlns="http://www.w3.org/2000/svg">
<path d="M15.1546 3.18597V0.413818H0V24.3116H15.1546V21.5076H3.22235V13.0956H10.1456V14.4976H13.4318V11.7892H10.9432V10.3872H3.22235V3.18597H15.1546Z" fill="#FFCC11"/>
<path d="M57.1221 20.5991C57.1437 19.6058 57.2628 18.6234 57.4793 17.6517C57.6958 16.6585 57.9123 15.6652 58.1288 14.672C58.3669 13.6787 58.486 12.6855 58.486 11.6922C58.5076 10.7206 58.3777 9.75972 58.0963 8.80966C57.8149 7.8596 57.5334 6.92034 57.252 5.99187C56.9705 5.0418 56.8298 4.11333 56.8298 3.20646C56.8298 2.27799 57.0138 1.58704 57.3819 1.1336C57.7716 0.680158 58.4643 0.377866 59.4602 0.22672C60.456 0.0755734 61.874 0 63.7142 0C65.4245 0 66.9832 0.183535 68.3904 0.550604C69.7975 0.896082 70.9125 1.47907 71.7351 2.29958C72.5794 3.0985 73.0016 4.16732 73.0016 5.50604C73.0016 6.21858 72.8067 6.80158 72.4171 7.25502C72.0274 7.68686 71.5078 7.90278 70.8583 7.90278C70.3604 7.90278 69.9707 7.75164 69.6893 7.44935C69.4295 7.12546 69.2238 6.71521 69.0723 6.21858C68.9208 5.70037 68.7476 5.17136 68.5527 4.63155C68.3795 4.07015 68.1306 3.54114 67.8058 3.04452C67.4811 2.5263 67.0157 2.11605 66.4095 1.81376C65.825 1.48987 65.0348 1.32793 64.0389 1.32793C62.9565 1.32793 62.0905 1.695 61.4411 2.42914C60.7916 3.14168 60.4669 4.03776 60.4669 5.11738C60.4669 6.21859 60.6184 7.09307 60.9215 7.74084C61.2462 8.36702 61.6575 8.84205 62.1555 9.16594C62.675 9.46823 63.2379 9.68415 63.8441 9.81371C64.4719 9.92167 65.0889 10.008 65.6951 10.0728C66.3229 10.116 66.8858 10.2024 67.3837 10.3319C67.9033 10.4399 68.3146 10.645 68.6177 10.9473C68.9424 11.228 69.1048 11.6814 69.1048 12.3076C69.1048 12.977 68.8991 13.4844 68.4878 13.8299C68.0981 14.1753 67.6651 14.3481 67.1888 14.3481C66.5827 14.3481 65.9657 14.1753 65.3379 13.8299C64.7317 13.4844 64.1472 13.0525 63.5843 12.5343C63.0431 12.0161 62.5452 11.4871 62.0905 10.9473C61.6575 10.3859 61.3003 9.88928 61.0189 9.45743C60.7591 9.00399 60.6184 8.7017 60.5967 8.55055H60.4669V15.1578C60.4669 16.367 60.4885 17.479 60.5318 18.4938C60.5751 19.5086 60.7375 20.3939 61.0189 21.1497C61.3003 21.8838 61.7766 22.456 62.4477 22.8663C63.1405 23.2549 64.1255 23.4492 65.4028 23.4492C66.2038 23.4492 66.8208 23.2873 67.2538 22.9634C67.7084 22.6179 68.0656 22.2077 68.3254 21.7327C68.5852 21.236 68.8342 20.7394 69.0723 20.2428C69.3321 19.7462 69.646 19.3359 70.014 19.012C70.4037 18.6666 70.9558 18.4938 71.6702 18.4938C72.4279 18.4938 73.0449 18.7205 73.5212 19.174C74.0191 19.6058 74.268 20.1348 74.268 20.761C74.268 21.6679 73.9 22.4236 73.164 23.0282C72.4279 23.6112 71.4104 24.043 70.1115 24.3237C68.8125 24.626 67.3187 24.7772 65.6301 24.7772C63.8982 24.7772 62.4802 24.734 61.3761 24.6476C60.272 24.5612 59.4061 24.3777 58.7782 24.097C58.1721 23.8163 57.7391 23.3953 57.4793 22.8339C57.2412 22.2725 57.1221 21.5275 57.1221 20.5991Z" fill="#4AB15E"/>
<path d="M50.1562 6.61199C50.031 5.52167 49.5181 4.66889 48.6177 4.05364C47.7173 3.4306 46.5702 3.11908 45.1765 3.11908C43.7202 3.11908 42.5496 3.45007 41.6649 4.11205C40.7879 4.77403 40.3495 5.62292 40.3495 6.65872C40.3495 7.09484 40.4434 7.49982 40.6314 7.87364C40.8193 8.23967 41.0502 8.5473 41.3243 8.79652C41.6062 9.03794 41.9546 9.26379 42.3696 9.47407C42.7924 9.68435 43.1799 9.84789 43.5323 9.96471C43.8846 10.0815 44.28 10.1945 44.7185 10.3035L47.0674 10.9109C51.6791 12.0402 53.985 14.2831 53.985 17.6398C53.985 19.7114 53.1903 21.3975 51.6008 22.698C50.0192 23.9986 47.8465 24.6489 45.0826 24.6489C42.397 24.6489 40.2555 24.0259 38.6582 22.7798C37.061 21.526 36.2036 19.8126 36.0862 17.6398H39.727C39.8288 18.8858 40.373 19.8399 41.3595 20.5018C42.3539 21.156 43.5871 21.4831 45.0591 21.4831C46.6172 21.4831 47.8934 21.1288 48.8878 20.4201C49.89 19.7036 50.3911 18.7651 50.3911 17.6047C50.3911 17.1919 50.3128 16.8142 50.1562 16.4716C49.9996 16.1289 49.7922 15.8368 49.5338 15.5954C49.2832 15.354 48.9505 15.132 48.5355 14.9295C48.1283 14.7193 47.7173 14.544 47.3023 14.4039C46.8873 14.2559 46.398 14.1079 45.8342 13.9599L42.992 13.1889C38.8188 12.0675 36.7321 9.96082 36.7321 6.86899C36.7321 5.52167 37.104 4.32233 37.8479 3.27095C38.5995 2.21957 39.6213 1.41352 40.9132 0.852783C42.2051 0.284261 43.6536 0 45.2587 0C47.686 0 49.6786 0.619144 51.2368 1.85743C52.7949 3.09572 53.6013 4.68057 53.6561 6.61199H50.1562Z" fill="#FF6242"/>
<path d="M97 0.724121V24.2599H93.7275L81.7323 6.99878H81.5134V24.2599H77.9529V0.724121H81.2484L93.2551 18.0082H93.474V0.724121H97Z" fill="#272727"/>
<path d="M19.8056 13.1147C17.7798 11.8463 18.5917 9.84763 19.2509 9.00684C19.174 9.11895 19.2351 9.05488 20.095 7.9018C20.955 6.74871 20.2604 5.08316 19.8056 4.39452C19.468 3.52971 19.1159 1.58389 20.4085 0.719088C22.0244 -0.361916 23.592 -0.241811 24.9908 1.19954C26.1098 2.35262 27.5794 2.08036 28.1742 1.80009C29.0746 1.03938 31.1214 -0.0256171 32.1053 1.80009C33.3353 4.08223 32.4671 6.41241 32.1053 7.25319C31.7436 8.09398 30.7065 8.26214 28.9701 8.16605C27.581 8.08918 27.1914 6.11953 26.9684 5.13922C26.5972 4.2933 25.3477 2.92916 23.592 3.89006C21.3973 5.09118 21.952 8.09399 22.2414 9.00684C22.5308 9.9197 24.8943 12.1005 26.9684 10.1839C28.6276 8.6507 29.8142 8.95878 30.4895 9.24706C31.1889 9.43923 32.578 9.85724 33.0218 11.7214C33.5765 14.0516 32.7148 13.7141 32.4671 15.3488C32.2741 16.622 33.5041 17.751 33.6488 18.9281C33.7935 20.1052 33.4878 21.5102 31.7677 23.1561C29.6523 25.1803 25.7143 24.6935 24.5326 24.6935C23.3659 24.6935 21.1562 23.9969 20.095 23.1561C19.2509 22.4873 18.5756 21.3304 17.9968 19.2404C17.2565 16.5673 18.8409 15.6611 19.2509 15.3488C19.668 15.0311 21.8556 14.556 22.8444 15.3488C23.8332 16.1415 23.8332 17.3907 23.592 19.2404C23.3508 21.0901 23.8281 21.7399 24.5326 22.6036C25.1596 23.3723 28.8736 23.7086 29.6695 22.1952C30.4627 20.6869 29.4354 20.0376 28.1871 19.2485L28.1742 19.2404C26.9202 18.4477 27.1372 16.9823 27.5231 15.9974C27.909 15.0125 28.4154 14.556 27.7643 12.8745C27.2433 11.5292 25.5214 11.5292 24.5326 12.2259C23.3749 13.1147 21.8315 14.3831 19.8056 13.1147Z" fill="#9897DE"/>
</svg>
