<svg width="725" height="186" viewBox="0 0 725 186" fill="none" xmlns="http://www.w3.org/2000/svg">
<path d="M114.065 23.8593V3.09766L0.943359 3.09766L0.943359 182.078H114.065V161.077H24.9966V98.0763H76.6752V108.576H101.205V88.2921H82.629V77.792H24.9966L24.9966 23.8593L114.065 23.8593Z" fill="#FECE30"/>
<path d="M427.334 154.274C427.495 146.835 428.384 139.478 430 132.2C431.616 124.762 433.232 117.323 434.848 109.884C436.626 102.445 437.515 95.0064 437.515 87.5676C437.676 80.2906 436.707 73.0943 434.606 65.9789C432.505 58.8636 430.404 51.829 428.303 44.8754C426.203 37.76 425.152 30.8063 425.152 24.0144C425.152 17.0607 426.526 11.8859 429.273 8.48994C432.182 5.09397 437.353 2.82998 444.786 1.69799C452.22 0.565999 462.805 0 476.541 0C489.307 0 500.942 1.37456 511.446 4.12369C521.95 6.7111 530.272 11.0774 536.413 17.2224C542.715 23.2058 545.866 31.2106 545.866 41.2368C545.866 46.5734 544.412 50.9396 541.503 54.3356C538.594 57.5699 534.716 59.187 529.868 59.187C526.151 59.187 523.242 58.055 521.142 55.791C519.202 53.3653 517.667 50.2928 516.536 46.5734C515.405 42.6923 514.112 38.7303 512.658 34.6875C511.365 30.4829 509.506 26.521 507.083 22.8015C504.659 18.9204 501.184 15.8479 496.659 13.5839C492.296 11.1582 486.398 9.94535 478.964 9.94535C470.885 9.94535 464.421 12.6945 459.573 18.1927C454.725 23.5293 452.301 30.2404 452.301 38.326C452.301 46.5734 453.432 53.1227 455.694 57.9741C458.118 62.6638 461.189 66.2215 464.905 68.6472C468.784 70.9112 472.985 72.5283 477.51 73.4986C482.196 74.3072 486.802 74.954 491.327 75.4392C496.013 75.7626 500.215 76.4094 503.931 77.3797C507.81 78.1883 510.88 79.7246 513.142 81.9885C515.566 84.0908 516.778 87.4868 516.778 92.1765C516.778 97.1896 515.243 100.99 512.173 103.577C509.264 106.165 506.032 107.458 502.477 107.458C497.952 107.458 493.347 106.165 488.66 103.577C484.136 100.99 479.772 97.7556 475.571 93.8745C471.531 89.9933 467.814 86.0314 464.421 81.9885C461.189 77.784 458.522 74.0646 456.422 70.8303C454.482 67.4343 453.432 65.1704 453.27 64.0384H452.301V113.523C452.301 122.579 452.462 130.907 452.786 138.507C453.109 146.108 454.321 152.738 456.422 158.398C458.522 163.896 462.077 168.182 467.087 171.254C472.258 174.165 479.611 175.62 489.145 175.62C495.124 175.62 499.73 174.408 502.962 171.982C506.355 169.394 509.022 166.322 510.961 162.764C512.9 159.045 514.758 155.325 516.536 151.606C518.475 147.887 520.818 144.814 523.566 142.388C526.474 139.801 530.595 138.507 535.928 138.507C541.584 138.507 546.189 140.205 549.744 143.601C553.461 146.835 555.32 150.797 555.32 155.487C555.32 162.279 552.572 167.939 547.078 172.467C541.584 176.833 533.989 180.068 524.293 182.17C514.597 184.434 503.447 185.566 490.842 185.566C477.914 185.566 467.329 185.242 459.088 184.595C450.846 183.949 444.383 182.574 439.696 180.472C435.171 178.37 431.939 175.216 430 171.012C428.223 166.807 427.334 161.228 427.334 154.274Z" fill="#4AB15E"/>
<path d="M374.984 51.8358C374.065 43.7989 370.302 37.5129 363.695 32.9778C357.088 28.3852 348.672 26.089 338.446 26.089C327.76 26.089 319.172 28.5288 312.68 33.4083C306.245 38.2879 303.028 44.5452 303.028 52.1803C303.028 55.395 303.718 58.3802 305.096 61.1357C306.475 63.8338 308.17 66.1013 310.181 67.9384C312.249 69.7179 314.805 71.3828 317.85 72.9327C320.953 74.4827 323.796 75.6882 326.381 76.5493C328.967 77.4104 331.868 78.2428 335.085 79.0465L352.32 83.5242C386.158 91.8482 403.077 108.381 403.077 133.123C403.077 148.394 397.245 160.822 385.583 170.409C373.978 179.996 358.036 184.789 337.757 184.789C318.051 184.789 302.339 180.197 290.619 171.012C278.899 161.769 272.609 149.14 271.747 133.123H298.461C299.208 142.309 303.201 149.341 310.439 154.22C317.735 159.043 326.784 161.454 337.584 161.454C349.017 161.454 358.381 158.842 365.677 153.618C373.03 148.336 376.707 141.419 376.707 132.865C376.707 129.823 376.133 127.038 374.984 124.513C373.835 121.987 372.312 119.834 370.416 118.054C368.578 116.275 366.137 114.639 363.092 113.146C360.104 111.596 357.088 110.304 354.043 109.271C350.999 108.18 347.408 107.09 343.272 105.999L322.418 100.316C291.797 92.0491 276.487 76.5206 276.487 53.7302C276.487 43.7989 279.215 34.9583 284.673 27.2084C290.188 19.4585 297.685 13.5169 307.165 9.38368C316.644 5.193 327.272 3.09766 339.049 3.09766C356.858 3.09766 371.479 7.66148 382.912 16.7891C394.344 25.9168 400.262 37.599 400.664 51.8358L374.984 51.8358Z" fill="#FF6242"/>
<path d="M725 5.42187V181.69H700.573L611.035 52.4152H609.401V181.69H582.823V5.42188L607.422 5.42187L697.046 134.869H698.68V5.42187H725Z" fill="#F8F5E8"/>
<path d="M149.308 99.5989C134.43 90.2658 140.393 75.5591 145.234 69.3724C144.669 70.1973 145.118 69.7259 151.433 61.2412C157.749 52.7565 152.648 40.5009 149.308 35.4337C146.828 29.0702 144.242 14.7523 153.736 8.38889C165.602 0.434586 177.115 1.31835 187.388 11.9242C195.606 20.4088 206.398 18.4055 210.767 16.3432C217.379 10.7457 232.411 2.90916 239.637 16.3432C248.67 33.1357 242.294 50.2818 239.637 56.4686C236.98 62.6553 229.364 63.8926 216.612 63.1856C206.41 62.6199 203.549 48.1267 201.911 40.9134C199.185 34.6889 190.009 24.6512 177.115 31.7217C160.997 40.5599 165.071 62.6553 167.196 69.3724C169.322 76.0894 186.679 92.1363 201.911 78.0338C214.097 66.7518 222.811 69.0187 227.77 71.1399C232.907 72.554 243.108 75.6298 246.367 89.3467C250.441 106.493 244.113 104.01 242.294 116.038C240.877 125.406 249.91 133.714 250.972 142.376C252.035 151.037 249.79 161.375 237.157 173.486C221.622 188.381 192.701 184.799 184.022 184.799C175.455 184.799 159.226 179.673 151.433 173.486C145.234 168.565 140.275 160.052 136.024 144.674C130.587 125.004 142.223 118.336 145.234 116.038C148.297 113.7 164.363 110.205 171.624 116.038C178.886 121.871 178.886 131.063 177.115 144.674C175.344 158.284 178.849 163.065 184.022 169.421C188.627 175.077 215.903 177.552 221.748 166.416C227.573 155.318 220.029 150.54 210.861 144.733L210.767 144.674C201.557 138.84 203.151 128.058 205.985 120.811C208.819 113.563 212.538 110.205 207.756 97.8313C203.93 87.9325 191.284 87.9325 184.022 93.0587C175.521 99.599 164.186 108.932 149.308 99.5989Z" fill="#9897DE"/>
</svg>
