<svg width="24" height="24" viewBox="0 0 24 24" fill="none" xmlns="http://www.w3.org/2000/svg">
<path fill-rule="evenodd" clip-rule="evenodd" d="M13.0962 18.2554L12 19.2126L10.9038 18.2554C6.98842 14.8366 5 11.8112 5 9C5 5.02141 8.10349 2 12 2C15.8965 2 19 5.02141 19 9C19 11.8112 17.0116 14.8366 13.0962 18.2554ZM5.68555 14.8034C6.09614 15.3656 6.55352 15.9373 7.05748 16.519C5.19525 16.9384 4 17.5337 4 18C4 18.807 7.57914 20 12 20C16.4209 20 20 18.807 20 18C20 17.5337 18.8047 16.9384 16.9425 16.519C17.4465 15.9373 17.9039 15.3656 18.3144 14.8034C20.5633 15.4858 22 16.5804 22 18C22 20.5068 17.5203 22 12 22C6.47973 22 2 20.5068 2 18C2 16.5804 3.43674 15.4858 5.68555 14.8034ZM12 4C14.8038 4 17 6.13816 17 9C17 11.047 15.3727 13.5659 12 16.556C8.62733 13.5659 7 11.047 7 9C7 6.13816 9.19624 4 12 4ZM12 6C13.6569 6 15 7.34315 15 9C15 10.6569 13.6569 12 12 12C10.3431 12 9 10.6569 9 9C9 7.34315 10.3431 6 12 6ZM11 9C11 8.44772 11.4477 8 12 8C12.5523 8 13 8.44772 13 9C13 9.55228 12.5523 10 12 10C11.4477 10 11 9.55228 11 9Z" fill="black"/>
</svg>
