<svg width="324" height="324" viewBox="0 0 324 324" fill="none" xmlns="http://www.w3.org/2000/svg">
<path fill-rule="evenodd" clip-rule="evenodd" d="M311.592 222.921C306.165 236.108 299.04 248.42 290.49 259.586L161.672 161.56L311.592 222.921ZM322.099 184.182L161.672 161.56L322.301 140.428C323.206 147.344 323.673 154.397 323.673 161.56C323.673 169.238 323.136 176.79 322.099 184.182ZM312.178 101.641L161.672 161.56L290.222 63.1842C299.203 74.8481 306.626 87.7707 312.178 101.641ZM260.634 33.5886L161.672 161.56L223.48 12.1328C236.86 17.6397 249.339 24.8857 260.634 33.5886ZM184.827 1.61737L161.672 161.56L140.359 1.40979C147.386 0.479645 154.555 -0.000396729 161.836 -0.000396729C169.641 -0.000396729 177.317 0.551147 184.827 1.61737ZM100.742 11.908L161.672 161.56L63.3985 33.3126C74.753 24.6139 87.2959 17.3842 100.742 11.908ZM33.3111 63.3665L161.672 161.56L11.7814 100.932C17.2721 87.4018 24.5456 74.7833 33.3111 63.3665ZM1.45822 139.779L161.672 161.56L1.5108 183.726C0.514771 176.48 0.00012207 169.08 0.00012207 161.56C0.00012207 154.173 0.496643 146.903 1.45822 139.779ZM11.3624 221.145L161.672 161.56L33.1656 259.563C24.2407 247.903 16.87 234.995 11.3624 221.145ZM63.1629 289.626L161.672 161.56L101.638 311.573C87.7593 306.018 74.8308 298.599 63.1629 289.626ZM140.332 321.706L161.672 161.56L183.163 321.73C176.184 322.647 169.066 323.12 161.836 323.12C154.546 323.12 147.367 322.639 140.332 321.706ZM223.291 311.065C236.74 305.549 249.281 298.278 260.628 289.536L161.672 161.56L223.291 311.065Z" fill="#272727"/>
</svg>
