<svg width="768" height="1025" viewBox="0 0 768 1025" fill="none" xmlns="http://www.w3.org/2000/svg">
<path fill-rule="evenodd" clip-rule="evenodd" d="M768 0H0V1025H768V0ZM78.1398 625.135C134.167 681.163 224.832 681.443 281.205 625.976C225.736 682.35 226.015 773.016 282.043 829.044C338.353 885.353 429.647 885.353 485.957 829.044C542.112 772.888 542.265 681.937 486.415 625.592C542.761 681.435 633.707 681.279 689.86 625.126C746.169 568.817 746.169 477.522 689.86 421.213C633.841 365.193 543.194 364.905 486.819 420.349C542.264 363.973 541.977 273.325 485.957 217.305C429.647 160.996 338.353 160.996 282.043 217.305C225.903 273.446 225.735 364.364 281.541 420.713C225.192 364.914 134.278 365.084 78.1398 421.222C21.8308 477.531 21.8308 568.826 78.1398 625.135Z" fill="#FF6242"/>
</svg>
