<svg width="830" height="214" viewBox="0 0 830 214" fill="none" xmlns="http://www.w3.org/2000/svg">
<path d="M6.34683 17.7807H18.3768V12.5901H4.51486V15.4602H0.118133V23.7041H6.34683V17.7807ZM19.2927 34.7569C23.8727 32.986 26.4985 29.1389 26.4985 24.9864V18.4524H20.3309V24.9864C20.3309 29.3221 16.6669 32.8028 11.3542 32.8028H7.93454V38.1766H13.1251C18.1325 38.1766 22.4682 40.8635 22.4682 46.4815V52.9545H28.6358V46.4205C28.6358 40.9246 25.2161 36.3446 19.2927 34.7569ZM6.34683 48.6799H0.118133V56.9238H4.51486V59.7939H20.8194V54.6033H6.34683V48.6799ZM37.4398 59H29.9263L46.8087 12.0866H54.9865L71.8689 59H64.3555L60.0719 46.5844H41.7463L37.4398 59ZM43.8079 40.6286H58.0102L51.0923 20.608H50.7258L43.8079 40.6286ZM75.7409 12.0866H84.331L99.2663 48.5544H99.8161L114.751 12.0866H123.342V59H116.607V25.0519H116.172L102.336 58.9313H96.7466L82.9108 25.029H82.4755V59H75.7409V12.0866ZM130.73 59V12.0866H160.142V18.1798H137.808V32.4738H158.607V38.5441H137.808V52.9068H160.417V59H130.73ZM171.084 33.2578C171.084 35.3925 171.565 37.4435 172.528 39.4108C173.49 41.3781 174.851 43.0105 176.609 44.3081C178.367 45.5638 180.439 46.1917 182.825 46.1917C185.043 46.1917 187.052 45.5638 188.852 44.3081C190.652 43.0524 192.096 41.4409 193.184 39.4736C194.273 37.4645 194.817 35.3298 194.817 33.0695H195.005L194.817 43.3035C194.817 44.35 194.775 45.5429 194.691 46.8823C194.607 48.1799 194.524 49.4775 194.44 50.7751C194.356 52.0726 194.273 53.2237 194.189 54.2283C194.147 55.2329 194.126 55.9235 194.126 56.3002C194.126 57.3466 194.524 58.2047 195.319 58.8744C196.156 59.5441 197.056 59.879 198.019 59.879C198.982 59.879 199.861 59.5441 200.656 58.8744C201.451 58.2047 201.849 57.3466 201.849 56.3002C201.849 55.9235 201.807 55.2329 201.723 54.2283C201.681 53.2237 201.598 52.0517 201.472 50.7123C201.388 49.3728 201.305 48.0543 201.221 46.7568C201.179 45.4173 201.158 44.2663 201.158 43.3035V30.9347C201.158 29.972 201.179 28.6745 201.221 27.042C201.305 25.4096 201.388 23.7353 201.472 22.0192C201.598 20.2612 201.681 18.7334 201.723 17.4358C201.807 16.0964 201.849 15.2383 201.849 14.8616C201.849 13.7733 201.451 12.9152 200.656 12.2874C199.861 11.6176 198.982 11.2828 198.019 11.2828C197.056 11.2828 196.156 11.6176 195.319 12.2874C194.524 12.9152 194.126 13.7733 194.126 14.8616C194.126 17.2474 194.126 19.3403 194.126 21.1402C194.168 22.8982 194.189 24.7817 194.189 26.7909C194.189 27.921 194.021 29.1977 193.687 30.6208C193.352 32.0021 192.766 33.3415 191.929 34.6391C191.091 35.9367 189.94 37.025 188.475 37.904C187.01 38.7411 185.127 39.1597 182.825 39.1597C180.564 39.1597 178.702 38.7411 177.237 37.904C175.772 37.025 174.621 35.9367 173.783 34.6391C172.988 33.3415 172.423 32.0021 172.088 30.6208C171.753 29.1977 171.586 27.921 171.586 26.7909C171.586 24.8655 171.607 23.0028 171.649 21.2029C171.732 19.3612 171.774 17.2474 171.774 14.8616C171.774 13.7733 171.377 12.9152 170.581 12.2874C169.786 11.6176 168.907 11.2828 167.944 11.2828C166.982 11.2828 166.082 11.6176 165.245 12.2874C164.449 12.9152 164.052 13.7733 164.052 14.8616C164.052 15.2383 164.073 16.0964 164.114 17.4358C164.198 18.7752 164.282 20.3239 164.366 22.0819C164.491 23.84 164.575 25.5561 164.617 27.2304C164.7 28.9047 164.742 30.265 164.742 31.3115V43.6803C164.742 44.7267 164.7 45.8987 164.617 47.1963C164.575 48.4938 164.491 49.7705 164.366 51.0262C164.282 52.2819 164.198 53.3911 164.114 54.3539C164.073 55.3166 164.052 55.9863 164.052 56.363C164.052 57.4094 164.449 58.2675 165.245 58.9372C166.082 59.6069 166.982 59.9418 167.944 59.9418C168.907 59.9418 169.786 59.6069 170.581 58.9372C171.377 58.2675 171.774 57.4094 171.774 56.363C171.774 55.9863 171.732 55.3166 171.649 54.3539C171.607 53.3493 171.544 52.2191 171.46 50.9634C171.377 49.6658 171.293 48.3683 171.209 47.0707C171.126 45.7731 171.084 44.643 171.084 43.6803L170.895 33.2578H171.084ZM237.957 59H230.879V41.2471H221.258H220.8L211.271 59H203.207L213.607 40.0101C210.767 38.9564 208.621 37.2918 207.17 35.0164C205.719 32.7257 204.994 29.9845 204.994 26.7928C204.994 24.609 205.33 22.6314 206.002 20.8599C206.689 19.0732 207.689 17.5232 209.003 16.2098C210.331 14.8965 212.034 13.8809 214.111 13.1632C216.188 12.4454 218.563 12.0866 221.235 12.0866H237.957V59ZM230.879 35.1539V18.1569H221.991C218.601 18.1569 216.104 18.9052 214.5 20.4018C212.912 21.8984 212.118 24.0287 212.118 26.7928C212.118 32.3669 215.379 35.1539 221.899 35.1539H230.879ZM245.34 12.0866H252.349V46.5386H252.784L276.653 12.0866H283.205V59H276.127V24.5938H275.691L251.845 59H245.34V12.0866ZM268.773 0.174953H274.409C274.409 2.77108 273.492 4.87088 271.66 6.47437C269.827 8.07785 267.368 8.87959 264.284 8.87959C261.229 8.87959 258.786 8.07785 256.953 6.47437C255.121 4.87088 254.205 2.77108 254.205 0.174953H259.817C259.817 1.44247 260.176 2.48856 260.893 3.31321C261.626 4.12259 262.757 4.52728 264.284 4.52728C265.796 4.52728 266.918 4.11495 267.651 3.2903C268.399 2.46565 268.773 1.4272 268.773 0.174953ZM288.314 18.1798V12.0866H324.621V18.1798H309.984V59H302.928V18.1798H288.314ZM327.985 11.4376V59H355.775V52.2054H334.78V18.2322H344.768C340.623 21.8334 337.973 26.3858 337.973 31.9574C337.973 38.0725 341.234 42.8967 347.757 42.8967C350.679 42.8967 353.397 41.9455 355.707 40.1109V24.3474C355.707 29.5113 352.581 36.17 346.67 36.17C342.865 36.17 340.827 33.3843 340.827 29.7831C340.827 20.8821 353.397 13.3401 361.007 11.4376H327.985ZM374.892 12.0866H381.902V46.5386H382.337L406.206 12.0866H412.757V59H405.679V24.5938H405.244L381.398 59H374.892V12.0866ZM420.18 59V12.0866H427.258V32.4738H450.646V12.0866H457.747V59H450.646V38.5441H427.258V59H420.18ZM494.405 12.0866V18.1798H472.231V59H465.153V12.0866H494.405ZM529.485 26.6025C529.485 16.5568 522.767 11.9106 510.901 11.9106H496.837V59H503.178V41.42H519.691V37.2133H525.467V33.6345H529.485V26.6025ZM518.435 31.8765V36.0832H503.178V17.2474H509.959C518.875 17.2474 523.144 20.01 523.144 26.5397V31.8765H518.435ZM534.301 59V12.0866H563.714V18.1798H541.379V32.4738H562.179V38.5441H541.379V52.9068H563.988V59H534.301ZM566.715 70.3389V52.9984H569.807C570.647 52.2806 571.403 51.4102 572.075 50.387C572.747 49.3485 573.389 48.0199 573.999 46.4012C574.626 44.7671 575.145 42.7284 575.557 40.285C575.969 37.8416 576.26 35.047 576.428 31.9011L577.527 12.0866H606.459V52.9984H611.773V70.2702H604.993V59H573.496V70.3389H566.715ZM578.146 52.9984H599.678V18.1798H583.941L583.208 31.9011C582.658 41.4456 580.971 48.4781 578.146 52.9984ZM616.624 12.0866H623.634V46.5386H624.069L647.938 12.0866H654.489V59H647.411V24.5938H646.976L623.13 59H616.624V12.0866ZM661.912 59V12.0866H691.325V18.1798H668.99V32.4738H689.79V38.5441H668.99V52.9068H691.599V59H661.912ZM696.077 59H702.785C702.785 54.9748 701.846 34.3123 707.884 34.3123C712.245 34.3123 718.282 43.1006 724.119 43.1006C728.949 43.1006 731.23 36.3249 732.303 32.568V59H739.012V12.0397H732.303C732.303 16.0648 733.243 36.6603 727.205 36.6603C722.777 36.6603 716.672 27.872 710.903 27.872C706.073 27.872 703.792 34.5135 702.785 38.2704V12.0397H696.077V59ZM742.204 18.1798V12.0866H778.511V18.1798H763.874V59H756.818V18.1798H742.204ZM790.778 31.0077H801.247C806.424 31.0077 810.456 32.2447 813.342 34.7186C816.228 37.1926 817.664 40.5446 817.648 44.7748C817.664 49.0507 816.213 52.4944 813.296 55.1058C810.394 57.7019 806.378 59 801.247 59H783.677V12.0866H790.778V31.0077ZM829.056 12.0866V59H821.978V12.0866H829.056ZM790.778 36.9635V53.0442H801.247C802.713 53.0442 804.049 52.8151 805.256 52.357C806.477 51.8988 807.47 51.2804 808.234 50.5015C809.012 49.7227 809.608 48.837 810.02 47.8443C810.448 46.8364 810.662 45.7827 810.662 44.6832C810.662 42.4688 809.822 40.6286 808.142 39.1626C806.477 37.6965 804.179 36.9635 801.247 36.9635H790.778ZM64.4773 132V85.0866H81.6575C84.0857 85.0866 86.2542 85.3996 88.1631 86.0258C90.072 86.6519 91.6221 87.53 92.8132 88.6601C94.0044 89.7749 94.9054 91.0729 95.5163 92.5542C96.1424 94.0355 96.4554 95.6543 96.4554 97.4105C96.4554 98.8307 96.2493 100.114 95.8369 101.259C95.4246 102.404 94.8443 103.374 94.096 104.168C93.363 104.947 92.5383 105.596 91.6221 106.115C90.7058 106.619 89.6826 107.016 88.5525 107.306V107.764C89.7437 107.826 90.9043 108.131 92.0344 108.681C93.1797 109.23 94.2182 109.979 95.1497 110.926C96.0966 111.872 96.8525 113.086 97.4175 114.568C97.9978 116.034 98.288 117.637 98.288 119.378C98.288 121.211 97.9673 122.883 97.3259 124.395C96.6845 125.907 95.73 127.235 94.4625 128.381C93.2103 129.526 91.561 130.419 89.5146 131.061C87.4683 131.687 85.1165 132 82.4593 132H64.4773ZM71.5556 125.93H81.7721C85.0096 125.93 87.3996 125.311 88.942 124.074C90.4844 122.822 91.2556 121.142 91.2556 119.035C91.2556 116.744 90.408 114.82 88.7129 113.262C87.0178 111.689 84.7882 110.903 82.0241 110.903H71.5556V125.93ZM71.5556 105.382H81.0391C83.4672 105.382 85.483 104.703 87.0865 103.343C88.7053 101.984 89.5146 100.19 89.5146 97.9603C89.5146 95.9139 88.8045 94.2646 87.3843 93.0124C85.9793 91.7449 83.9253 91.1111 81.2223 91.1111H71.5556V105.382ZM116.15 132H122.858V111.874H140.703C148.284 111.874 154.389 106.038 154.389 98.3898C154.389 90.742 148.284 85.0397 140.703 85.0397H116.15V132ZM122.858 105.166V91.7483H140.77C144.594 91.7483 147.68 94.5659 147.68 98.4569C147.68 102.348 144.594 105.166 140.77 105.166H122.858ZM157.187 132V85.0866H186.599V91.1798H164.265V105.474H185.065V111.544H164.265V125.907H186.874V132H157.187ZM234.773 125.746L234.155 143.087H227.1V132H193.151V85.0866H199.932V125.861H222.564V85.0866H229.367V125.746H234.773ZM237.558 124.842C237.6 122.917 237.831 121.012 238.249 119.129C238.668 117.203 239.086 115.278 239.505 113.353C239.965 111.427 240.195 109.502 240.195 107.576C240.237 105.693 239.986 103.83 239.442 101.988C238.898 100.147 238.354 98.3259 237.81 96.526C237.265 94.6843 236.993 92.8844 236.993 91.1264C236.993 89.3266 237.349 87.9872 238.061 87.1082C238.814 86.2291 240.154 85.6431 242.079 85.3501C244.004 85.0571 246.746 84.9106 250.304 84.9106C253.611 84.9106 256.624 85.2664 259.345 85.978C262.066 86.6477 264.222 87.7779 265.812 89.3684C267.445 90.9172 268.261 92.9891 268.261 95.5842C268.261 96.9655 267.884 98.0957 267.131 98.9747C266.377 99.8118 265.373 100.23 264.117 100.23C263.154 100.23 262.401 99.9374 261.857 99.3514C261.354 98.7235 260.957 97.9282 260.664 96.9655C260.371 95.9609 260.036 94.9354 259.659 93.889C259.324 92.8007 258.843 91.7752 258.215 90.8125C257.587 89.8079 256.687 89.0127 255.515 88.4267C254.385 87.7988 252.857 87.4849 250.932 87.4849C248.839 87.4849 247.165 88.1964 245.909 89.6196C244.653 91.0009 244.025 92.7379 244.025 94.8308C244.025 96.9655 244.318 98.6607 244.904 99.9165C245.532 101.13 246.328 102.051 247.29 102.679C248.295 103.265 249.383 103.684 250.555 103.935C251.769 104.144 252.962 104.311 254.134 104.437C255.348 104.521 256.436 104.688 257.399 104.939C258.403 105.149 259.199 105.546 259.785 106.132C260.413 106.676 260.726 107.555 260.726 108.769C260.726 110.067 260.329 111.05 259.533 111.72C258.78 112.39 257.943 112.725 257.022 112.725C255.85 112.725 254.657 112.39 253.443 111.72C252.271 111.05 251.141 110.213 250.053 109.209C249.006 108.204 248.044 107.179 247.165 106.132C246.328 105.044 245.637 104.081 245.093 103.244C244.59 102.365 244.318 101.779 244.277 101.486H244.025V114.294C244.025 116.638 244.067 118.794 244.151 120.761C244.235 122.729 244.549 124.445 245.093 125.91C245.637 127.333 246.558 128.442 247.855 129.237C249.195 129.991 251.099 130.368 253.569 130.368C255.118 130.368 256.31 130.054 257.148 129.426C258.027 128.756 258.717 127.961 259.22 127.04C259.722 126.077 260.203 125.114 260.664 124.152C261.166 123.189 261.773 122.394 262.484 121.766C263.238 121.096 264.305 120.761 265.687 120.761C267.152 120.761 268.344 121.201 269.265 122.08C270.228 122.917 270.709 123.942 270.709 125.156C270.709 126.914 269.998 128.379 268.575 129.551C267.152 130.681 265.184 131.519 262.673 132.063C260.161 132.649 257.273 132.942 254.008 132.942C250.66 132.942 247.918 132.858 245.783 132.691C243.649 132.523 241.974 132.167 240.761 131.623C239.589 131.079 238.751 130.263 238.249 129.175C237.789 128.086 237.558 126.642 237.558 124.842ZM312.235 85.0866V132H305.18V91.134H283.098V132H276.042V85.0866H312.235ZM317.842 91.1798V85.0866H354.15V91.1798H339.512V132H332.457V91.1798H317.842ZM357.627 132H350.113L366.996 85.0866H375.174L392.056 132H384.542L380.259 119.584H361.933L357.627 132ZM363.995 113.629H378.197L371.279 93.608H370.913L363.995 113.629ZM399.781 98.8869C403.158 103.125 409.648 106.768 415.013 107.563V107.761C413.423 107.563 411.9 107.43 410.311 107.43C401.105 107.43 394.151 111.933 394.151 121.801C394.151 125.444 395.145 129.086 397.33 132H410.708C405.079 132 400.774 127.695 400.774 122.066C400.774 116.569 404.946 112.265 410.443 112.132L426.47 132H435.013L424.218 118.622C420.774 114.384 414.35 110.808 408.92 110.079L408.986 109.88C410.509 110.079 412.032 110.212 413.556 110.212C422.827 110.212 429.384 105.774 429.384 95.9068C429.384 92.2643 428.456 88.5557 426.205 85.6417H412.827C418.456 85.6417 422.761 89.9464 422.761 95.5756C422.761 100.874 418.92 105.112 413.622 105.51L397.661 85.6417H389.118L399.781 98.8869ZM488.415 85.0866V132H481.36V91.134H459.278V132H452.222V85.0866H488.415ZM535.484 98.4642C536.553 101.503 537.088 104.863 537.088 108.543C537.088 112.224 536.553 115.583 535.484 118.622C534.43 121.661 532.964 124.204 531.086 126.25C529.208 128.281 526.97 129.854 524.374 130.969C521.793 132.084 518.991 132.641 515.967 132.641C512.928 132.641 510.111 132.084 507.515 130.969C504.934 129.854 502.704 128.274 500.826 126.227C498.948 124.181 497.474 121.646 496.405 118.622C495.351 115.583 494.824 112.224 494.824 108.543C494.824 104.863 495.351 101.503 496.405 98.4642C497.474 95.4252 498.948 92.8902 500.826 90.8591C502.704 88.8128 504.934 87.2322 507.515 86.1174C510.111 85.0026 512.928 84.4452 515.967 84.4452C518.991 84.4452 521.793 85.0026 524.374 86.1174C526.97 87.2322 529.208 88.8128 531.086 90.8591C532.964 92.8902 534.43 95.4252 535.484 98.4642ZM529.001 116.103C529.719 113.858 530.078 111.338 530.078 108.543C530.078 105.749 529.719 103.229 529.001 100.984C528.299 98.7391 527.314 96.8913 526.046 95.4405C524.779 93.9745 523.29 92.852 521.58 92.0732C519.869 91.2944 517.999 90.9049 515.967 90.9049C513.936 90.9049 512.058 91.2944 510.332 92.0732C508.622 92.852 507.133 93.9745 505.865 95.4405C504.613 96.8913 503.628 98.7391 502.91 100.984C502.208 103.229 501.857 105.749 501.857 108.543C501.857 111.338 502.208 113.858 502.91 116.103C503.628 118.347 504.613 120.203 505.865 121.669C507.133 123.12 508.622 124.235 510.332 125.013C512.058 125.792 513.936 126.182 515.967 126.182C517.999 126.182 519.869 125.792 521.58 125.013C523.29 124.235 524.779 123.12 526.046 121.669C527.314 120.203 528.299 118.347 529.001 116.103ZM539.459 143.339V125.998H542.552C543.392 125.281 544.147 124.41 544.819 123.387C545.491 122.349 546.133 121.02 546.744 119.401C547.37 117.767 547.889 115.728 548.301 113.285C548.714 110.842 549.004 108.047 549.172 104.901L550.271 85.0866H579.203V125.998H584.517V143.27H577.737V132H546.24V143.339H539.459ZM550.89 125.998H572.422V91.1798H556.685L555.952 104.901C555.402 114.446 553.715 121.478 550.89 125.998ZM631.204 97.1977H638.139V89.1474H632.442V84.9984H608.477V90.2621H631.204V97.1977ZM632.814 119.801C630.832 125.25 626.621 127.665 621.419 127.665C612.874 127.665 607.114 119.863 607.114 108.159V95.34H600.86V108.221C600.86 123.021 609.158 132.929 621.481 132.929C629.408 132.929 635.476 129.089 638.697 121.535L632.814 119.801ZM643.566 132V85.0866H660.746C663.175 85.0866 665.343 85.3996 667.252 86.0258C669.161 86.6519 670.711 87.53 671.902 88.6601C673.093 89.7749 673.994 91.0729 674.605 92.5542C675.231 94.0355 675.544 95.6543 675.544 97.4105C675.544 98.8307 675.338 100.114 674.926 101.259C674.513 102.404 673.933 103.374 673.185 104.168C672.452 104.947 671.627 105.596 670.711 106.115C669.795 106.619 668.771 107.016 667.641 107.306V107.764C668.833 107.826 669.993 108.131 671.123 108.681C672.269 109.23 673.307 109.979 674.239 110.926C675.185 111.872 675.941 113.086 676.506 114.568C677.087 116.034 677.377 117.637 677.377 119.378C677.377 121.211 677.056 122.883 676.415 124.395C675.773 125.907 674.819 127.235 673.551 128.381C672.299 129.526 670.65 130.419 668.603 131.061C666.557 131.687 664.205 132 661.548 132H643.566ZM650.644 125.93H660.861C664.098 125.93 666.488 125.311 668.031 124.074C669.573 122.822 670.344 121.142 670.344 119.035C670.344 116.744 669.497 114.82 667.802 113.262C666.107 111.689 663.877 110.903 661.113 110.903H650.644V125.93ZM650.644 105.382H660.128C662.556 105.382 664.572 104.703 666.175 103.343C667.794 101.984 668.603 100.19 668.603 97.9603C668.603 95.9139 667.893 94.2646 666.473 93.0124C665.068 91.7449 663.014 91.1111 660.311 91.1111H650.644V105.382ZM722.017 98.4642C723.086 101.503 723.621 104.863 723.621 108.543C723.621 112.224 723.086 115.583 722.017 118.622C720.964 121.661 719.498 124.204 717.619 126.25C715.741 128.281 713.504 129.854 710.908 130.969C708.327 132.084 705.524 132.641 702.501 132.641C699.462 132.641 696.644 132.084 694.048 130.969C691.467 129.854 689.238 128.274 687.359 126.227C685.481 124.181 684.007 121.646 682.938 118.622C681.885 115.583 681.358 112.224 681.358 108.543C681.358 104.863 681.885 101.503 682.938 98.4642C684.007 95.4252 685.481 92.8902 687.359 90.8591C689.238 88.8128 691.467 87.2322 694.048 86.1174C696.644 85.0026 699.462 84.4452 702.501 84.4452C705.524 84.4452 708.327 85.0026 710.908 86.1174C713.504 87.2322 715.741 88.8128 717.619 90.8591C719.498 92.8902 720.964 95.4252 722.017 98.4642ZM715.535 116.103C716.253 113.858 716.611 111.338 716.611 108.543C716.611 105.749 716.253 103.229 715.535 100.984C714.832 98.7391 713.847 96.8913 712.58 95.4405C711.312 93.9745 709.823 92.852 708.113 92.0732C706.403 91.2944 704.532 90.9049 702.501 90.9049C700.47 90.9049 698.591 91.2944 696.866 92.0732C695.155 92.852 693.666 93.9745 692.399 95.4405C691.147 96.8913 690.162 98.7391 689.444 100.984C688.741 103.229 688.39 105.749 688.39 108.543C688.39 111.338 688.741 113.858 689.444 116.103C690.162 118.347 691.147 120.203 692.399 121.669C693.666 123.12 695.155 124.235 696.866 125.013C698.591 125.792 700.47 126.182 702.501 126.182C704.532 126.182 706.403 125.792 708.113 125.013C709.823 124.235 711.312 123.12 712.58 121.669C713.847 120.203 714.832 118.347 715.535 116.103ZM729.543 85.0866H736.553V119.539H736.988L760.857 85.0866H767.408V132H760.33V97.5938H759.895L736.049 132H729.543V85.0866ZM752.977 73.175H758.612C758.612 75.7711 757.696 77.8709 755.863 79.4744C754.031 81.0779 751.572 81.8796 748.487 81.8796C745.433 81.8796 742.989 81.0779 741.157 79.4744C739.324 77.8709 738.408 75.7711 738.408 73.175H744.02C744.02 74.4425 744.379 75.4886 745.097 76.3132C745.83 77.1226 746.96 77.5273 748.487 77.5273C749.999 77.5273 751.121 77.115 751.854 76.2903C752.603 75.4657 752.977 74.4272 752.977 73.175ZM134.292 202V155.087H151.014C153.671 155.087 156.038 155.476 158.115 156.255C160.207 157.018 161.91 158.087 163.223 159.462C164.552 160.821 165.552 162.417 166.224 164.249C166.911 166.082 167.255 168.09 167.255 170.274C167.255 172.458 166.911 174.473 166.224 176.321C165.537 178.154 164.529 179.757 163.201 181.132C161.887 182.506 160.184 183.583 158.092 184.362C156.015 185.125 153.648 185.507 150.991 185.507H141.37V202H134.292ZM141.37 179.505H150.35C153.664 179.505 156.122 178.673 157.726 177.009C159.329 175.329 160.131 173.084 160.131 170.274C160.131 167.464 159.322 165.242 157.703 163.608C156.099 161.974 153.618 161.157 150.258 161.157H141.37V179.505ZM171.637 202H164.123L181.006 155.087H189.183L206.066 202H198.552L194.269 189.584H175.943L171.637 202ZM178.005 183.629H192.207L185.289 163.608H184.923L178.005 183.629ZM251.56 195.746L250.941 213.087H243.886V202H209.938V155.087H216.718V195.861H239.35V155.087H246.154V195.746H251.56ZM256.422 155.087H263.432V189.539H263.867L287.736 155.087H294.288V202H287.209V167.594H286.774L262.928 202H256.422V155.087ZM340.858 168.464C341.927 171.503 342.462 174.863 342.462 178.543C342.462 182.224 341.927 185.583 340.858 188.622C339.804 191.661 338.338 194.204 336.46 196.25C334.582 198.281 332.344 199.854 329.748 200.969C327.167 202.084 324.365 202.641 321.341 202.641C318.302 202.641 315.485 202.084 312.889 200.969C310.308 199.854 308.078 198.274 306.2 196.227C304.322 194.181 302.848 191.646 301.779 188.622C300.725 185.583 300.198 182.224 300.198 178.543C300.198 174.863 300.725 171.503 301.779 168.464C302.848 165.425 304.322 162.89 306.2 160.859C308.078 158.813 310.308 157.232 312.889 156.117C315.485 155.003 318.302 154.445 321.341 154.445C324.365 154.445 327.167 155.003 329.748 156.117C332.344 157.232 334.582 158.813 336.46 160.859C338.338 162.89 339.804 165.425 340.858 168.464ZM334.375 186.103C335.093 183.858 335.452 181.338 335.452 178.543C335.452 175.749 335.093 173.229 334.375 170.984C333.673 168.739 332.688 166.891 331.42 165.441C330.153 163.974 328.664 162.852 326.954 162.073C325.243 161.294 323.373 160.905 321.341 160.905C319.31 160.905 317.432 161.294 315.706 162.073C313.996 162.852 312.507 163.974 311.239 165.441C309.987 166.891 309.002 168.739 308.284 170.984C307.582 173.229 307.231 175.749 307.231 178.543C307.231 181.338 307.582 183.858 308.284 186.103C309.002 188.347 309.987 190.203 311.239 191.669C312.507 193.12 313.996 194.235 315.706 195.013C317.432 195.792 319.31 196.182 321.341 196.182C323.373 196.182 325.243 195.792 326.954 195.013C328.664 194.235 330.153 193.12 331.42 191.669C332.688 190.203 333.673 188.347 334.375 186.103ZM348.384 202V155.087H355.462V175.474H378.85V155.087H385.951V202H378.85V181.544H355.462V202H348.384ZM444.199 155.087V202H437.144V161.134H415.062V202H408.006V155.087H444.199ZM452.12 155.087H459.129V189.539H459.565L483.434 155.087H489.985V202H482.907V167.594H482.472L458.626 202H452.12V155.087ZM495.094 161.18V155.087H531.402V161.18H516.764V202H509.709V161.18H495.094ZM534.878 202H527.365L544.247 155.087H552.425L569.308 202H561.794L557.511 189.584H539.185L534.878 202ZM541.247 183.629H555.449L548.531 163.608H548.164L541.247 183.629ZM573.18 202V155.087H580.258V175.474H603.646V155.087H610.747V202H603.646V181.544H580.258V202H573.18ZM618.152 155.087H625.162V189.539H625.597L649.466 155.087H656.017V202H648.939V167.594H648.504L624.658 202H618.152V155.087ZM694.731 202H687.653V184.247H678.032H677.574L668.044 202H659.981L670.381 183.01C667.54 181.956 665.395 180.292 663.944 178.016C662.493 175.726 661.768 172.985 661.768 169.793C661.768 167.609 662.104 165.631 662.776 163.86C663.463 162.073 664.463 160.523 665.777 159.21C667.105 157.896 668.808 156.881 670.885 156.163C672.962 155.445 675.336 155.087 678.009 155.087H694.731V202ZM687.653 178.154V161.157H678.765C675.375 161.157 672.878 161.905 671.274 163.402C669.686 164.898 668.892 167.029 668.892 169.793C668.892 175.367 672.152 178.154 678.673 178.154H687.653Z" fill="#272727"/>
</svg>
