<svg width="323" height="215" viewBox="0 0 323 215" fill="none" xmlns="http://www.w3.org/2000/svg">
<path d="M54.1007 11.4856H61.5471V8.27263H52.9667V10.0492H50.2452V15.1521H54.1007V11.4856ZM62.1141 21.9937C64.949 20.8976 66.5744 18.5162 66.5744 15.9459V11.9014H62.7567V15.9459C62.7567 18.6296 60.4887 20.7842 57.2002 20.7842H55.0834V24.1105H58.2964C61.3959 24.1105 64.0796 25.7736 64.0796 29.2512V33.2579H67.8974V29.2134C67.8974 25.8114 65.7806 22.9765 62.1141 21.9937ZM54.1007 30.6119H50.2452V35.7148H52.9667V37.4914H63.0591V34.2785H54.1007V30.6119ZM73.347 37H68.6962L79.1463 7.96095H84.2083L94.6584 37H90.0076L87.356 29.3149H76.0127L73.347 37ZM77.2888 25.6283H86.0799L81.7978 13.2356H81.5709L77.2888 25.6283ZM97.0551 7.96095H102.372L111.617 30.5343H111.957L121.202 7.96095H126.519V37H122.351V15.9864H122.081L113.517 36.9575H110.057L101.493 15.9722H101.224V37H97.0551V7.96095ZM131.093 37V7.96095H149.299V11.7326H135.474V20.5805H148.349V24.338H135.474V33.2283H149.469V37H131.093ZM156.072 21.0658C156.072 22.3872 156.369 23.6567 156.965 24.8745C157.561 26.0922 158.403 27.1027 159.492 27.9058C160.58 28.6831 161.862 29.0718 163.339 29.0718C164.712 29.0718 165.956 28.6831 167.07 27.9058C168.184 27.1286 169.078 26.1311 169.752 24.9133C170.425 23.6697 170.762 22.3483 170.762 20.9492H170.879L170.762 27.284C170.762 27.9317 170.736 28.6702 170.684 29.4993C170.633 30.3024 170.581 31.1056 170.529 31.9088C170.477 32.712 170.425 33.4245 170.373 34.0463C170.348 34.6682 170.335 35.0957 170.335 35.3289C170.335 35.9766 170.581 36.5077 171.073 36.9223C171.591 37.3368 172.148 37.5441 172.744 37.5441C173.34 37.5441 173.884 37.3368 174.376 36.9223C174.869 36.5077 175.115 35.9766 175.115 35.3289C175.115 35.0957 175.089 34.6682 175.037 34.0463C175.011 33.4245 174.959 32.6991 174.882 31.87C174.83 31.0409 174.778 30.2247 174.726 29.4215C174.7 28.5924 174.687 27.8799 174.687 27.284V19.6278C174.687 19.0319 174.7 18.2287 174.726 17.2183C174.778 16.2078 174.83 15.1714 174.882 14.1091C174.959 13.021 175.011 12.0753 175.037 11.2721C175.089 10.443 175.115 9.91184 175.115 9.67866C175.115 9.00501 174.869 8.47387 174.376 8.08524C173.884 7.67069 173.34 7.46341 172.744 7.46341C172.148 7.46341 171.591 7.67069 171.073 8.08524C170.581 8.47387 170.335 9.00501 170.335 9.67866C170.335 11.1555 170.335 12.4509 170.335 13.565C170.36 14.6532 170.373 15.8192 170.373 17.0628C170.373 17.7624 170.27 18.5526 170.063 19.4335C169.855 20.2885 169.493 21.1176 168.974 21.9208C168.456 22.724 167.744 23.3976 166.837 23.9417C165.93 24.4599 164.764 24.719 163.339 24.719C161.94 24.719 160.787 24.4599 159.88 23.9417C158.973 23.3976 158.261 22.724 157.743 21.9208C157.25 21.1176 156.901 20.2885 156.693 19.4335C156.486 18.5526 156.382 17.7624 156.382 17.0628C156.382 15.871 156.395 14.718 156.421 13.6039C156.473 12.4639 156.499 11.1555 156.499 9.67866C156.499 9.00501 156.253 8.47387 155.761 8.08524C155.268 7.67069 154.724 7.46341 154.128 7.46341C153.532 7.46341 152.975 7.67069 152.457 8.08524C151.965 8.47387 151.719 9.00501 151.719 9.67866C151.719 9.91184 151.732 10.443 151.758 11.2721C151.809 12.1012 151.861 13.0598 151.913 14.148C151.991 15.2362 152.043 16.2985 152.069 17.3348C152.12 18.3712 152.146 19.2133 152.146 19.861V27.5172C152.146 28.1649 152.12 28.8904 152.069 29.6936C152.043 30.4968 151.991 31.287 151.913 32.0643C151.861 32.8416 151.809 33.5282 151.758 34.1241C151.732 34.72 151.719 35.1345 151.719 35.3677C151.719 36.0154 151.965 36.5466 152.457 36.9611C152.975 37.3757 153.532 37.583 154.128 37.583C154.724 37.583 155.268 37.3757 155.761 36.9611C156.253 36.5466 156.499 36.0154 156.499 35.3677C156.499 35.1345 156.473 34.72 156.421 34.1241C156.395 33.5022 156.357 32.8027 156.305 32.0254C156.253 31.2222 156.201 30.419 156.149 29.6159C156.097 28.8127 156.072 28.1131 156.072 27.5172L155.955 21.0658H156.072ZM197.466 37H193.084V26.0111H187.129H186.845L180.947 37H175.956L182.393 25.2454C180.635 24.5932 179.307 23.5628 178.409 22.1544C177.511 20.7364 177.062 19.0396 177.062 17.064C177.062 15.7123 177.27 14.4881 177.686 13.3916C178.111 12.2856 178.73 11.3262 179.543 10.5132C180.366 9.70027 181.42 9.07165 182.705 8.62737C183.991 8.18309 185.461 7.96095 187.115 7.96095H197.466V37ZM193.084 22.2394V11.7184H187.583C185.484 11.7184 183.939 12.1816 182.946 13.108C181.963 14.0344 181.472 15.353 181.472 17.064C181.472 20.5143 183.49 22.2394 187.526 22.2394H193.084ZM202.035 7.96095H206.374V29.2865H206.644L221.418 7.96095H225.474V37H221.092V15.7028H220.823L206.062 37H202.035V7.96095ZM216.541 0.58775H220.029C220.029 2.19473 219.462 3.49449 218.327 4.48704C217.193 5.47958 215.671 5.97586 213.762 5.97586C211.871 5.97586 210.359 5.47958 209.224 4.48704C208.09 3.49449 207.523 2.19473 207.523 0.58775H210.997C210.997 1.37233 211.219 2.01985 211.663 2.53031C212.117 3.0313 212.816 3.2818 213.762 3.2818C214.697 3.2818 215.392 3.02658 215.846 2.51613C216.309 2.00567 216.541 1.36288 216.541 0.58775ZM228.636 11.7326V7.96095H251.11V11.7326H242.05V37H237.682V11.7326H228.636ZM253.192 7.55924V37H270.394V32.7942H257.398V11.7651H263.581C261.015 13.9941 259.375 16.8121 259.375 20.2608C259.375 24.0461 261.394 27.0322 265.431 27.0322C267.24 27.0322 268.922 26.4434 270.352 25.3078V15.5503C270.352 18.7467 268.417 22.8684 264.758 22.8684C262.403 22.8684 261.141 21.144 261.141 18.915C261.141 13.4053 268.922 8.73687 273.632 7.55924H253.192ZM19.8311 52.9609H24.17V74.2865H24.4394L39.2141 52.9609H43.2694V82H38.888V60.7028H38.6186L23.858 82H19.8311V52.9609ZM47.8639 82V52.9609H52.2453V65.5805H66.7223V52.9609H71.1178V82H66.7223V69.338H52.2453V82H47.8639ZM93.8085 52.9609V56.7326H80.0831V82H75.7017V52.9609H93.8085ZM115.523 61.9462C115.523 55.728 111.365 52.8521 104.019 52.8521H95.3139V82H99.2392V71.1181H109.46V68.5142H113.036V66.299H115.523V61.9462ZM108.683 65.2108V67.8147H99.2392V56.1555H103.436C108.955 56.1555 111.598 57.8655 111.598 61.9073V65.2108H108.683ZM118.504 82V52.9609H136.71V56.7326H122.885V65.5805H135.76V69.338H122.885V78.2283H136.88V82H118.504ZM138.568 89.0187V78.285H140.482C141.002 77.8408 141.47 77.302 141.886 76.6686C142.302 76.0258 142.699 75.2034 143.077 74.2014C143.465 73.19 143.786 71.928 144.041 70.4156C144.296 68.9031 144.476 67.1733 144.58 65.226L145.261 52.9609H163.169V78.285H166.459V88.9762H162.261V82H142.765V89.0187H138.568ZM145.643 78.285H158.972V56.7326H149.231L148.777 65.226C148.437 71.134 147.392 75.487 145.643 78.285ZM169.461 52.9609H173.8V74.2865H174.07L188.844 52.9609H192.9V82H188.518V60.7028H188.249L173.488 82H169.461V52.9609ZM197.494 82V52.9609H215.7V56.7326H201.876V65.5805H214.75V69.338H201.876V78.2283H215.87V82H197.494ZM218.642 82H222.795C222.795 79.5084 222.213 66.7185 225.95 66.7185C228.65 66.7185 232.387 72.1584 236 72.1584C238.99 72.1584 240.401 67.9643 241.066 65.6388V82H245.218V52.9319H241.066C241.066 55.4235 241.647 68.1719 237.91 68.1719C235.169 68.1719 231.39 62.732 227.819 62.732C224.829 62.732 223.417 66.8431 222.795 69.1685V52.9319H218.642V82ZM247.194 56.7326V52.9609H269.668V56.7326H260.608V82H256.24V56.7326H247.194ZM277.262 64.673H283.741C286.946 64.673 289.441 65.4387 291.228 66.97C293.015 68.5014 293.903 70.5763 293.894 73.1947C293.903 75.8415 293.005 77.9731 291.2 79.5895C289.404 81.1965 286.918 82 283.741 82H272.866V52.9609H277.262V64.673ZM300.955 52.9609V82H296.574V52.9609H300.955ZM277.262 68.3596V78.3134H283.741C284.649 78.3134 285.476 78.1716 286.223 77.888C286.979 77.6044 287.593 77.2216 288.066 76.7395C288.548 76.2574 288.917 75.7092 289.172 75.0947C289.437 74.4708 289.569 73.8186 289.569 73.138C289.569 71.7673 289.049 70.6283 288.009 69.7208C286.979 68.8133 285.556 68.3596 283.741 68.3596H277.262ZM0.238574 127V97.9609H10.873C12.376 97.9609 13.7183 98.1547 14.8999 98.5423C16.0815 98.9299 17.041 99.4734 17.7783 100.173C18.5156 100.863 19.0733 101.666 19.4514 102.583C19.839 103.5 20.0328 104.502 20.0328 105.589C20.0328 106.468 19.9052 107.263 19.6499 107.971C19.3947 108.68 19.0355 109.281 18.5723 109.772C18.1186 110.254 17.6081 110.656 17.041 110.977C16.4738 111.289 15.8404 111.535 15.1409 111.715V111.998C15.8783 112.036 16.5967 112.225 17.2962 112.566C18.0051 112.906 18.6479 113.369 19.2246 113.955C19.8106 114.541 20.2785 115.293 20.6283 116.21C20.9875 117.117 21.1671 118.11 21.1671 119.187C21.1671 120.322 20.9686 121.357 20.5716 122.292C20.1746 123.228 19.5838 124.051 18.7992 124.76C18.024 125.469 17.0031 126.022 15.7365 126.419C14.4698 126.806 13.0141 127 11.3693 127H0.238574ZM4.61995 123.243H10.9439C12.9479 123.243 14.4273 122.86 15.382 122.094C16.3367 121.319 16.8141 120.279 16.8141 118.975C16.8141 117.557 16.2895 116.366 15.2402 115.401C14.1909 114.428 12.8108 113.941 11.0999 113.941H4.61995V123.243ZM4.61995 110.524H10.4902C11.9932 110.524 13.2409 110.103 14.2335 109.262C15.2355 108.42 15.7365 107.31 15.7365 105.93C15.7365 104.663 15.2969 103.642 14.4178 102.867C13.5481 102.082 12.2767 101.69 10.6036 101.69H4.61995V110.524ZM32.2232 127H36.3758V114.542H47.4217C52.1141 114.542 55.893 110.929 55.893 106.196C55.893 101.462 52.1141 97.9319 47.4217 97.9319H32.2232V127ZM36.3758 110.39V102.084H47.4632C49.8302 102.084 51.7404 103.829 51.7404 106.237C51.7404 108.646 49.8302 110.39 47.4632 110.39H36.3758ZM57.625 127V97.9609H75.8312V101.733H62.0064V110.58H74.8811V114.338H62.0064V123.228H76.0013V127H57.625ZM105.65 123.129L105.268 133.863H100.9V127H79.8868V97.9609H84.0839V123.2H98.093V97.9609H102.304V123.129H105.65ZM107.374 122.57C107.4 121.378 107.543 120.199 107.802 119.033C108.061 117.841 108.32 116.649 108.579 115.457C108.864 114.266 109.007 113.074 109.007 111.882C109.033 110.716 108.877 109.563 108.54 108.423C108.204 107.283 107.867 106.156 107.53 105.042C107.193 103.902 107.025 102.788 107.025 101.7C107.025 100.585 107.245 99.7564 107.685 99.2123C108.152 98.6682 108.981 98.3055 110.173 98.1241C111.364 97.9427 113.062 97.8521 115.264 97.8521C117.311 97.8521 119.176 98.0723 120.86 98.5127C122.544 98.9273 123.879 99.6268 124.863 100.611C125.874 101.57 126.379 102.853 126.379 104.459C126.379 105.314 126.146 106.013 125.679 106.558C125.213 107.076 124.591 107.335 123.814 107.335C123.218 107.335 122.752 107.153 122.415 106.791C122.104 106.402 121.858 105.91 121.676 105.314C121.495 104.692 121.288 104.057 121.055 103.41C120.847 102.736 120.549 102.101 120.161 101.505C119.772 100.883 119.215 100.391 118.49 100.028C117.79 99.6398 116.844 99.4455 115.652 99.4455C114.357 99.4455 113.321 99.8859 112.543 100.767C111.766 101.622 111.377 102.697 111.377 103.993C111.377 105.314 111.559 106.363 111.922 107.141C112.31 107.892 112.802 108.462 113.398 108.851C114.02 109.213 114.694 109.472 115.419 109.628C116.171 109.757 116.909 109.861 117.635 109.939C118.386 109.991 119.06 110.094 119.655 110.25C120.277 110.379 120.77 110.625 121.132 110.988C121.521 111.325 121.715 111.869 121.715 112.62C121.715 113.424 121.469 114.032 120.977 114.447C120.51 114.861 119.992 115.069 119.422 115.069C118.697 115.069 117.958 114.861 117.207 114.447C116.482 114.032 115.782 113.514 115.108 112.892C114.461 112.271 113.865 111.636 113.321 110.988C112.802 110.314 112.375 109.719 112.038 109.2C111.727 108.656 111.559 108.293 111.533 108.112H111.377V116.04C111.377 117.491 111.403 118.826 111.455 120.043C111.507 121.261 111.701 122.323 112.038 123.23C112.375 124.111 112.945 124.798 113.748 125.29C114.577 125.756 115.756 125.99 117.285 125.99C118.243 125.99 118.982 125.795 119.5 125.407C120.044 124.992 120.472 124.5 120.783 123.93C121.093 123.334 121.391 122.738 121.676 122.142C121.987 121.546 122.363 121.054 122.803 120.665C123.27 120.251 123.93 120.043 124.785 120.043C125.692 120.043 126.431 120.315 127.001 120.859C127.597 121.378 127.895 122.012 127.895 122.764C127.895 123.852 127.454 124.759 126.573 125.484C125.692 126.184 124.475 126.702 122.92 127.039C121.365 127.402 119.578 127.583 117.557 127.583C115.484 127.583 113.787 127.531 112.466 127.428C111.144 127.324 110.108 127.104 109.357 126.767C108.631 126.43 108.113 125.925 107.802 125.251C107.517 124.577 107.374 123.684 107.374 122.57ZM153.599 97.9609V127H149.232V101.704H135.563V127H131.196V97.9609H153.599ZM157.07 101.733V97.9609H179.544V101.733H170.483V127H166.116V101.733H157.07ZM181.696 127H177.045L187.495 97.9609H192.557L203.007 127H198.356L195.705 119.315H184.362L181.696 127ZM185.638 115.628H194.429L190.147 103.236H189.92L185.638 115.628ZM207.789 106.503C209.879 109.127 213.897 111.381 217.217 111.873V111.996C216.233 111.873 215.291 111.791 214.307 111.791C208.609 111.791 204.304 114.579 204.304 120.687C204.304 122.942 204.919 125.196 206.272 127H214.553C211.068 127 208.404 124.335 208.404 120.851C208.404 117.449 210.986 114.784 214.389 114.702L224.309 127H229.597L222.915 118.719C220.784 116.096 216.807 113.882 213.446 113.431L213.487 113.308C214.43 113.431 215.372 113.513 216.315 113.513C222.054 113.513 226.113 110.767 226.113 104.659C226.113 102.404 225.539 100.108 224.145 98.3046H215.864C219.349 98.3046 222.013 100.969 222.013 104.454C222.013 107.733 219.636 110.357 216.356 110.603L206.477 98.3046H201.189L207.789 106.503ZM262.653 97.9609V127H258.286V101.704H244.617V127H240.25V97.9609H262.653ZM291.788 106.242C292.45 108.123 292.781 110.202 292.781 112.48C292.781 114.759 292.45 116.838 291.788 118.719C291.136 120.6 290.228 122.174 289.066 123.441C287.903 124.698 286.518 125.672 284.911 126.362C283.314 127.052 281.579 127.397 279.707 127.397C277.826 127.397 276.082 127.052 274.475 126.362C272.878 125.672 271.498 124.694 270.335 123.427C269.172 122.16 268.26 120.591 267.598 118.719C266.946 116.838 266.62 114.759 266.62 112.48C266.62 110.202 266.946 108.123 267.598 106.242C268.26 104.361 269.172 102.791 270.335 101.534C271.498 100.267 272.878 99.2891 274.475 98.599C276.082 97.909 277.826 97.5639 279.707 97.5639C281.579 97.5639 283.314 97.909 284.911 98.599C286.518 99.2891 287.903 100.267 289.066 101.534C290.228 102.791 291.136 104.361 291.788 106.242ZM287.775 117.16C288.22 115.77 288.442 114.21 288.442 112.48C288.442 110.751 288.22 109.191 287.775 107.801C287.341 106.412 286.731 105.268 285.946 104.37C285.162 103.462 284.24 102.768 283.181 102.286C282.123 101.804 280.965 101.562 279.707 101.562C278.45 101.562 277.288 101.804 276.219 102.286C275.161 102.768 274.239 103.462 273.454 104.37C272.679 105.268 272.07 106.412 271.625 107.801C271.19 109.191 270.973 110.751 270.973 112.48C270.973 114.21 271.19 115.77 271.625 117.16C272.07 118.549 272.679 119.698 273.454 120.605C274.239 121.503 275.161 122.193 276.219 122.675C277.288 123.157 278.45 123.398 279.707 123.398C280.965 123.398 282.123 123.157 283.181 122.675C284.24 122.193 285.162 121.503 285.946 120.605C286.731 119.698 287.341 118.549 287.775 117.16ZM294.249 134.019V123.285H296.163C296.683 122.841 297.151 122.302 297.567 121.669C297.983 121.026 298.38 120.203 298.758 119.201C299.145 118.19 299.467 116.928 299.722 115.416C299.977 113.903 300.157 112.173 300.261 110.226L300.941 97.9609H318.85V123.285H322.139V133.976H317.942V127H298.446V134.019H294.249ZM301.324 123.285H314.653V101.733H304.911L304.458 110.226C304.117 116.134 303.073 120.487 301.324 123.285ZM42.2363 149.458H46.5295V144.475H43.003V141.906H28.1687V145.165H42.2363V149.458ZM43.233 163.449C42.0064 166.822 39.3998 168.317 36.18 168.317C30.8902 168.317 27.3254 163.487 27.3254 156.242V148.308H23.4539V156.281C23.4539 165.442 28.5903 171.575 36.2183 171.575C41.1247 171.575 44.8812 169.198 46.8745 164.522L43.233 163.449ZM49.8887 171V141.961H60.5231C62.0261 141.961 63.3684 142.155 64.55 142.542C65.7316 142.93 66.6911 143.473 67.4284 144.173C68.1657 144.863 68.7234 145.666 69.1015 146.583C69.4891 147.5 69.6829 148.502 69.6829 149.589C69.6829 150.468 69.5553 151.263 69.3001 151.971C69.0448 152.68 68.6856 153.281 68.2224 153.772C67.7687 154.254 67.2582 154.656 66.6911 154.977C66.1239 155.289 65.4906 155.535 64.7911 155.715V155.998C65.5284 156.036 66.2468 156.225 66.9463 156.566C67.6553 156.906 68.2981 157.369 68.8747 157.955C69.4608 158.541 69.9287 159.293 70.2784 160.21C70.6376 161.117 70.8172 162.11 70.8172 163.187C70.8172 164.322 70.6187 165.357 70.2217 166.292C69.8247 167.228 69.2339 168.051 68.4493 168.76C67.6742 169.469 66.6533 170.022 65.3866 170.419C64.1199 170.806 62.6642 171 61.0194 171H49.8887ZM54.2701 167.243H60.594C62.598 167.243 64.0774 166.86 65.0321 166.094C65.9868 165.319 66.4642 164.279 66.4642 162.975C66.4642 161.557 65.9396 160.366 64.8903 159.401C63.8411 158.428 62.4609 157.941 60.75 157.941H54.2701V167.243ZM54.2701 154.524H60.1403C61.6433 154.524 62.891 154.103 63.8836 153.262C64.8856 152.42 65.3866 151.31 65.3866 149.93C65.3866 148.663 64.947 147.642 64.0679 146.867C63.1983 146.082 61.9269 145.69 60.2537 145.69H54.2701V154.524ZM98.4494 150.242C99.1111 152.123 99.442 154.202 99.442 156.48C99.442 158.759 99.1111 160.838 98.4494 162.719C97.7972 164.6 96.8897 166.174 95.727 167.441C94.5643 168.698 93.1795 169.672 91.5725 170.362C89.975 171.052 88.2404 171.397 86.3687 171.397C84.4876 171.397 82.7436 171.052 81.1366 170.362C79.5391 169.672 78.159 168.694 76.9963 167.427C75.8336 166.16 74.9214 164.591 74.2597 162.719C73.6074 160.838 73.2813 158.759 73.2813 156.48C73.2813 154.202 73.6074 152.123 74.2597 150.242C74.9214 148.361 75.8336 146.791 76.9963 145.534C78.159 144.267 79.5391 143.289 81.1366 142.599C82.7436 141.909 84.4876 141.564 86.3687 141.564C88.2404 141.564 89.975 141.909 91.5725 142.599C93.1795 143.289 94.5643 144.267 95.727 145.534C96.8897 146.791 97.7972 148.361 98.4494 150.242ZM94.4367 161.16C94.881 159.77 95.1031 158.21 95.1031 156.48C95.1031 154.751 94.881 153.191 94.4367 151.801C94.0019 150.412 93.3922 149.268 92.6076 148.37C91.823 147.462 90.9014 146.768 89.8426 146.286C88.7839 145.804 87.626 145.562 86.3687 145.562C85.1115 145.562 83.9488 145.804 82.8806 146.286C81.8219 146.768 80.9003 147.462 80.1157 148.37C79.3406 149.268 78.7309 150.412 78.2866 151.801C77.8517 153.191 77.6343 154.751 77.6343 156.48C77.6343 158.21 77.8517 159.77 78.2866 161.16C78.7309 162.549 79.3406 163.698 80.1157 164.605C80.9003 165.503 81.8219 166.193 82.8806 166.675C83.9488 167.157 85.1115 167.398 86.3687 167.398C87.626 167.398 88.7839 167.157 89.8426 166.675C90.9014 166.193 91.823 165.503 92.6076 164.605C93.3922 163.698 94.0019 162.549 94.4367 161.16ZM103.108 141.961H107.447V163.287H107.716L122.491 141.961H126.546V171H122.165V149.703H121.895L107.135 171H103.108V141.961ZM117.613 134.588H121.101C121.101 136.195 120.534 137.494 119.4 138.487C118.265 139.48 116.743 139.976 114.834 139.976C112.943 139.976 111.431 139.48 110.297 138.487C109.162 137.494 108.595 136.195 108.595 134.588H112.069C112.069 135.372 112.291 136.02 112.735 136.53C113.189 137.031 113.889 137.282 114.834 137.282C115.77 137.282 116.465 137.027 116.918 136.516C117.381 136.006 117.613 135.363 117.613 134.588ZM139.911 171V141.961H150.262C151.906 141.961 153.372 142.202 154.657 142.684C155.952 143.157 157.006 143.818 157.819 144.669C158.642 145.51 159.261 146.498 159.677 147.633C160.102 148.767 160.315 150.01 160.315 151.362C160.315 152.714 160.102 153.961 159.677 155.105C159.251 156.239 158.627 157.232 157.805 158.083C156.992 158.933 155.938 159.6 154.643 160.082C153.357 160.555 151.892 160.791 150.247 160.791H144.292V171H139.911ZM144.292 157.076H149.85C151.902 157.076 153.424 156.561 154.416 155.53C155.409 154.491 155.905 153.101 155.905 151.362C155.905 149.622 155.404 148.247 154.402 147.236C153.409 146.224 151.873 145.718 149.794 145.718H144.292V157.076ZM163.027 171H158.376L168.826 141.961H173.888L184.338 171H179.687L177.036 163.315H165.693L163.027 171ZM166.969 159.628H175.76L171.478 147.236H171.251L166.969 159.628ZM212.499 167.129L212.116 177.863H207.749V171H186.735V141.961H190.932V167.2H204.941V141.961H209.152V167.129H212.499ZM215.509 141.961H219.847V163.287H220.117L234.892 141.961H238.947V171H234.565V149.703H234.296L219.535 171H215.509V141.961ZM267.774 150.242C268.435 152.123 268.766 154.202 268.766 156.48C268.766 158.759 268.435 160.838 267.774 162.719C267.121 164.6 266.214 166.174 265.051 167.441C263.889 168.698 262.504 169.672 260.897 170.362C259.299 171.052 257.565 171.397 255.693 171.397C253.812 171.397 252.068 171.052 250.461 170.362C248.863 169.672 247.483 168.694 246.32 167.427C245.158 166.16 244.246 164.591 243.584 162.719C242.932 160.838 242.606 158.759 242.606 156.48C242.606 154.202 242.932 152.123 243.584 150.242C244.246 148.361 245.158 146.791 246.32 145.534C247.483 144.267 248.863 143.289 250.461 142.599C252.068 141.909 253.812 141.564 255.693 141.564C257.565 141.564 259.299 141.909 260.897 142.599C262.504 143.289 263.889 144.267 265.051 145.534C266.214 146.791 267.121 148.361 267.774 150.242ZM263.761 161.16C264.205 159.77 264.427 158.21 264.427 156.48C264.427 154.751 264.205 153.191 263.761 151.801C263.326 150.412 262.716 149.268 261.932 148.37C261.147 147.462 260.226 146.768 259.167 146.286C258.108 145.804 256.95 145.562 255.693 145.562C254.436 145.562 253.273 145.804 252.205 146.286C251.146 146.768 250.224 147.462 249.44 148.37C248.665 149.268 248.055 150.412 247.611 151.801C247.176 153.191 246.959 154.751 246.959 156.48C246.959 158.21 247.176 159.77 247.611 161.16C248.055 162.549 248.665 163.698 249.44 164.605C250.224 165.503 251.146 166.193 252.205 166.675C253.273 167.157 254.436 167.398 255.693 167.398C256.95 167.398 258.108 167.157 259.167 166.675C260.226 166.193 261.147 165.503 261.932 164.605C262.716 163.698 263.326 162.549 263.761 161.16ZM272.432 171V141.961H276.813V154.58H291.29V141.961H295.686V171H291.29V158.338H276.813V171H272.432ZM93.319 185.961V215H88.9518V189.704H75.283V215H70.9158V185.961H93.319ZM98.2219 185.961H102.561V207.287H102.83L117.605 185.961H121.66V215H117.279V193.703H117.009L102.249 215H98.2219V185.961ZM124.823 189.733V185.961H147.297V189.733H138.236V215H133.869V189.733H124.823ZM149.449 215H144.798L155.248 185.961H160.31L170.76 215H166.109L163.458 207.315H152.114L149.449 215ZM153.391 203.628H162.182L157.9 191.236H157.673L153.391 203.628ZM173.157 215V185.961H177.538V198.58H192.015V185.961H196.411V215H192.015V202.338H177.538V215H173.157ZM200.995 185.961H205.333V207.287H205.603L220.378 185.961H224.433V215H220.051V193.703H219.782L205.021 215H200.995V185.961ZM248.396 215H244.015V204.011H238.059H237.776L231.877 215H226.886L233.324 203.245C231.565 202.593 230.237 201.563 229.339 200.154C228.441 198.736 227.992 197.04 227.992 195.064C227.992 193.712 228.2 192.488 228.616 191.392C229.042 190.286 229.661 189.326 230.474 188.513C231.296 187.7 232.35 187.072 233.636 186.627C234.921 186.183 236.391 185.961 238.045 185.961H248.396V215ZM244.015 200.239V189.718H238.513C236.415 189.718 234.869 190.182 233.877 191.108C232.894 192.034 232.402 193.353 232.402 195.064C232.402 198.514 234.42 200.239 238.457 200.239H244.015Z" fill="#272727"/>
</svg>
