<svg width="20" height="20" viewBox="0 0 20 20" fill="none" xmlns="http://www.w3.org/2000/svg">
<path fill-rule="evenodd" clip-rule="evenodd" d="M9.93023 19.8605C15.4146 19.8605 19.8605 15.4146 19.8605 9.93023C19.8605 4.44592 15.4146 0 9.93023 0C4.44592 0 0 4.44592 0 9.93023C0 15.4146 4.44592 19.8605 9.93023 19.8605ZM11.0331 6.80215C10.6791 5.8419 9.32093 5.8419 8.96691 6.80215C8.78327 7.30026 8.27033 7.59641 7.74712 7.50639C6.73851 7.33286 6.05944 8.50904 6.71403 9.29576C7.05359 9.70386 7.05359 10.2961 6.71403 10.7042C6.05944 11.491 6.73851 12.6671 7.74712 12.4936C8.27033 12.4036 8.78327 12.6997 8.96691 13.1979C9.32093 14.1581 10.6791 14.1581 11.0331 13.1979C11.2167 12.6997 11.7297 12.4036 12.2529 12.4936C13.2615 12.6671 13.9406 11.491 13.286 10.7042C12.9464 10.2961 12.9464 9.70386 13.286 9.29576C13.9406 8.50904 13.2615 7.33286 12.2529 7.50639C11.7297 7.59641 11.2167 7.30027 11.0331 6.80215Z" fill="#AD99E5"/>
<path fill-rule="evenodd" clip-rule="evenodd" d="M9.93023 19.8605C15.4146 19.8605 19.8605 15.4146 19.8605 9.93023C19.8605 4.44592 15.4146 0 9.93023 0C4.44592 0 0 4.44592 0 9.93023C0 15.4146 4.44592 19.8605 9.93023 19.8605ZM11.0331 6.80215C10.6791 5.8419 9.32093 5.8419 8.96691 6.80215C8.78327 7.30026 8.27033 7.59641 7.74712 7.50639C6.73851 7.33286 6.05944 8.50904 6.71403 9.29576C7.05359 9.70386 7.05359 10.2961 6.71403 10.7042C6.05944 11.491 6.73851 12.6671 7.74712 12.4936C8.27033 12.4036 8.78327 12.6997 8.96691 13.1979C9.32093 14.1581 10.6791 14.1581 11.0331 13.1979C11.2167 12.6997 11.7297 12.4036 12.2529 12.4936C13.2615 12.6671 13.9406 11.491 13.286 10.7042C12.9464 10.2961 12.9464 9.70386 13.286 9.29576C13.9406 8.50904 13.2615 7.33286 12.2529 7.50639C11.7297 7.59641 11.2167 7.30027 11.0331 6.80215Z" fill="url(#paint0_linear)"/>
<defs>
<linearGradient id="paint0_linear" x1="9.93023" y1="0" x2="9.93023" y2="19.8605" gradientUnits="userSpaceOnUse">
<stop stop-color="#AD99E5"/>
<stop offset="1" stop-color="#A391D6"/>
</linearGradient>
</defs>
</svg>
