<svg width="19" height="20" viewBox="0 0 19 20" fill="none" xmlns="http://www.w3.org/2000/svg">
<mask id="mask0" mask-type="alpha" maskUnits="userSpaceOnUse" x="0" y="0" width="19" height="20">
<path fill-rule="evenodd" clip-rule="evenodd" d="M0 3.66667C0 1.91777 1.41777 0.5 3.16667 0.5H15.8333C17.5822 0.5 19 1.91777 19 3.66667C19 5.41558 17.5822 6.83334 15.8333 6.83334H3.16667C1.41777 6.83334 0 5.41558 0 3.66667ZM0 10.0002C0 8.25126 1.41777 6.8335 3.16667 6.8335H15.8333C17.5822 6.8335 19 8.25126 19 10.0002C19 11.7435 17.5912 13.1578 15.85 13.1668C17.5912 13.1758 19 14.5901 19 16.3334C19 18.0823 17.5822 19.5001 15.8333 19.5001H3.16667C1.41777 19.5001 0 18.0823 0 16.3334C0 14.5901 1.40877 13.1758 3.15001 13.1668C1.40877 13.1578 0 11.7435 0 10.0002Z" fill="#C4C4C4"/>
</mask>
<g mask="url(#mask0)">
<path fill-rule="evenodd" clip-rule="evenodd" d="M9.53946 -2.1947L-0.844466 -13.0649L-3.6001 -10.1803L9.548 3.58362L10.3661 2.72715L10.3665 2.72748L21.7475 -9.1866L18.983 -12.0806L9.53946 -2.1947ZM9.53946 4.8053L-0.844466 -6.06494L-3.6001 -3.18025L9.548 10.5836L10.3661 9.72715L10.3665 9.72749L21.7475 -2.18661L18.983 -5.08057L9.53946 4.8053ZM9.53946 11.8053L-0.844466 0.935059L-3.6001 3.81975L9.548 17.5836L10.3661 16.7272L10.3665 16.7275L21.7475 4.81339L18.983 1.91943L9.53946 11.8053ZM9.53946 18.8053L-0.844466 7.93506L-3.6001 10.8197L9.548 24.5836L10.3661 23.7271L10.3665 23.7275L21.7475 11.8134L18.983 8.91943L9.53946 18.8053ZM9.53946 25.8053L-0.844466 14.9351L-3.6001 17.8197L9.548 31.5836L10.3661 30.7271L10.3665 30.7275L21.7475 18.8134L18.983 15.9194L9.53946 25.8053Z" fill="#FF6242"/>
<path fill-rule="evenodd" clip-rule="evenodd" d="M9.53946 -2.1947L-0.844466 -13.0649L-3.6001 -10.1803L9.548 3.58362L10.3661 2.72715L10.3665 2.72748L21.7475 -9.1866L18.983 -12.0806L9.53946 -2.1947ZM9.53946 4.8053L-0.844466 -6.06494L-3.6001 -3.18025L9.548 10.5836L10.3661 9.72715L10.3665 9.72749L21.7475 -2.18661L18.983 -5.08057L9.53946 4.8053ZM9.53946 11.8053L-0.844466 0.935059L-3.6001 3.81975L9.548 17.5836L10.3661 16.7272L10.3665 16.7275L21.7475 4.81339L18.983 1.91943L9.53946 11.8053ZM9.53946 18.8053L-0.844466 7.93506L-3.6001 10.8197L9.548 24.5836L10.3661 23.7271L10.3665 23.7275L21.7475 11.8134L18.983 8.91943L9.53946 18.8053ZM9.53946 25.8053L-0.844466 14.9351L-3.6001 17.8197L9.548 31.5836L10.3661 30.7271L10.3665 30.7275L21.7475 18.8134L18.983 15.9194L9.53946 25.8053Z" fill="url(#paint0_linear)"/>
</g>
<defs>
<linearGradient id="paint0_linear" x1="9.07371" y1="-3.5" x2="9.07371" y2="22.5" gradientUnits="userSpaceOnUse">
<stop stop-color="#FF6242"/>
<stop offset="1" stop-color="#EF674B"/>
</linearGradient>
</defs>
</svg>
