<svg width="40" height="25" viewBox="0 0 40 25" fill="none" xmlns="http://www.w3.org/2000/svg">
<path d="M9.03977 22H7.28409V17.5966H4.89773H4.78409L2.42045 22H0.420455L3 17.2898C2.29545 17.0284 1.76326 16.6155 1.40341 16.0511C1.04356 15.483 0.863636 14.803 0.863636 14.0114C0.863636 13.4697 0.94697 12.9792 1.11364 12.5398C1.28409 12.0966 1.5322 11.7121 1.85795 11.3864C2.1875 11.0606 2.60985 10.8087 3.125 10.6307C3.64015 10.4527 4.22917 10.3636 4.89205 10.3636H9.03977V22ZM7.28409 16.0852V11.8693H5.07955C4.23864 11.8693 3.61932 12.0549 3.22159 12.4261C2.82765 12.7973 2.63068 13.3258 2.63068 14.0114C2.63068 15.3939 3.43939 16.0852 5.05682 16.0852H7.28409ZM19.2903 22.1761C18.4418 22.1761 17.7032 21.9924 17.0744 21.625C16.4456 21.2538 15.9645 20.7311 15.6312 20.0568C15.3016 19.3788 15.1369 18.5909 15.1369 17.6932C15.1369 17.0303 15.2335 16.4186 15.4266 15.858C15.6198 15.2936 15.8907 14.8144 16.2391 14.4205C16.5876 14.0227 17.0138 13.714 17.5176 13.4943C18.0213 13.2708 18.5725 13.1591 19.171 13.1591C19.5763 13.1591 19.9626 13.2102 20.3301 13.3125C20.7013 13.411 21.0516 13.5739 21.3812 13.8011C21.7145 14.0246 22.0024 14.303 22.2448 14.6364C22.4873 14.9697 22.6785 15.3845 22.8187 15.8807C22.9626 16.3769 23.0346 16.9318 23.0346 17.5455V18.1477H16.8301C16.8528 18.9773 17.0857 19.6231 17.5289 20.0852C17.9759 20.5436 18.5687 20.7727 19.3073 20.7727C19.796 20.7727 20.2145 20.6667 20.563 20.4545C20.9153 20.2424 21.1672 19.9337 21.3187 19.5284L22.9266 19.8182C22.7297 20.5379 22.3092 21.1117 21.6653 21.5398C21.0213 21.964 20.2297 22.1761 19.2903 22.1761ZM16.8357 16.875H21.3698C21.366 16.2008 21.1634 15.6477 20.7619 15.2159C20.3604 14.7803 19.8338 14.5625 19.1823 14.5625C18.5157 14.5625 17.9664 14.7879 17.5346 15.2386C17.1028 15.6856 16.8698 16.2311 16.8357 16.875ZM29.7373 19.8977L32.5555 13.2727H34.6691V22H33.0157V15.6761L30.368 22H29.1066L26.5043 15.6534V22H24.8395V13.2727H26.9759L29.7373 19.8977Z" fill="#9AA1A5"/>
</svg>
