<svg width="20" height="20" viewBox="0 0 20 20" fill="none" xmlns="http://www.w3.org/2000/svg">
<path fill-rule="evenodd" clip-rule="evenodd" d="M9.99998 5.01265C10 5.00844 10 5.00422 10 5C10 2.23858 7.76142 0 5 0C2.23858 0 0 2.23858 0 5C0 7.76142 2.23858 10 5 10C5.00422 10 5.00844 10 5.01265 9.99998C5.01265 10 5.01265 10 5.01265 10.0001C5.00844 10.0001 5.00422 10.0001 5 10.0001C2.23858 10.0001 0 12.2386 0 15.0001C0 17.7615 2.23858 20.0001 5 20.0001C7.75724 20.0001 9.99321 17.7683 9.99998 15.0126C10 15.0126 10 15.0126 10.0001 15.0126C10.0068 17.7683 12.2428 20.0001 15.0001 20.0001C17.7615 20.0001 20.0001 17.7615 20.0001 15.0001C20.0001 12.2428 17.7683 10.0068 15.0126 10.0001C15.0126 10 15.0126 10 15.0126 9.99998C17.7683 9.99321 20.0001 7.75724 20.0001 5C20.0001 2.23858 17.7615 0 15.0001 0C12.2386 0 10.0001 2.23858 10.0001 5C10.0001 5.00422 10.0001 5.00844 10.0001 5.01265C10 5.01265 10 5.01265 9.99998 5.01265Z" fill="#4AB15E"/>
<path fill-rule="evenodd" clip-rule="evenodd" d="M9.99998 5.01265C10 5.00844 10 5.00422 10 5C10 2.23858 7.76142 0 5 0C2.23858 0 0 2.23858 0 5C0 7.76142 2.23858 10 5 10C5.00422 10 5.00844 10 5.01265 9.99998C5.01265 10 5.01265 10 5.01265 10.0001C5.00844 10.0001 5.00422 10.0001 5 10.0001C2.23858 10.0001 0 12.2386 0 15.0001C0 17.7615 2.23858 20.0001 5 20.0001C7.75724 20.0001 9.99321 17.7683 9.99998 15.0126C10 15.0126 10 15.0126 10.0001 15.0126C10.0068 17.7683 12.2428 20.0001 15.0001 20.0001C17.7615 20.0001 20.0001 17.7615 20.0001 15.0001C20.0001 12.2428 17.7683 10.0068 15.0126 10.0001C15.0126 10 15.0126 10 15.0126 9.99998C17.7683 9.99321 20.0001 7.75724 20.0001 5C20.0001 2.23858 17.7615 0 15.0001 0C12.2386 0 10.0001 2.23858 10.0001 5C10.0001 5.00422 10.0001 5.00844 10.0001 5.01265C10 5.01265 10 5.01265 9.99998 5.01265Z" fill="url(#paint0_linear)"/>
<defs>
<linearGradient id="paint0_linear" x1="10" y1="0" x2="10" y2="20.0001" gradientUnits="userSpaceOnUse">
<stop stop-color="#4AB15E"/>
<stop offset="1" stop-color="#45A357"/>
</linearGradient>
</defs>
</svg>
