<svg width="24" height="23" viewBox="0 0 24 23" fill="none" xmlns="http://www.w3.org/2000/svg">
<mask id="mask0" mask-type="alpha" maskUnits="userSpaceOnUse" x="3" y="2" width="19" height="20">
<rect x="3" y="2.5" width="19" height="19" fill="#C4C4C4"/>
</mask>
<g mask="url(#mask0)">
<g filter="url(#filter0_i)">
<circle cx="3" cy="2.5" r="19" fill="#F8F5E8"/>
<circle cx="3" cy="2.5" r="19" fill="url(#paint0_linear)"/>
</g>
<circle cx="2.99998" cy="2.50022" r="10.374" fill="#FFCC11"/>
</g>
<g filter="url(#filter1_f)">
<path d="M16.6501 10.5353C10.9311 15.7778 8.54823 15.3012 4.73557 17.684C4.33317 17.9355 3.80029 19.8267 4.25898 19.7052C11.8842 17.6839 18.0798 13.3947 18.5564 10.5353C18.7124 9.59922 17.3496 9.89404 16.6501 10.5353Z" fill="#E2DDD3" fill-opacity="0.8"/>
</g>
<g filter="url(#filter2_f)">
<path d="M20.6782 3.77965C18.3977 3.77963 16.3072 3.41196 14.4068 3.38672C14.2176 3.38421 14.2239 6.23697 14.4068 6.13674C17.4474 4.47054 20.6782 7.70808 20.8682 5.35102C20.9304 4.57936 21.0566 3.77965 20.6782 3.77965Z" fill="url(#paint1_radial)"/>
</g>
<g filter="url(#filter3_f)">
<path d="M12.0251 3.77965C9.09299 3.77963 6.40525 3.41196 3.96185 3.38672C3.71856 3.38421 3.72668 6.23697 3.96185 6.13674C7.87127 4.47054 12.0251 7.70808 12.2694 5.35102C12.3494 4.57936 12.5116 3.77965 12.0251 3.77965Z" fill="url(#paint2_radial)"/>
</g>
<defs>
<filter id="filter0_i" x="-16" y="-16.5" width="38" height="38" filterUnits="userSpaceOnUse" color-interpolation-filters="sRGB">
<feFlood flood-opacity="0" result="BackgroundImageFix"/>
<feBlend mode="normal" in="SourceGraphic" in2="BackgroundImageFix" result="shape"/>
<feColorMatrix in="SourceAlpha" type="matrix" values="0 0 0 0 0 0 0 0 0 0 0 0 0 0 0 0 0 0 127 0" result="hardAlpha"/>
<feOffset/>
<feGaussianBlur stdDeviation="3.5"/>
<feComposite in2="hardAlpha" operator="arithmetic" k2="-1" k3="1"/>
<feColorMatrix type="matrix" values="0 0 0 0 0.833333 0 0 0 0 0.816782 0 0 0 0 0.734028 0 0 0 0.3 0"/>
<feBlend mode="normal" in2="shape" result="effect1_innerShadow"/>
</filter>
<filter id="filter1_f" x="1.26691" y="7.12348" width="20.117" height="15.4025" filterUnits="userSpaceOnUse" color-interpolation-filters="sRGB">
<feFlood flood-opacity="0" result="BackgroundImageFix"/>
<feBlend mode="normal" in="SourceGraphic" in2="BackgroundImageFix" result="shape"/>
<feGaussianBlur stdDeviation="1.40762" result="effect1_foregroundBlur"/>
</filter>
<filter id="filter2_f" x="11.452" y="0.571478" width="12.3026" height="8.48996" filterUnits="userSpaceOnUse" color-interpolation-filters="sRGB">
<feFlood flood-opacity="0" result="BackgroundImageFix"/>
<feBlend mode="normal" in="SourceGraphic" in2="BackgroundImageFix" result="shape"/>
<feGaussianBlur stdDeviation="1.40762" result="effect1_foregroundBlur"/>
</filter>
<filter id="filter3_f" x="0.96723" y="0.571478" width="14.2089" height="8.48996" filterUnits="userSpaceOnUse" color-interpolation-filters="sRGB">
<feFlood flood-opacity="0" result="BackgroundImageFix"/>
<feBlend mode="normal" in="SourceGraphic" in2="BackgroundImageFix" result="shape"/>
<feGaussianBlur stdDeviation="1.40762" result="effect1_foregroundBlur"/>
</filter>
<linearGradient id="paint0_linear" x1="3" y1="-1.39361" x2="3" y2="21.5" gradientUnits="userSpaceOnUse">
<stop stop-color="#F5F5F5"/>
<stop offset="0.0001" stop-color="#FFFCF4"/>
<stop offset="1" stop-color="#D7D7D7" stop-opacity="0.11"/>
</linearGradient>
<radialGradient id="paint1_radial" cx="0" cy="0" r="1" gradientUnits="userSpaceOnUse" gradientTransform="translate(17.6033 4.81646) rotate(90) scale(1.42974 3.33605)">
<stop stop-color="#F8F8F8"/>
<stop offset="1" stop-color="white" stop-opacity="0"/>
</radialGradient>
<radialGradient id="paint2_radial" cx="0" cy="0" r="1" gradientUnits="userSpaceOnUse" gradientTransform="translate(8.07163 4.81646) rotate(75.0686) scale(1.84962 5.3877)">
<stop stop-color="#FFE587"/>
<stop offset="1" stop-color="#FFCC11"/>
</radialGradient>
</defs>
</svg>
